<svg width="130" height="130" viewBox="0 0 130 130" fill="none" xmlns="http://www.w3.org/2000/svg">
<circle cx="65" cy="65" r="60" stroke="#221FD1" stroke-width="10"/>
<path d="M53.9297 88.9766L53.3438 89.6855L52.0137 88.6719C51.6934 88.8477 51.3457 88.9883 50.9707 89.0938C50.5996 89.1992 50.1934 89.252 49.752 89.252C48.416 89.252 47.3691 88.8145 46.6113 87.9395C45.9434 87.0879 45.6094 86.0215 45.6094 84.7402C45.6094 83.5762 45.8984 82.5801 46.4766 81.752C47.2188 80.6895 48.3164 80.1582 49.7695 80.1582C51.2891 80.1582 52.4141 80.6465 53.1445 81.623C53.7148 82.3848 54 83.3594 54 84.5469C54 85.1016 53.9316 85.6348 53.7949 86.1465C53.5879 86.9277 53.2383 87.5645 52.7461 88.0566L53.9297 88.9766ZM49.8926 88.209C50.1348 88.209 50.3613 88.1934 50.5723 88.1621C50.7832 88.127 50.9668 88.0605 51.123 87.9629L50.1797 87.2246L50.7656 86.5039L51.8906 87.377C52.2461 86.9707 52.4863 86.5156 52.6113 86.0117C52.7402 85.5078 52.8047 85.0254 52.8047 84.5645C52.8047 83.5527 52.5391 82.7383 52.0078 82.1211C51.4805 81.5039 50.7578 81.1953 49.8398 81.1953C48.9102 81.1953 48.1738 81.4922 47.6309 82.0859C47.0879 82.6758 46.8164 83.5859 46.8164 84.8164C46.8164 85.8516 47.0762 86.6758 47.5957 87.2891C48.1191 87.9023 48.8848 88.209 49.8926 88.209ZM56.3086 82.7246V86.8906C56.3086 87.2109 56.3594 87.4727 56.4609 87.6758C56.6484 88.0508 56.998 88.2383 57.5098 88.2383C58.2441 88.2383 58.7441 87.9102 59.0098 87.2539C59.1543 86.9023 59.2266 86.4199 59.2266 85.8066V82.7246H60.2812V89H59.2852L59.2969 88.0742C59.1602 88.3125 58.9902 88.5137 58.7871 88.6777C58.3848 89.0059 57.8965 89.1699 57.3223 89.1699C56.4277 89.1699 55.8184 88.8711 55.4941 88.2734C55.3184 87.9531 55.2305 87.5254 55.2305 86.9902V82.7246H56.3086ZM64.4238 88.3203C65.123 88.3203 65.6016 88.0566 65.8594 87.5293C66.1211 86.998 66.252 86.4082 66.252 85.7598C66.252 85.1738 66.1582 84.6973 65.9707 84.3301C65.6738 83.752 65.1621 83.4629 64.4355 83.4629C63.791 83.4629 63.3223 83.709 63.0293 84.2012C62.7363 84.6934 62.5898 85.2871 62.5898 85.9824C62.5898 86.6504 62.7363 87.207 63.0293 87.6523C63.3223 88.0977 63.7871 88.3203 64.4238 88.3203ZM64.4648 82.543C65.2734 82.543 65.957 82.8125 66.5156 83.3516C67.0742 83.8906 67.3535 84.6836 67.3535 85.7305C67.3535 86.7422 67.1074 87.5781 66.6152 88.2383C66.123 88.8984 65.3594 89.2285 64.3242 89.2285C63.4609 89.2285 62.7754 88.9375 62.2676 88.3555C61.7598 87.7695 61.5059 86.9844 61.5059 86C61.5059 84.9453 61.7734 84.1055 62.3086 83.4805C62.8438 82.8555 63.5625 82.543 64.4648 82.543ZM68.8242 80.9727H69.8906V82.7246H70.8926V83.5859H69.8906V87.6816C69.8906 87.9004 69.9648 88.0469 70.1133 88.1211C70.1953 88.1641 70.332 88.1855 70.5234 88.1855C70.5742 88.1855 70.6289 88.1855 70.6875 88.1855C70.7461 88.1816 70.8145 88.1758 70.8926 88.168V89C70.7715 89.0352 70.6445 89.0605 70.5117 89.0762C70.3828 89.0918 70.2422 89.0996 70.0898 89.0996C69.5977 89.0996 69.2637 88.9746 69.0879 88.7246C68.9121 88.4707 68.8242 88.1426 68.8242 87.7402V83.5859H67.9746V82.7246H68.8242V80.9727ZM74.5664 82.584C75.0117 82.584 75.4434 82.6895 75.8613 82.9004C76.2793 83.1074 76.5977 83.377 76.8164 83.709C77.0273 84.0254 77.168 84.3945 77.2383 84.8164C77.3008 85.1055 77.332 85.5664 77.332 86.1992H72.7324C72.752 86.8359 72.9023 87.3477 73.1836 87.7344C73.4648 88.1172 73.9004 88.3086 74.4902 88.3086C75.041 88.3086 75.4805 88.127 75.8086 87.7637C75.9961 87.5527 76.1289 87.3086 76.207 87.0312H77.2441C77.2168 87.2617 77.125 87.5195 76.9688 87.8047C76.8164 88.0859 76.6445 88.3164 76.4531 88.4961C76.1328 88.8086 75.7363 89.0195 75.2637 89.1289C75.0098 89.1914 74.7227 89.2227 74.4023 89.2227C73.6211 89.2227 72.959 88.9395 72.416 88.373C71.873 87.8027 71.6016 87.0059 71.6016 85.9824C71.6016 84.9746 71.875 84.1562 72.4219 83.5273C72.9688 82.8984 73.6836 82.584 74.5664 82.584ZM76.248 85.3613C76.2051 84.9043 76.1055 84.5391 75.9492 84.2656C75.6602 83.7578 75.1777 83.5039 74.502 83.5039C74.0176 83.5039 73.6113 83.6797 73.2832 84.0312C72.9551 84.3789 72.7812 84.8223 72.7617 85.3613H76.248ZM79.2598 87.0312C79.291 87.3828 79.3789 87.6523 79.5234 87.8398C79.7891 88.1797 80.25 88.3496 80.9062 88.3496C81.2969 88.3496 81.6406 88.2656 81.9375 88.0977C82.2344 87.9258 82.3828 87.6621 82.3828 87.3066C82.3828 87.0371 82.2637 86.832 82.0254 86.6914C81.873 86.6055 81.5723 86.5059 81.123 86.3926L80.2852 86.1816C79.75 86.0488 79.3555 85.9004 79.1016 85.7363C78.6484 85.4512 78.4219 85.0566 78.4219 84.5527C78.4219 83.959 78.6348 83.4785 79.0605 83.1113C79.4902 82.7441 80.0664 82.5605 80.7891 82.5605C81.7344 82.5605 82.416 82.8379 82.834 83.3926C83.0957 83.7441 83.2227 84.123 83.2148 84.5293H82.2188C82.1992 84.291 82.1152 84.0742 81.9668 83.8789C81.7246 83.6016 81.3047 83.4629 80.707 83.4629C80.3086 83.4629 80.0059 83.5391 79.7988 83.6914C79.5957 83.8438 79.4941 84.0449 79.4941 84.2949C79.4941 84.5684 79.6289 84.7871 79.8984 84.9512C80.0547 85.0488 80.2852 85.1348 80.5898 85.209L81.2871 85.3789C82.0449 85.5625 82.5527 85.7402 82.8105 85.9121C83.2207 86.1816 83.4258 86.6055 83.4258 87.1836C83.4258 87.7422 83.2129 88.2246 82.7871 88.6309C82.3652 89.0371 81.7207 89.2402 80.8535 89.2402C79.9199 89.2402 79.2578 89.0293 78.8672 88.6074C78.4805 88.1816 78.2734 87.6562 78.2461 87.0312H79.2598Z" fill="black"/>
<path d="M45.2109 60C45.2891 58.5547 45.5859 57.2969 46.1016 56.2266C46.625 55.1562 47.6406 54.1836 49.1484 53.3086L51.3984 52.0078C52.4062 51.4219 53.1133 50.9219 53.5195 50.5078C54.1602 49.8594 54.4805 49.1172 54.4805 48.2812C54.4805 47.3047 54.1875 46.5312 53.6016 45.9609C53.0156 45.3828 52.2344 45.0938 51.2578 45.0938C49.8125 45.0938 48.8125 45.6406 48.2578 46.7344C47.9609 47.3203 47.7969 48.1328 47.7656 49.1719H45.6211C45.6445 47.7109 45.9141 46.5195 46.4297 45.5977C47.3438 43.9727 48.957 43.1602 51.2695 43.1602C53.1914 43.1602 54.5938 43.6797 55.4766 44.7188C56.3672 45.7578 56.8125 46.9141 56.8125 48.1875C56.8125 49.5312 56.3398 50.6797 55.3945 51.6328C54.8477 52.1875 53.8672 52.8594 52.4531 53.6484L50.8477 54.5391C50.082 54.9609 49.4805 55.3633 49.043 55.7461C48.2617 56.4258 47.7695 57.1797 47.5664 58.0078H56.7305V60H45.2109ZM64.3125 43.2188C66.4844 43.2188 68.0547 44.1133 69.0234 45.9023C69.7734 47.2852 70.1484 49.1797 70.1484 51.5859C70.1484 53.8672 69.8086 55.7539 69.1289 57.2461C68.1445 59.3867 66.5352 60.457 64.3008 60.457C62.2852 60.457 60.7852 59.582 59.8008 57.832C58.9805 56.3711 58.5703 54.4102 58.5703 51.9492C58.5703 50.043 58.8164 48.4062 59.3086 47.0391C60.2305 44.4922 61.8984 43.2188 64.3125 43.2188ZM64.2891 58.5352C65.3828 58.5352 66.2539 58.0508 66.9023 57.082C67.5508 56.1133 67.875 54.3086 67.875 51.668C67.875 49.7617 67.6406 48.1953 67.1719 46.9688C66.7031 45.7344 65.793 45.1172 64.4414 45.1172C63.1992 45.1172 62.2891 45.7031 61.7109 46.875C61.1406 48.0391 60.8555 49.7578 60.8555 52.0312C60.8555 53.7422 61.0391 55.1172 61.4062 56.1562C61.9688 57.7422 62.9297 58.5352 64.2891 58.5352ZM77.6719 43.2188C79.8438 43.2188 81.4141 44.1133 82.3828 45.9023C83.1328 47.2852 83.5078 49.1797 83.5078 51.5859C83.5078 53.8672 83.168 55.7539 82.4883 57.2461C81.5039 59.3867 79.8945 60.457 77.6602 60.457C75.6445 60.457 74.1445 59.582 73.1602 57.832C72.3398 56.3711 71.9297 54.4102 71.9297 51.9492C71.9297 50.043 72.1758 48.4062 72.668 47.0391C73.5898 44.4922 75.2578 43.2188 77.6719 43.2188ZM77.6484 58.5352C78.7422 58.5352 79.6133 58.0508 80.2617 57.082C80.9102 56.1133 81.2344 54.3086 81.2344 51.668C81.2344 49.7617 81 48.1953 80.5312 46.9688C80.0625 45.7344 79.1523 45.1172 77.8008 45.1172C76.5586 45.1172 75.6484 45.7031 75.0703 46.875C74.5 48.0391 74.2148 49.7578 74.2148 52.0312C74.2148 53.7422 74.3984 55.1172 74.7656 56.1562C75.3281 57.7422 76.2891 58.5352 77.6484 58.5352Z" fill="black"/>
</svg>
