<svg width="18" height="18" viewBox="0 0 18 18" fill="none" xmlns="http://www.w3.org/2000/svg">
<path d="M8.99997 1.68058L16.3637 7.91582V16.3194H1.63626V7.91582L8.99997 1.7225M8.99997 0.0419208C8.62055 0.0430462 8.25322 0.179791 7.96092 0.428514L0.597211 6.61341C0.218071 6.9336 -0.00136814 7.41163 6.41928e-06 7.91583V16.3194C6.41928e-06 16.7651 0.172317 17.1928 0.479138 17.5079C0.78596 17.823 1.20232 18 1.63629 18H16.3637C16.7976 18 17.214 17.823 17.5209 17.5079C17.8277 17.1928 18 16.7651 18 16.3194V7.91583C18.0014 7.41163 17.7819 6.93357 17.4028 6.61341L10.0391 0.428514C9.75254 0.164593 9.38462 0.0129436 9.00003 0L8.99997 0.0419208Z" fill="black"/>
</svg>
