<svg width="249" height="94" viewBox="0 0 249 94" fill="none" xmlns="http://www.w3.org/2000/svg">
<circle cx="5" cy="7" r="5" fill="#F57B09"/>
<circle cx="5" cy="33" r="5" fill="#1FD130"/>
<path d="M26.6328 10.0039C27.0273 10.0039 27.3516 9.96289 27.6055 9.88086C28.0586 9.72852 28.4297 9.43555 28.7188 9.00195C28.9492 8.6543 29.1152 8.20898 29.2168 7.66602C29.2754 7.3418 29.3047 7.04102 29.3047 6.76367C29.3047 5.69727 29.0918 4.86914 28.666 4.2793C28.2441 3.68945 27.5625 3.39453 26.6211 3.39453H24.5527V10.0039H26.6328ZM23.3809 2.39258H26.8672C28.0508 2.39258 28.9688 2.8125 29.6211 3.65234C30.2031 4.41016 30.4941 5.38086 30.4941 6.56445C30.4941 7.47852 30.3223 8.30469 29.9785 9.04297C29.373 10.3477 28.332 11 26.8555 11H23.3809V2.39258ZM31.8887 4.72461H32.8906V5.80859C32.9727 5.59766 33.1738 5.3418 33.4941 5.04102C33.8145 4.73633 34.1836 4.58398 34.6016 4.58398C34.6211 4.58398 34.6543 4.58594 34.7012 4.58984C34.748 4.59375 34.8281 4.60156 34.9414 4.61328V5.72656C34.8789 5.71484 34.8203 5.70703 34.7656 5.70312C34.7148 5.69922 34.6582 5.69727 34.5957 5.69727C34.0645 5.69727 33.6562 5.86914 33.3711 6.21289C33.0859 6.55273 32.9434 6.94531 32.9434 7.39062V11H31.8887V4.72461ZM35.8555 4.75391H36.9277V11H35.8555V4.75391ZM35.8555 2.39258H36.9277V3.58789H35.8555V2.39258ZM39.043 4.72461L40.7188 9.83398L42.4707 4.72461H43.625L41.2578 11H40.1328L37.8184 4.72461H39.043ZM47.1406 4.58398C47.5859 4.58398 48.0176 4.68945 48.4355 4.90039C48.8535 5.10742 49.1719 5.37695 49.3906 5.70898C49.6016 6.02539 49.7422 6.39453 49.8125 6.81641C49.875 7.10547 49.9062 7.56641 49.9062 8.19922H45.3066C45.3262 8.83594 45.4766 9.34766 45.7578 9.73438C46.0391 10.1172 46.4746 10.3086 47.0645 10.3086C47.6152 10.3086 48.0547 10.127 48.3828 9.76367C48.5703 9.55273 48.7031 9.30859 48.7812 9.03125H49.8184C49.791 9.26172 49.6992 9.51953 49.543 9.80469C49.3906 10.0859 49.2188 10.3164 49.0273 10.4961C48.707 10.8086 48.3105 11.0195 47.8379 11.1289C47.584 11.1914 47.2969 11.2227 46.9766 11.2227C46.1953 11.2227 45.5332 10.9395 44.9902 10.373C44.4473 9.80273 44.1758 9.00586 44.1758 7.98242C44.1758 6.97461 44.4492 6.15625 44.9961 5.52734C45.543 4.89844 46.2578 4.58398 47.1406 4.58398ZM48.8223 7.36133C48.7793 6.9043 48.6797 6.53906 48.5234 6.26562C48.2344 5.75781 47.752 5.50391 47.0762 5.50391C46.5918 5.50391 46.1855 5.67969 45.8574 6.03125C45.5293 6.37891 45.3555 6.82227 45.3359 7.36133H48.8223ZM51.2363 4.72461H52.2383V5.80859C52.3203 5.59766 52.5215 5.3418 52.8418 5.04102C53.1621 4.73633 53.5312 4.58398 53.9492 4.58398C53.9688 4.58398 54.002 4.58594 54.0488 4.58984C54.0957 4.59375 54.1758 4.60156 54.2891 4.61328V5.72656C54.2266 5.71484 54.168 5.70703 54.1133 5.70312C54.0625 5.69922 54.0059 5.69727 53.9434 5.69727C53.4121 5.69727 53.0039 5.86914 52.7188 6.21289C52.4336 6.55273 52.291 6.94531 52.291 7.39062V11H51.2363V4.72461ZM58.543 2.36328H59.5977V5.57422C59.8477 5.25781 60.0723 5.03516 60.2715 4.90625C60.6113 4.68359 61.0352 4.57227 61.543 4.57227C62.4531 4.57227 63.0703 4.89062 63.3945 5.52734C63.5703 5.875 63.6582 6.35742 63.6582 6.97461V11H62.5742V7.04492C62.5742 6.58398 62.5156 6.24609 62.3984 6.03125C62.207 5.6875 61.8477 5.51562 61.3203 5.51562C60.8828 5.51562 60.4863 5.66602 60.1309 5.9668C59.7754 6.26758 59.5977 6.83594 59.5977 7.67188V11H58.543V2.36328ZM66.0312 9.33008C66.0312 9.63477 66.1426 9.875 66.3652 10.0508C66.5879 10.2266 66.8516 10.3145 67.1562 10.3145C67.5273 10.3145 67.8867 10.2285 68.2344 10.0566C68.8203 9.77148 69.1133 9.30469 69.1133 8.65625V7.80664C68.9844 7.88867 68.8184 7.95703 68.6152 8.01172C68.4121 8.06641 68.2129 8.10547 68.0176 8.12891L67.3789 8.21094C66.9961 8.26172 66.709 8.3418 66.5176 8.45117C66.1934 8.63477 66.0312 8.92773 66.0312 9.33008ZM68.5859 7.19727C68.8281 7.16602 68.9902 7.06445 69.0723 6.89258C69.1191 6.79883 69.1426 6.66406 69.1426 6.48828C69.1426 6.12891 69.0137 5.86914 68.7559 5.70898C68.502 5.54492 68.1367 5.46289 67.6602 5.46289C67.1094 5.46289 66.7188 5.61133 66.4883 5.9082C66.3594 6.07227 66.2754 6.31641 66.2363 6.64062H65.252C65.2715 5.86719 65.5215 5.33008 66.002 5.0293C66.4863 4.72461 67.0469 4.57227 67.6836 4.57227C68.4219 4.57227 69.0215 4.71289 69.4824 4.99414C69.9395 5.27539 70.168 5.71289 70.168 6.30664V9.92188C70.168 10.0312 70.1895 10.1191 70.2324 10.1855C70.2793 10.252 70.375 10.2852 70.5195 10.2852C70.5664 10.2852 70.6191 10.2832 70.6777 10.2793C70.7363 10.2715 70.7988 10.2617 70.8652 10.25V11.0293C70.7012 11.0762 70.5762 11.1055 70.4902 11.1172C70.4043 11.1289 70.2871 11.1348 70.1387 11.1348C69.7754 11.1348 69.5117 11.0059 69.3477 10.748C69.2617 10.6113 69.2012 10.418 69.166 10.168C68.9512 10.4492 68.6426 10.6934 68.2402 10.9004C67.8379 11.1074 67.3945 11.2109 66.9102 11.2109C66.3281 11.2109 65.8516 11.0352 65.4805 10.6836C65.1133 10.3281 64.9297 9.88477 64.9297 9.35352C64.9297 8.77148 65.1113 8.32031 65.4746 8C65.8379 7.67969 66.3145 7.48242 66.9043 7.4082L68.5859 7.19727ZM72.5293 9.03125C72.5605 9.38281 72.6484 9.65234 72.793 9.83984C73.0586 10.1797 73.5195 10.3496 74.1758 10.3496C74.5664 10.3496 74.9102 10.2656 75.207 10.0977C75.5039 9.92578 75.6523 9.66211 75.6523 9.30664C75.6523 9.03711 75.5332 8.83203 75.2949 8.69141C75.1426 8.60547 74.8418 8.50586 74.3926 8.39258L73.5547 8.18164C73.0195 8.04883 72.625 7.90039 72.3711 7.73633C71.918 7.45117 71.6914 7.05664 71.6914 6.55273C71.6914 5.95898 71.9043 5.47852 72.3301 5.11133C72.7598 4.74414 73.3359 4.56055 74.0586 4.56055C75.0039 4.56055 75.6855 4.83789 76.1035 5.39258C76.3652 5.74414 76.4922 6.12305 76.4844 6.5293H75.4883C75.4688 6.29102 75.3848 6.07422 75.2363 5.87891C74.9941 5.60156 74.5742 5.46289 73.9766 5.46289C73.5781 5.46289 73.2754 5.53906 73.0684 5.69141C72.8652 5.84375 72.7637 6.04492 72.7637 6.29492C72.7637 6.56836 72.8984 6.78711 73.168 6.95117C73.3242 7.04883 73.5547 7.13477 73.8594 7.20898L74.5566 7.37891C75.3145 7.5625 75.8223 7.74023 76.0801 7.91211C76.4902 8.18164 76.6953 8.60547 76.6953 9.18359C76.6953 9.74219 76.4824 10.2246 76.0566 10.6309C75.6348 11.0371 74.9902 11.2402 74.123 11.2402C73.1895 11.2402 72.5273 11.0293 72.1367 10.6074C71.75 10.1816 71.543 9.65625 71.5156 9.03125H72.5293ZM81.2715 2.39258H82.3262V11H81.2715V2.39258ZM86.5273 4.58398C86.9727 4.58398 87.4043 4.68945 87.8223 4.90039C88.2402 5.10742 88.5586 5.37695 88.7773 5.70898C88.9883 6.02539 89.1289 6.39453 89.1992 6.81641C89.2617 7.10547 89.293 7.56641 89.293 8.19922H84.6934C84.7129 8.83594 84.8633 9.34766 85.1445 9.73438C85.4258 10.1172 85.8613 10.3086 86.4512 10.3086C87.002 10.3086 87.4414 10.127 87.7695 9.76367C87.957 9.55273 88.0898 9.30859 88.168 9.03125H89.2051C89.1777 9.26172 89.0859 9.51953 88.9297 9.80469C88.7773 10.0859 88.6055 10.3164 88.4141 10.4961C88.0938 10.8086 87.6973 11.0195 87.2246 11.1289C86.9707 11.1914 86.6836 11.2227 86.3633 11.2227C85.582 11.2227 84.9199 10.9395 84.377 10.373C83.834 9.80273 83.5625 9.00586 83.5625 7.98242C83.5625 6.97461 83.8359 6.15625 84.3828 5.52734C84.9297 4.89844 85.6445 4.58398 86.5273 4.58398ZM88.209 7.36133C88.166 6.9043 88.0664 6.53906 87.9102 6.26562C87.6211 5.75781 87.1387 5.50391 86.4629 5.50391C85.9785 5.50391 85.5723 5.67969 85.2441 6.03125C84.916 6.37891 84.7422 6.82227 84.7227 7.36133H88.209ZM90.8574 3.76953C90.873 3.33203 90.9492 3.01172 91.0859 2.80859C91.332 2.44922 91.8066 2.26953 92.5098 2.26953C92.5762 2.26953 92.6445 2.27148 92.7148 2.27539C92.7852 2.2793 92.8652 2.28516 92.9551 2.29297V3.25391C92.8457 3.24609 92.7656 3.24219 92.7148 3.24219C92.668 3.23828 92.623 3.23633 92.5801 3.23633C92.2598 3.23633 92.0684 3.32031 92.0059 3.48828C91.9434 3.65234 91.9121 4.07422 91.9121 4.75391H92.9551V5.58594H91.9004V11H90.8574V5.58594H89.9844V4.75391H90.8574V3.76953ZM94.1445 2.97266H95.2109V4.72461H96.2129V5.58594H95.2109V9.68164C95.2109 9.90039 95.2852 10.0469 95.4336 10.1211C95.5156 10.1641 95.6523 10.1855 95.8438 10.1855C95.8945 10.1855 95.9492 10.1855 96.0078 10.1855C96.0664 10.1816 96.1348 10.1758 96.2129 10.168V11C96.0918 11.0352 95.9648 11.0605 95.832 11.0762C95.7031 11.0918 95.5625 11.0996 95.4102 11.0996C94.918 11.0996 94.584 10.9746 94.4082 10.7246C94.2324 10.4707 94.1445 10.1426 94.1445 9.74023V5.58594H93.2949V4.72461H94.1445V2.97266ZM101.1 4.72461L102.307 9.66992L103.531 4.72461H104.715L105.945 9.64062L107.229 4.72461H108.283L106.461 11H105.365L104.088 6.14258L102.852 11H101.756L99.9453 4.72461H101.1ZM110.094 9.33008C110.094 9.63477 110.205 9.875 110.428 10.0508C110.65 10.2266 110.914 10.3145 111.219 10.3145C111.59 10.3145 111.949 10.2285 112.297 10.0566C112.883 9.77148 113.176 9.30469 113.176 8.65625V7.80664C113.047 7.88867 112.881 7.95703 112.678 8.01172C112.475 8.06641 112.275 8.10547 112.08 8.12891L111.441 8.21094C111.059 8.26172 110.771 8.3418 110.58 8.45117C110.256 8.63477 110.094 8.92773 110.094 9.33008ZM112.648 7.19727C112.891 7.16602 113.053 7.06445 113.135 6.89258C113.182 6.79883 113.205 6.66406 113.205 6.48828C113.205 6.12891 113.076 5.86914 112.818 5.70898C112.564 5.54492 112.199 5.46289 111.723 5.46289C111.172 5.46289 110.781 5.61133 110.551 5.9082C110.422 6.07227 110.338 6.31641 110.299 6.64062H109.314C109.334 5.86719 109.584 5.33008 110.064 5.0293C110.549 4.72461 111.109 4.57227 111.746 4.57227C112.484 4.57227 113.084 4.71289 113.545 4.99414C114.002 5.27539 114.23 5.71289 114.23 6.30664V9.92188C114.23 10.0312 114.252 10.1191 114.295 10.1855C114.342 10.252 114.438 10.2852 114.582 10.2852C114.629 10.2852 114.682 10.2832 114.74 10.2793C114.799 10.2715 114.861 10.2617 114.928 10.25V11.0293C114.764 11.0762 114.639 11.1055 114.553 11.1172C114.467 11.1289 114.35 11.1348 114.201 11.1348C113.838 11.1348 113.574 11.0059 113.41 10.748C113.324 10.6113 113.264 10.418 113.229 10.168C113.014 10.4492 112.705 10.6934 112.303 10.9004C111.9 11.1074 111.457 11.2109 110.973 11.2109C110.391 11.2109 109.914 11.0352 109.543 10.6836C109.176 10.3281 108.992 9.88477 108.992 9.35352C108.992 8.77148 109.174 8.32031 109.537 8C109.9 7.67969 110.377 7.48242 110.967 7.4082L112.648 7.19727ZM115.994 4.72461H116.996V5.80859C117.078 5.59766 117.279 5.3418 117.6 5.04102C117.92 4.73633 118.289 4.58398 118.707 4.58398C118.727 4.58398 118.76 4.58594 118.807 4.58984C118.854 4.59375 118.934 4.60156 119.047 4.61328V5.72656C118.984 5.71484 118.926 5.70703 118.871 5.70312C118.82 5.69922 118.764 5.69727 118.701 5.69727C118.17 5.69727 117.762 5.86914 117.477 6.21289C117.191 6.55273 117.049 6.94531 117.049 7.39062V11H115.994V4.72461ZM122.574 4.58398C123.02 4.58398 123.451 4.68945 123.869 4.90039C124.287 5.10742 124.605 5.37695 124.824 5.70898C125.035 6.02539 125.176 6.39453 125.246 6.81641C125.309 7.10547 125.34 7.56641 125.34 8.19922H120.74C120.76 8.83594 120.91 9.34766 121.191 9.73438C121.473 10.1172 121.908 10.3086 122.498 10.3086C123.049 10.3086 123.488 10.127 123.816 9.76367C124.004 9.55273 124.137 9.30859 124.215 9.03125H125.252C125.225 9.26172 125.133 9.51953 124.977 9.80469C124.824 10.0859 124.652 10.3164 124.461 10.4961C124.141 10.8086 123.744 11.0195 123.271 11.1289C123.018 11.1914 122.73 11.2227 122.41 11.2227C121.629 11.2227 120.967 10.9395 120.424 10.373C119.881 9.80273 119.609 9.00586 119.609 7.98242C119.609 6.97461 119.883 6.15625 120.43 5.52734C120.977 4.89844 121.691 4.58398 122.574 4.58398ZM124.256 7.36133C124.213 6.9043 124.113 6.53906 123.957 6.26562C123.668 5.75781 123.186 5.50391 122.51 5.50391C122.025 5.50391 121.619 5.67969 121.291 6.03125C120.963 6.37891 120.789 6.82227 120.77 7.36133H124.256ZM126.641 2.36328H127.695V5.57422C127.945 5.25781 128.17 5.03516 128.369 4.90625C128.709 4.68359 129.133 4.57227 129.641 4.57227C130.551 4.57227 131.168 4.89062 131.492 5.52734C131.668 5.875 131.756 6.35742 131.756 6.97461V11H130.672V7.04492C130.672 6.58398 130.613 6.24609 130.496 6.03125C130.305 5.6875 129.945 5.51562 129.418 5.51562C128.98 5.51562 128.584 5.66602 128.229 5.9668C127.873 6.26758 127.695 6.83594 127.695 7.67188V11H126.641V2.36328ZM135.811 10.3203C136.51 10.3203 136.988 10.0566 137.246 9.5293C137.508 8.99805 137.639 8.4082 137.639 7.75977C137.639 7.17383 137.545 6.69727 137.357 6.33008C137.061 5.75195 136.549 5.46289 135.822 5.46289C135.178 5.46289 134.709 5.70898 134.416 6.20117C134.123 6.69336 133.977 7.28711 133.977 7.98242C133.977 8.65039 134.123 9.20703 134.416 9.65234C134.709 10.0977 135.174 10.3203 135.811 10.3203ZM135.852 4.54297C136.66 4.54297 137.344 4.8125 137.902 5.35156C138.461 5.89062 138.74 6.68359 138.74 7.73047C138.74 8.74219 138.494 9.57812 138.002 10.2383C137.51 10.8984 136.746 11.2285 135.711 11.2285C134.848 11.2285 134.162 10.9375 133.654 10.3555C133.146 9.76953 132.893 8.98438 132.893 8C132.893 6.94531 133.16 6.10547 133.695 5.48047C134.23 4.85547 134.949 4.54297 135.852 4.54297ZM141.055 4.72461V8.89062C141.055 9.21094 141.105 9.47266 141.207 9.67578C141.395 10.0508 141.744 10.2383 142.256 10.2383C142.99 10.2383 143.49 9.91016 143.756 9.25391C143.9 8.90234 143.973 8.41992 143.973 7.80664V4.72461H145.027V11H144.031L144.043 10.0742C143.906 10.3125 143.736 10.5137 143.533 10.6777C143.131 11.0059 142.643 11.1699 142.068 11.1699C141.174 11.1699 140.564 10.8711 140.24 10.2734C140.064 9.95312 139.977 9.52539 139.977 8.99023V4.72461H141.055ZM147.307 9.03125C147.338 9.38281 147.426 9.65234 147.57 9.83984C147.836 10.1797 148.297 10.3496 148.953 10.3496C149.344 10.3496 149.688 10.2656 149.984 10.0977C150.281 9.92578 150.43 9.66211 150.43 9.30664C150.43 9.03711 150.311 8.83203 150.072 8.69141C149.92 8.60547 149.619 8.50586 149.17 8.39258L148.332 8.18164C147.797 8.04883 147.402 7.90039 147.148 7.73633C146.695 7.45117 146.469 7.05664 146.469 6.55273C146.469 5.95898 146.682 5.47852 147.107 5.11133C147.537 4.74414 148.113 4.56055 148.836 4.56055C149.781 4.56055 150.463 4.83789 150.881 5.39258C151.143 5.74414 151.27 6.12305 151.262 6.5293H150.266C150.246 6.29102 150.162 6.07422 150.014 5.87891C149.771 5.60156 149.352 5.46289 148.754 5.46289C148.355 5.46289 148.053 5.53906 147.846 5.69141C147.643 5.84375 147.541 6.04492 147.541 6.29492C147.541 6.56836 147.676 6.78711 147.945 6.95117C148.102 7.04883 148.332 7.13477 148.637 7.20898L149.334 7.37891C150.092 7.5625 150.6 7.74023 150.857 7.91211C151.268 8.18164 151.473 8.60547 151.473 9.18359C151.473 9.74219 151.26 10.2246 150.834 10.6309C150.412 11.0371 149.768 11.2402 148.9 11.2402C147.967 11.2402 147.305 11.0293 146.914 10.6074C146.527 10.1816 146.32 9.65625 146.293 9.03125H147.307ZM155.293 4.58398C155.738 4.58398 156.17 4.68945 156.588 4.90039C157.006 5.10742 157.324 5.37695 157.543 5.70898C157.754 6.02539 157.895 6.39453 157.965 6.81641C158.027 7.10547 158.059 7.56641 158.059 8.19922H153.459C153.479 8.83594 153.629 9.34766 153.91 9.73438C154.191 10.1172 154.627 10.3086 155.217 10.3086C155.768 10.3086 156.207 10.127 156.535 9.76367C156.723 9.55273 156.855 9.30859 156.934 9.03125H157.971C157.943 9.26172 157.852 9.51953 157.695 9.80469C157.543 10.0859 157.371 10.3164 157.18 10.4961C156.859 10.8086 156.463 11.0195 155.99 11.1289C155.736 11.1914 155.449 11.2227 155.129 11.2227C154.348 11.2227 153.686 10.9395 153.143 10.373C152.6 9.80273 152.328 9.00586 152.328 7.98242C152.328 6.97461 152.602 6.15625 153.148 5.52734C153.695 4.89844 154.41 4.58398 155.293 4.58398ZM156.975 7.36133C156.932 6.9043 156.832 6.53906 156.676 6.26562C156.387 5.75781 155.904 5.50391 155.229 5.50391C154.744 5.50391 154.338 5.67969 154.01 6.03125C153.682 6.37891 153.508 6.82227 153.488 7.36133H156.975Z" fill="black"/>
<path d="M26.4746 36.0039C26.8691 36.0039 27.1934 35.9629 27.4473 35.8809C27.9004 35.7285 28.2715 35.4355 28.5605 35.002C28.791 34.6543 28.957 34.209 29.0586 33.666C29.1172 33.3418 29.1465 33.041 29.1465 32.7637C29.1465 31.6973 28.9336 30.8691 28.5078 30.2793C28.0859 29.6895 27.4043 29.3945 26.4629 29.3945H24.3945V36.0039H26.4746ZM23.2227 28.3926H26.709C27.8926 28.3926 28.8105 28.8125 29.4629 29.6523C30.0449 30.4102 30.3359 31.3809 30.3359 32.5645C30.3359 33.4785 30.1641 34.3047 29.8203 35.043C29.2148 36.3477 28.1738 37 26.6973 37H23.2227V28.3926ZM34.3145 30.584C34.7598 30.584 35.1914 30.6895 35.6094 30.9004C36.0273 31.1074 36.3457 31.377 36.5645 31.709C36.7754 32.0254 36.916 32.3945 36.9863 32.8164C37.0488 33.1055 37.0801 33.5664 37.0801 34.1992H32.4805C32.5 34.8359 32.6504 35.3477 32.9316 35.7344C33.2129 36.1172 33.6484 36.3086 34.2383 36.3086C34.7891 36.3086 35.2285 36.127 35.5566 35.7637C35.7441 35.5527 35.877 35.3086 35.9551 35.0312H36.9922C36.9648 35.2617 36.873 35.5195 36.7168 35.8047C36.5645 36.0859 36.3926 36.3164 36.2012 36.4961C35.8809 36.8086 35.4844 37.0195 35.0117 37.1289C34.7578 37.1914 34.4707 37.2227 34.1504 37.2227C33.3691 37.2227 32.707 36.9395 32.1641 36.373C31.6211 35.8027 31.3496 35.0059 31.3496 33.9824C31.3496 32.9746 31.623 32.1562 32.1699 31.5273C32.7168 30.8984 33.4316 30.584 34.3145 30.584ZM35.9961 33.3613C35.9531 32.9043 35.8535 32.5391 35.6973 32.2656C35.4082 31.7578 34.9258 31.5039 34.25 31.5039C33.7656 31.5039 33.3594 31.6797 33.0312 32.0312C32.7031 32.3789 32.5293 32.8223 32.5098 33.3613H35.9961ZM38.4102 28.3926H39.4648V37H38.4102V28.3926ZM41.8613 35.3301C41.8613 35.6348 41.9727 35.875 42.1953 36.0508C42.418 36.2266 42.6816 36.3145 42.9863 36.3145C43.3574 36.3145 43.7168 36.2285 44.0645 36.0566C44.6504 35.7715 44.9434 35.3047 44.9434 34.6562V33.8066C44.8145 33.8887 44.6484 33.957 44.4453 34.0117C44.2422 34.0664 44.043 34.1055 43.8477 34.1289L43.209 34.2109C42.8262 34.2617 42.5391 34.3418 42.3477 34.4512C42.0234 34.6348 41.8613 34.9277 41.8613 35.3301ZM44.416 33.1973C44.6582 33.166 44.8203 33.0645 44.9023 32.8926C44.9492 32.7988 44.9727 32.6641 44.9727 32.4883C44.9727 32.1289 44.8438 31.8691 44.5859 31.709C44.332 31.5449 43.9668 31.4629 43.4902 31.4629C42.9395 31.4629 42.5488 31.6113 42.3184 31.9082C42.1895 32.0723 42.1055 32.3164 42.0664 32.6406H41.082C41.1016 31.8672 41.3516 31.3301 41.832 31.0293C42.3164 30.7246 42.877 30.5723 43.5137 30.5723C44.252 30.5723 44.8516 30.7129 45.3125 30.9941C45.7695 31.2754 45.998 31.7129 45.998 32.3066V35.9219C45.998 36.0312 46.0195 36.1191 46.0625 36.1855C46.1094 36.252 46.2051 36.2852 46.3496 36.2852C46.3965 36.2852 46.4492 36.2832 46.5078 36.2793C46.5664 36.2715 46.6289 36.2617 46.6953 36.25V37.0293C46.5312 37.0762 46.4062 37.1055 46.3203 37.1172C46.2344 37.1289 46.1172 37.1348 45.9688 37.1348C45.6055 37.1348 45.3418 37.0059 45.1777 36.748C45.0918 36.6113 45.0312 36.418 44.9961 36.168C44.7812 36.4492 44.4727 36.6934 44.0703 36.9004C43.668 37.1074 43.2246 37.2109 42.7402 37.2109C42.1582 37.2109 41.6816 37.0352 41.3105 36.6836C40.9434 36.3281 40.7598 35.8848 40.7598 35.3535C40.7598 34.7715 40.9414 34.3203 41.3047 34C41.668 33.6797 42.1445 33.4824 42.7344 33.4082L44.416 33.1973ZM51.6523 30.7246H52.8184C52.6699 31.127 52.3398 32.0449 51.8281 33.4785C51.4453 34.5566 51.125 35.4355 50.8672 36.1152C50.2578 37.7168 49.8281 38.6934 49.5781 39.0449C49.3281 39.3965 48.8984 39.5723 48.2891 39.5723C48.1406 39.5723 48.0254 39.5664 47.9434 39.5547C47.8652 39.543 47.7676 39.5215 47.6504 39.4902V38.5293C47.834 38.5801 47.9668 38.6113 48.0488 38.623C48.1309 38.6348 48.2031 38.6406 48.2656 38.6406C48.4609 38.6406 48.6035 38.6074 48.6934 38.541C48.7871 38.4785 48.8652 38.4004 48.9277 38.3066C48.9473 38.2754 49.0176 38.1152 49.1387 37.8262C49.2598 37.5371 49.3477 37.3223 49.4023 37.1816L47.082 30.7246H48.2773L49.959 35.834L51.6523 30.7246ZM59.5625 36.3203C60.2617 36.3203 60.7402 36.0566 60.998 35.5293C61.2598 34.998 61.3906 34.4082 61.3906 33.7598C61.3906 33.1738 61.2969 32.6973 61.1094 32.3301C60.8125 31.752 60.3008 31.4629 59.5742 31.4629C58.9297 31.4629 58.4609 31.709 58.168 32.2012C57.875 32.6934 57.7285 33.2871 57.7285 33.9824C57.7285 34.6504 57.875 35.207 58.168 35.6523C58.4609 36.0977 58.9258 36.3203 59.5625 36.3203ZM59.6035 30.543C60.4121 30.543 61.0957 30.8125 61.6543 31.3516C62.2129 31.8906 62.4922 32.6836 62.4922 33.7305C62.4922 34.7422 62.2461 35.5781 61.7539 36.2383C61.2617 36.8984 60.498 37.2285 59.4629 37.2285C58.5996 37.2285 57.9141 36.9375 57.4062 36.3555C56.8984 35.7695 56.6445 34.9844 56.6445 34C56.6445 32.9453 56.9121 32.1055 57.4473 31.4805C57.9824 30.8555 58.7012 30.543 59.6035 30.543ZM63.752 30.7246H64.7539V31.6152C65.0508 31.248 65.3652 30.9844 65.6973 30.8242C66.0293 30.6641 66.3984 30.584 66.8047 30.584C67.6953 30.584 68.2969 30.8945 68.6094 31.5156C68.7812 31.8555 68.8672 32.3418 68.8672 32.9746V37H67.7949V33.0449C67.7949 32.6621 67.7383 32.3535 67.625 32.1191C67.4375 31.7285 67.0977 31.5332 66.6055 31.5332C66.3555 31.5332 66.1504 31.5586 65.9902 31.6094C65.7012 31.6953 65.4473 31.8672 65.2285 32.125C65.0527 32.332 64.9375 32.5469 64.8828 32.7695C64.832 32.9883 64.8066 33.3027 64.8066 33.7129V37H63.752V30.7246ZM73.9824 28.9727H75.0488V30.7246H76.0508V31.5859H75.0488V35.6816C75.0488 35.9004 75.123 36.0469 75.2715 36.1211C75.3535 36.1641 75.4902 36.1855 75.6816 36.1855C75.7324 36.1855 75.7871 36.1855 75.8457 36.1855C75.9043 36.1816 75.9727 36.1758 76.0508 36.168V37C75.9297 37.0352 75.8027 37.0605 75.6699 37.0762C75.541 37.0918 75.4004 37.0996 75.248 37.0996C74.7559 37.0996 74.4219 36.9746 74.2461 36.7246C74.0703 36.4707 73.9824 36.1426 73.9824 35.7402V31.5859H73.1328V30.7246H73.9824V28.9727ZM77.1113 28.3633H78.166V31.5742C78.416 31.2578 78.6406 31.0352 78.8398 30.9062C79.1797 30.6836 79.6035 30.5723 80.1113 30.5723C81.0215 30.5723 81.6387 30.8906 81.9629 31.5273C82.1387 31.875 82.2266 32.3574 82.2266 32.9746V37H81.1426V33.0449C81.1426 32.584 81.084 32.2461 80.9668 32.0312C80.7754 31.6875 80.416 31.5156 79.8887 31.5156C79.4512 31.5156 79.0547 31.666 78.6992 31.9668C78.3438 32.2676 78.166 32.8359 78.166 33.6719V37H77.1113V28.3633ZM86.4043 30.584C86.8496 30.584 87.2812 30.6895 87.6992 30.9004C88.1172 31.1074 88.4355 31.377 88.6543 31.709C88.8652 32.0254 89.0059 32.3945 89.0762 32.8164C89.1387 33.1055 89.1699 33.5664 89.1699 34.1992H84.5703C84.5898 34.8359 84.7402 35.3477 85.0215 35.7344C85.3027 36.1172 85.7383 36.3086 86.3281 36.3086C86.8789 36.3086 87.3184 36.127 87.6465 35.7637C87.834 35.5527 87.9668 35.3086 88.0449 35.0312H89.082C89.0547 35.2617 88.9629 35.5195 88.8066 35.8047C88.6543 36.0859 88.4824 36.3164 88.291 36.4961C87.9707 36.8086 87.5742 37.0195 87.1016 37.1289C86.8477 37.1914 86.5605 37.2227 86.2402 37.2227C85.459 37.2227 84.7969 36.9395 84.2539 36.373C83.7109 35.8027 83.4395 35.0059 83.4395 33.9824C83.4395 32.9746 83.7129 32.1562 84.2598 31.5273C84.8066 30.8984 85.5215 30.584 86.4043 30.584ZM88.0859 33.3613C88.043 32.9043 87.9434 32.5391 87.7871 32.2656C87.498 31.7578 87.0156 31.5039 86.3398 31.5039C85.8555 31.5039 85.4492 31.6797 85.1211 32.0312C84.793 32.3789 84.6191 32.8223 84.5996 33.3613H88.0859ZM97.7129 33.4727L96.4062 29.6699L95.0176 33.4727H97.7129ZM95.7969 28.3926H97.1152L100.238 37H98.9609L98.0879 34.4219H94.6836L93.752 37H92.5566L95.7969 28.3926ZM101.533 31.0586V30.25C102.295 30.1758 102.826 30.0527 103.127 29.8809C103.428 29.7051 103.652 29.293 103.801 28.6445H104.633V37H103.508V31.0586H101.533ZM110.182 37.2285C109.189 37.2285 108.469 36.957 108.02 36.4141C107.574 35.8672 107.352 35.2031 107.352 34.4219H108.453C108.5 34.9648 108.602 35.3594 108.758 35.6055C109.031 36.0469 109.525 36.2676 110.24 36.2676C110.795 36.2676 111.24 36.1191 111.576 35.8223C111.912 35.5254 112.08 35.1426 112.08 34.6738C112.08 34.0957 111.902 33.6914 111.547 33.4609C111.195 33.2305 110.705 33.1152 110.076 33.1152C110.006 33.1152 109.934 33.1172 109.859 33.1211C109.789 33.1211 109.717 33.123 109.643 33.127V32.1953C109.752 32.207 109.844 32.2148 109.918 32.2188C109.992 32.2227 110.072 32.2246 110.158 32.2246C110.553 32.2246 110.877 32.1621 111.131 32.0371C111.576 31.8184 111.799 31.4277 111.799 30.8652C111.799 30.4473 111.65 30.125 111.354 29.8984C111.057 29.6719 110.711 29.5586 110.316 29.5586C109.613 29.5586 109.127 29.793 108.857 30.2617C108.709 30.5195 108.625 30.8867 108.605 31.3633H107.562C107.562 30.7383 107.688 30.207 107.938 29.7695C108.367 28.9883 109.123 28.5977 110.205 28.5977C111.061 28.5977 111.723 28.7891 112.191 29.1719C112.66 29.5508 112.895 30.1016 112.895 30.8242C112.895 31.3398 112.756 31.7578 112.479 32.0781C112.307 32.2773 112.084 32.4336 111.811 32.5469C112.252 32.668 112.596 32.9023 112.842 33.25C113.092 33.5938 113.217 34.0156 113.217 34.5156C113.217 35.3164 112.953 35.9688 112.426 36.4727C111.898 36.9766 111.15 37.2285 110.182 37.2285Z" fill="black"/>
<circle cx="5" cy="61" r="5" fill="#F57B09"/>
<circle cx="5" cy="87" r="5" fill="#1FD130"/>
<path d="M29.6504 56.3926V57.418H26.75V65H25.5664V57.418H22.666V56.3926H29.6504ZM30.166 58.7246H31.168V59.8086C31.25 59.5977 31.4512 59.3418 31.7715 59.041C32.0918 58.7363 32.4609 58.584 32.8789 58.584C32.8984 58.584 32.9316 58.5859 32.9785 58.5898C33.0254 58.5938 33.1055 58.6016 33.2188 58.6133V59.7266C33.1562 59.7148 33.0977 59.707 33.043 59.7031C32.9922 59.6992 32.9355 59.6973 32.873 59.6973C32.3418 59.6973 31.9336 59.8691 31.6484 60.2129C31.3633 60.5527 31.2207 60.9453 31.2207 61.3906V65H30.166V58.7246ZM35.1875 58.7246V62.8906C35.1875 63.2109 35.2383 63.4727 35.3398 63.6758C35.5273 64.0508 35.877 64.2383 36.3887 64.2383C37.123 64.2383 37.623 63.9102 37.8887 63.2539C38.0332 62.9023 38.1055 62.4199 38.1055 61.8066V58.7246H39.1602V65H38.1641L38.1758 64.0742C38.0391 64.3125 37.8691 64.5137 37.666 64.6777C37.2637 65.0059 36.7754 65.1699 36.2012 65.1699C35.3066 65.1699 34.6973 64.8711 34.373 64.2734C34.1973 63.9531 34.1094 63.5254 34.1094 62.9902V58.7246H35.1875ZM43.2324 58.543C43.9395 58.543 44.5137 58.7148 44.9551 59.0586C45.4004 59.4023 45.668 59.9941 45.7578 60.834H44.7324C44.6699 60.4473 44.5273 60.127 44.3047 59.873C44.082 59.6152 43.7246 59.4863 43.2324 59.4863C42.5605 59.4863 42.0801 59.8145 41.791 60.4707C41.6035 60.8965 41.5098 61.4219 41.5098 62.0469C41.5098 62.6758 41.6426 63.2051 41.9082 63.6348C42.1738 64.0645 42.5918 64.2793 43.1621 64.2793C43.5996 64.2793 43.9453 64.1465 44.1992 63.8809C44.457 63.6113 44.6348 63.2441 44.7324 62.7793H45.7578C45.6406 63.6113 45.3477 64.2207 44.8789 64.6074C44.4102 64.9902 43.8105 65.1816 43.0801 65.1816C42.2598 65.1816 41.6055 64.8828 41.1172 64.2852C40.6289 63.6836 40.3848 62.9336 40.3848 62.0352C40.3848 60.9336 40.6523 60.0762 41.1875 59.4629C41.7227 58.8496 42.4043 58.543 43.2324 58.543ZM46.7891 56.3926H47.8027V61.3906L50.5098 58.7246H51.8574L49.4551 61.0742L51.9922 65H50.6445L48.6875 61.8359L47.8027 62.6445V65H46.7891V56.3926ZM56.416 57.7695C56.4316 57.332 56.5078 57.0117 56.6445 56.8086C56.8906 56.4492 57.3652 56.2695 58.0684 56.2695C58.1348 56.2695 58.2031 56.2715 58.2734 56.2754C58.3438 56.2793 58.4238 56.2852 58.5137 56.293V57.2539C58.4043 57.2461 58.3242 57.2422 58.2734 57.2422C58.2266 57.2383 58.1816 57.2363 58.1387 57.2363C57.8184 57.2363 57.627 57.3203 57.5645 57.4883C57.502 57.6523 57.4707 58.0742 57.4707 58.7539H58.5137V59.5859H57.459V65H56.416V59.5859H55.543V58.7539H56.416V57.7695ZM61.9824 64.3203C62.6816 64.3203 63.1602 64.0566 63.418 63.5293C63.6797 62.998 63.8105 62.4082 63.8105 61.7598C63.8105 61.1738 63.7168 60.6973 63.5293 60.3301C63.2324 59.752 62.7207 59.4629 61.9941 59.4629C61.3496 59.4629 60.8809 59.709 60.5879 60.2012C60.2949 60.6934 60.1484 61.2871 60.1484 61.9824C60.1484 62.6504 60.2949 63.207 60.5879 63.6523C60.8809 64.0977 61.3457 64.3203 61.9824 64.3203ZM62.0234 58.543C62.832 58.543 63.5156 58.8125 64.0742 59.3516C64.6328 59.8906 64.9121 60.6836 64.9121 61.7305C64.9121 62.7422 64.666 63.5781 64.1738 64.2383C63.6816 64.8984 62.918 65.2285 61.8828 65.2285C61.0195 65.2285 60.334 64.9375 59.8262 64.3555C59.3184 63.7695 59.0645 62.9844 59.0645 62C59.0645 60.9453 59.332 60.1055 59.8672 59.4805C60.4023 58.8555 61.1211 58.543 62.0234 58.543ZM66.2012 58.7246H67.2031V59.8086C67.2852 59.5977 67.4863 59.3418 67.8066 59.041C68.127 58.7363 68.4961 58.584 68.9141 58.584C68.9336 58.584 68.9668 58.5859 69.0137 58.5898C69.0605 58.5938 69.1406 58.6016 69.2539 58.6133V59.7266C69.1914 59.7148 69.1328 59.707 69.0781 59.7031C69.0273 59.6992 68.9707 59.6973 68.9082 59.6973C68.377 59.6973 67.9688 59.8691 67.6836 60.2129C67.3984 60.5527 67.2559 60.9453 67.2559 61.3906V65H66.2012V58.7246ZM74.1348 63.0312C74.166 63.3828 74.2539 63.6523 74.3984 63.8398C74.6641 64.1797 75.125 64.3496 75.7812 64.3496C76.1719 64.3496 76.5156 64.2656 76.8125 64.0977C77.1094 63.9258 77.2578 63.6621 77.2578 63.3066C77.2578 63.0371 77.1387 62.832 76.9004 62.6914C76.748 62.6055 76.4473 62.5059 75.998 62.3926L75.1602 62.1816C74.625 62.0488 74.2305 61.9004 73.9766 61.7363C73.5234 61.4512 73.2969 61.0566 73.2969 60.5527C73.2969 59.959 73.5098 59.4785 73.9355 59.1113C74.3652 58.7441 74.9414 58.5605 75.6641 58.5605C76.6094 58.5605 77.291 58.8379 77.709 59.3926C77.9707 59.7441 78.0977 60.123 78.0898 60.5293H77.0938C77.0742 60.291 76.9902 60.0742 76.8418 59.8789C76.5996 59.6016 76.1797 59.4629 75.582 59.4629C75.1836 59.4629 74.8809 59.5391 74.6738 59.6914C74.4707 59.8438 74.3691 60.0449 74.3691 60.2949C74.3691 60.5684 74.5039 60.7871 74.7734 60.9512C74.9297 61.0488 75.1602 61.1348 75.4648 61.209L76.1621 61.3789C76.9199 61.5625 77.4277 61.7402 77.6855 61.9121C78.0957 62.1816 78.3008 62.6055 78.3008 63.1836C78.3008 63.7422 78.0879 64.2246 77.6621 64.6309C77.2402 65.0371 76.5957 65.2402 75.7285 65.2402C74.7949 65.2402 74.1328 65.0293 73.7422 64.6074C73.3555 64.1816 73.1484 63.6562 73.1211 63.0312H74.1348ZM79.5078 56.3633H80.5625V59.5742C80.8125 59.2578 81.0371 59.0352 81.2363 58.9062C81.5762 58.6836 82 58.5723 82.5078 58.5723C83.418 58.5723 84.0352 58.8906 84.3594 59.5273C84.5352 59.875 84.623 60.3574 84.623 60.9746V65H83.5391V61.0449C83.5391 60.584 83.4805 60.2461 83.3633 60.0312C83.1719 59.6875 82.8125 59.5156 82.2852 59.5156C81.8477 59.5156 81.4512 59.666 81.0957 59.9668C80.7402 60.2676 80.5625 60.8359 80.5625 61.6719V65H79.5078V56.3633ZM86.1875 58.7539H87.2598V65H86.1875V58.7539ZM86.1875 56.3926H87.2598V57.5879H86.1875V56.3926ZM91.5078 64.291C92 64.291 92.4082 64.0859 92.7324 63.6758C93.0605 63.2617 93.2246 62.6445 93.2246 61.8242C93.2246 61.3242 93.1523 60.8945 93.0078 60.5352C92.7344 59.8438 92.2344 59.498 91.5078 59.498C90.7773 59.498 90.2773 59.8633 90.0078 60.5938C89.8633 60.9844 89.791 61.4805 89.791 62.082C89.791 62.5664 89.8633 62.9785 90.0078 63.3184C90.2812 63.9668 90.7812 64.291 91.5078 64.291ZM88.7773 58.7539H89.8027V59.5859C90.0137 59.3008 90.2441 59.0801 90.4941 58.9238C90.8496 58.6895 91.2676 58.5723 91.748 58.5723C92.459 58.5723 93.0625 58.8457 93.5586 59.3926C94.0547 59.9355 94.3027 60.7129 94.3027 61.7246C94.3027 63.0918 93.9453 64.0684 93.2305 64.6543C92.7773 65.0254 92.25 65.2109 91.6484 65.2109C91.1758 65.2109 90.7793 65.1074 90.459 64.9004C90.2715 64.7832 90.0625 64.582 89.832 64.2969V67.502H88.7773V58.7539ZM95.5391 58.7246H96.582V59.6152C96.832 59.3066 97.0586 59.082 97.2617 58.9414C97.6094 58.7031 98.0039 58.584 98.4453 58.584C98.9453 58.584 99.3477 58.707 99.6523 58.9531C99.8242 59.0938 99.9805 59.3008 100.121 59.5742C100.355 59.2383 100.631 58.9902 100.947 58.8301C101.264 58.666 101.619 58.584 102.014 58.584C102.857 58.584 103.432 58.8887 103.736 59.498C103.9 59.8262 103.982 60.2676 103.982 60.8223V65H102.887V60.6406C102.887 60.2227 102.781 59.9355 102.57 59.7793C102.363 59.623 102.109 59.5449 101.809 59.5449C101.395 59.5449 101.037 59.6836 100.736 59.9609C100.439 60.2383 100.291 60.7012 100.291 61.3496V65H99.2188V60.9043C99.2188 60.4785 99.168 60.168 99.0664 59.9727C98.9062 59.6797 98.6074 59.5332 98.1699 59.5332C97.7715 59.5332 97.4082 59.6875 97.0801 59.9961C96.7559 60.3047 96.5938 60.8633 96.5938 61.6719V65H95.5391V58.7246ZM108.148 58.584C108.594 58.584 109.025 58.6895 109.443 58.9004C109.861 59.1074 110.18 59.377 110.398 59.709C110.609 60.0254 110.75 60.3945 110.82 60.8164C110.883 61.1055 110.914 61.5664 110.914 62.1992H106.314C106.334 62.8359 106.484 63.3477 106.766 63.7344C107.047 64.1172 107.482 64.3086 108.072 64.3086C108.623 64.3086 109.062 64.127 109.391 63.7637C109.578 63.5527 109.711 63.3086 109.789 63.0312H110.826C110.799 63.2617 110.707 63.5195 110.551 63.8047C110.398 64.0859 110.227 64.3164 110.035 64.4961C109.715 64.8086 109.318 65.0195 108.846 65.1289C108.592 65.1914 108.305 65.2227 107.984 65.2227C107.203 65.2227 106.541 64.9395 105.998 64.373C105.455 63.8027 105.184 63.0059 105.184 61.9824C105.184 60.9746 105.457 60.1562 106.004 59.5273C106.551 58.8984 107.266 58.584 108.148 58.584ZM109.83 61.3613C109.787 60.9043 109.688 60.5391 109.531 60.2656C109.242 59.7578 108.76 59.5039 108.084 59.5039C107.6 59.5039 107.193 59.6797 106.865 60.0312C106.537 60.3789 106.363 60.8223 106.344 61.3613H109.83ZM112.215 58.7246H113.217V59.6152C113.514 59.248 113.828 58.9844 114.16 58.8242C114.492 58.6641 114.861 58.584 115.268 58.584C116.158 58.584 116.76 58.8945 117.072 59.5156C117.244 59.8555 117.33 60.3418 117.33 60.9746V65H116.258V61.0449C116.258 60.6621 116.201 60.3535 116.088 60.1191C115.9 59.7285 115.561 59.5332 115.068 59.5332C114.818 59.5332 114.613 59.5586 114.453 59.6094C114.164 59.6953 113.91 59.8672 113.691 60.125C113.516 60.332 113.4 60.5469 113.346 60.7695C113.295 60.9883 113.27 61.3027 113.27 61.7129V65H112.215V58.7246ZM119.105 56.9727H120.172V58.7246H121.174V59.5859H120.172V63.6816C120.172 63.9004 120.246 64.0469 120.395 64.1211C120.477 64.1641 120.613 64.1855 120.805 64.1855C120.855 64.1855 120.91 64.1855 120.969 64.1855C121.027 64.1816 121.096 64.1758 121.174 64.168V65C121.053 65.0352 120.926 65.0605 120.793 65.0762C120.664 65.0918 120.523 65.0996 120.371 65.0996C119.879 65.0996 119.545 64.9746 119.369 64.7246C119.193 64.4707 119.105 64.1426 119.105 63.7402V59.5859H118.256V58.7246H119.105V56.9727ZM126.395 56.3926L128.867 63.7227L131.311 56.3926H132.617L129.477 65H128.24L125.105 56.3926H126.395ZM137.434 56.1582C138.953 56.1582 140.078 56.6465 140.809 57.623C141.379 58.3848 141.664 59.3594 141.664 60.5469C141.664 61.832 141.338 62.9004 140.686 63.752C139.92 64.752 138.828 65.252 137.41 65.252C136.086 65.252 135.045 64.8145 134.287 63.9395C133.611 63.0957 133.273 62.0293 133.273 60.7402C133.273 59.5762 133.562 58.5801 134.141 57.752C134.883 56.6895 135.98 56.1582 137.434 56.1582ZM137.551 64.209C138.578 64.209 139.32 63.8418 139.777 63.1074C140.238 62.3691 140.469 61.5215 140.469 60.5645C140.469 59.5527 140.203 58.7383 139.672 58.1211C139.145 57.5039 138.422 57.1953 137.504 57.1953C136.613 57.1953 135.887 57.502 135.324 58.1152C134.762 58.7246 134.48 59.625 134.48 60.8164C134.48 61.7695 134.721 62.5742 135.201 63.2305C135.686 63.8828 136.469 64.209 137.551 64.209ZM142.391 56.3926H143.75L146.223 60.5293L148.695 56.3926H150.061L146.809 61.5312V65H145.643V61.5312L142.391 56.3926ZM149.545 61.1152H152.486V62.1992H149.545V61.1152ZM154.191 59.0586V58.25C154.953 58.1758 155.484 58.0527 155.785 57.8809C156.086 57.7051 156.311 57.293 156.459 56.6445H157.291V65H156.166V59.0586H154.191ZM160.098 65C160.137 64.2773 160.285 63.6484 160.543 63.1133C160.805 62.5781 161.312 62.0918 162.066 61.6543L163.191 61.0039C163.695 60.7109 164.049 60.4609 164.252 60.2539C164.572 59.9297 164.732 59.5586 164.732 59.1406C164.732 58.6523 164.586 58.2656 164.293 57.9805C164 57.6914 163.609 57.5469 163.121 57.5469C162.398 57.5469 161.898 57.8203 161.621 58.3672C161.473 58.6602 161.391 59.0664 161.375 59.5859H160.303C160.314 58.8555 160.449 58.2598 160.707 57.7988C161.164 56.9863 161.971 56.5801 163.127 56.5801C164.088 56.5801 164.789 56.8398 165.23 57.3594C165.676 57.8789 165.898 58.457 165.898 59.0938C165.898 59.7656 165.662 60.3398 165.189 60.8164C164.916 61.0938 164.426 61.4297 163.719 61.8242L162.916 62.2695C162.533 62.4805 162.232 62.6816 162.014 62.873C161.623 63.2129 161.377 63.5898 161.275 64.0039H165.857V65H160.098ZM169.52 65.2285C168.527 65.2285 167.807 64.957 167.357 64.4141C166.912 63.8672 166.689 63.2031 166.689 62.4219H167.791C167.838 62.9648 167.939 63.3594 168.096 63.6055C168.369 64.0469 168.863 64.2676 169.578 64.2676C170.133 64.2676 170.578 64.1191 170.914 63.8223C171.25 63.5254 171.418 63.1426 171.418 62.6738C171.418 62.0957 171.24 61.6914 170.885 61.4609C170.533 61.2305 170.043 61.1152 169.414 61.1152C169.344 61.1152 169.271 61.1172 169.197 61.1211C169.127 61.1211 169.055 61.123 168.98 61.127V60.1953C169.09 60.207 169.182 60.2148 169.256 60.2188C169.33 60.2227 169.41 60.2246 169.496 60.2246C169.891 60.2246 170.215 60.1621 170.469 60.0371C170.914 59.8184 171.137 59.4277 171.137 58.8652C171.137 58.4473 170.988 58.125 170.691 57.8984C170.395 57.6719 170.049 57.5586 169.654 57.5586C168.951 57.5586 168.465 57.793 168.195 58.2617C168.047 58.5195 167.963 58.8867 167.943 59.3633H166.9C166.9 58.7383 167.025 58.207 167.275 57.7695C167.705 56.9883 168.461 56.5977 169.543 56.5977C170.398 56.5977 171.061 56.7891 171.529 57.1719C171.998 57.5508 172.232 58.1016 172.232 58.8242C172.232 59.3398 172.094 59.7578 171.816 60.0781C171.645 60.2773 171.422 60.4336 171.148 60.5469C171.59 60.668 171.934 60.9023 172.18 61.25C172.43 61.5938 172.555 62.0156 172.555 62.5156C172.555 63.3164 172.291 63.9688 171.764 64.4727C171.236 64.9766 170.488 65.2285 169.52 65.2285ZM177.195 56.3633H178.25V59.5742C178.5 59.2578 178.725 59.0352 178.924 58.9062C179.264 58.6836 179.688 58.5723 180.195 58.5723C181.105 58.5723 181.723 58.8906 182.047 59.5273C182.223 59.875 182.311 60.3574 182.311 60.9746V65H181.227V61.0449C181.227 60.584 181.168 60.2461 181.051 60.0312C180.859 59.6875 180.5 59.5156 179.973 59.5156C179.535 59.5156 179.139 59.666 178.783 59.9668C178.428 60.2676 178.25 60.8359 178.25 61.6719V65H177.195V56.3633ZM186.488 58.584C186.934 58.584 187.365 58.6895 187.783 58.9004C188.201 59.1074 188.52 59.377 188.738 59.709C188.949 60.0254 189.09 60.3945 189.16 60.8164C189.223 61.1055 189.254 61.5664 189.254 62.1992H184.654C184.674 62.8359 184.824 63.3477 185.105 63.7344C185.387 64.1172 185.822 64.3086 186.412 64.3086C186.963 64.3086 187.402 64.127 187.73 63.7637C187.918 63.5527 188.051 63.3086 188.129 63.0312H189.166C189.139 63.2617 189.047 63.5195 188.891 63.8047C188.738 64.0859 188.566 64.3164 188.375 64.4961C188.055 64.8086 187.658 65.0195 187.186 65.1289C186.932 65.1914 186.645 65.2227 186.324 65.2227C185.543 65.2227 184.881 64.9395 184.338 64.373C183.795 63.8027 183.523 63.0059 183.523 61.9824C183.523 60.9746 183.797 60.1562 184.344 59.5273C184.891 58.8984 185.605 58.584 186.488 58.584ZM188.17 61.3613C188.127 60.9043 188.027 60.5391 187.871 60.2656C187.582 59.7578 187.1 59.5039 186.424 59.5039C185.939 59.5039 185.533 59.6797 185.205 60.0312C184.877 60.3789 184.703 60.8223 184.684 61.3613H188.17ZM190.584 56.3926H191.639V65H190.584V56.3926ZM193.895 61.9355C193.895 62.6074 194.037 63.1699 194.322 63.623C194.607 64.0762 195.064 64.3027 195.693 64.3027C196.182 64.3027 196.582 64.0938 196.895 63.6758C197.211 63.2539 197.369 62.6504 197.369 61.8652C197.369 61.0723 197.207 60.4863 196.883 60.1074C196.559 59.7246 196.158 59.5332 195.682 59.5332C195.15 59.5332 194.719 59.7363 194.387 60.1426C194.059 60.5488 193.895 61.1465 193.895 61.9355ZM195.482 58.6133C195.963 58.6133 196.365 58.7148 196.689 58.918C196.877 59.0352 197.09 59.2402 197.328 59.5332V56.3633H198.342V65H197.393V64.127C197.146 64.5137 196.855 64.793 196.52 64.9648C196.184 65.1367 195.799 65.2227 195.365 65.2227C194.666 65.2227 194.061 64.9297 193.549 64.3438C193.037 63.7539 192.781 62.9707 192.781 61.9941C192.781 61.0801 193.014 60.2891 193.479 59.6211C193.947 58.9492 194.615 58.6133 195.482 58.6133ZM204.055 63.3301C204.055 63.6348 204.166 63.875 204.389 64.0508C204.611 64.2266 204.875 64.3145 205.18 64.3145C205.551 64.3145 205.91 64.2285 206.258 64.0566C206.844 63.7715 207.137 63.3047 207.137 62.6562V61.8066C207.008 61.8887 206.842 61.957 206.639 62.0117C206.436 62.0664 206.236 62.1055 206.041 62.1289L205.402 62.2109C205.02 62.2617 204.732 62.3418 204.541 62.4512C204.217 62.6348 204.055 62.9277 204.055 63.3301ZM206.609 61.1973C206.852 61.166 207.014 61.0645 207.096 60.8926C207.143 60.7988 207.166 60.6641 207.166 60.4883C207.166 60.1289 207.037 59.8691 206.779 59.709C206.525 59.5449 206.16 59.4629 205.684 59.4629C205.133 59.4629 204.742 59.6113 204.512 59.9082C204.383 60.0723 204.299 60.3164 204.26 60.6406H203.275C203.295 59.8672 203.545 59.3301 204.025 59.0293C204.51 58.7246 205.07 58.5723 205.707 58.5723C206.445 58.5723 207.045 58.7129 207.506 58.9941C207.963 59.2754 208.191 59.7129 208.191 60.3066V63.9219C208.191 64.0312 208.213 64.1191 208.256 64.1855C208.303 64.252 208.398 64.2852 208.543 64.2852C208.59 64.2852 208.643 64.2832 208.701 64.2793C208.76 64.2715 208.822 64.2617 208.889 64.25V65.0293C208.725 65.0762 208.6 65.1055 208.514 65.1172C208.428 65.1289 208.311 65.1348 208.162 65.1348C207.799 65.1348 207.535 65.0059 207.371 64.748C207.285 64.6113 207.225 64.418 207.189 64.168C206.975 64.4492 206.666 64.6934 206.264 64.9004C205.861 65.1074 205.418 65.2109 204.934 65.2109C204.352 65.2109 203.875 65.0352 203.504 64.6836C203.137 64.3281 202.953 63.8848 202.953 63.3535C202.953 62.7715 203.135 62.3203 203.498 62C203.861 61.6797 204.338 61.4824 204.928 61.4082L206.609 61.1973ZM210.137 56.9727H211.203V58.7246H212.205V59.5859H211.203V63.6816C211.203 63.9004 211.277 64.0469 211.426 64.1211C211.508 64.1641 211.645 64.1855 211.836 64.1855C211.887 64.1855 211.941 64.1855 212 64.1855C212.059 64.1816 212.127 64.1758 212.205 64.168V65C212.084 65.0352 211.957 65.0605 211.824 65.0762C211.695 65.0918 211.555 65.0996 211.402 65.0996C210.91 65.0996 210.576 64.9746 210.4 64.7246C210.225 64.4707 210.137 64.1426 210.137 63.7402V59.5859H209.287V58.7246H210.137V56.9727ZM222.799 56.3926V57.418H219.898V65H218.715V57.418H215.814V56.3926H222.799ZM223.314 58.7246H224.316V59.8086C224.398 59.5977 224.6 59.3418 224.92 59.041C225.24 58.7363 225.609 58.584 226.027 58.584C226.047 58.584 226.08 58.5859 226.127 58.5898C226.174 58.5938 226.254 58.6016 226.367 58.6133V59.7266C226.305 59.7148 226.246 59.707 226.191 59.7031C226.141 59.6992 226.084 59.6973 226.021 59.6973C225.49 59.6973 225.082 59.8691 224.797 60.2129C224.512 60.5527 224.369 60.9453 224.369 61.3906V65H223.314V58.7246ZM228.09 63.3301C228.09 63.6348 228.201 63.875 228.424 64.0508C228.646 64.2266 228.91 64.3145 229.215 64.3145C229.586 64.3145 229.945 64.2285 230.293 64.0566C230.879 63.7715 231.172 63.3047 231.172 62.6562V61.8066C231.043 61.8887 230.877 61.957 230.674 62.0117C230.471 62.0664 230.271 62.1055 230.076 62.1289L229.438 62.2109C229.055 62.2617 228.768 62.3418 228.576 62.4512C228.252 62.6348 228.09 62.9277 228.09 63.3301ZM230.645 61.1973C230.887 61.166 231.049 61.0645 231.131 60.8926C231.178 60.7988 231.201 60.6641 231.201 60.4883C231.201 60.1289 231.072 59.8691 230.814 59.709C230.561 59.5449 230.195 59.4629 229.719 59.4629C229.168 59.4629 228.777 59.6113 228.547 59.9082C228.418 60.0723 228.334 60.3164 228.295 60.6406H227.311C227.33 59.8672 227.58 59.3301 228.061 59.0293C228.545 58.7246 229.105 58.5723 229.742 58.5723C230.48 58.5723 231.08 58.7129 231.541 58.9941C231.998 59.2754 232.227 59.7129 232.227 60.3066V63.9219C232.227 64.0312 232.248 64.1191 232.291 64.1855C232.338 64.252 232.434 64.2852 232.578 64.2852C232.625 64.2852 232.678 64.2832 232.736 64.2793C232.795 64.2715 232.857 64.2617 232.924 64.25V65.0293C232.76 65.0762 232.635 65.1055 232.549 65.1172C232.463 65.1289 232.346 65.1348 232.197 65.1348C231.834 65.1348 231.57 65.0059 231.406 64.748C231.32 64.6113 231.26 64.418 231.225 64.168C231.01 64.4492 230.701 64.6934 230.299 64.9004C229.896 65.1074 229.453 65.2109 228.969 65.2109C228.387 65.2109 227.91 65.0352 227.539 64.6836C227.172 64.3281 226.988 63.8848 226.988 63.3535C226.988 62.7715 227.17 62.3203 227.533 62C227.896 61.6797 228.373 61.4824 228.963 61.4082L230.645 61.1973ZM234.225 57.7695C234.24 57.332 234.316 57.0117 234.453 56.8086C234.699 56.4492 235.174 56.2695 235.877 56.2695C235.943 56.2695 236.012 56.2715 236.082 56.2754C236.152 56.2793 236.232 56.2852 236.322 56.293V57.2539C236.213 57.2461 236.133 57.2422 236.082 57.2422C236.035 57.2383 235.99 57.2363 235.947 57.2363C235.627 57.2363 235.436 57.3203 235.373 57.4883C235.311 57.6523 235.279 58.0742 235.279 58.7539H236.322V59.5859H235.268V65H234.225V59.5859H233.352V58.7539H234.225V57.7695ZM237.564 57.7695C237.58 57.332 237.656 57.0117 237.793 56.8086C238.039 56.4492 238.514 56.2695 239.217 56.2695C239.283 56.2695 239.352 56.2715 239.422 56.2754C239.492 56.2793 239.572 56.2852 239.662 56.293V57.2539C239.553 57.2461 239.473 57.2422 239.422 57.2422C239.375 57.2383 239.33 57.2363 239.287 57.2363C238.967 57.2363 238.775 57.3203 238.713 57.4883C238.65 57.6523 238.619 58.0742 238.619 58.7539H239.662V59.5859H238.607V65H237.564V59.5859H236.691V58.7539H237.564V57.7695ZM240.676 57.5879V56.3926H241.73V57.5879H240.676ZM240.676 58.7539H241.73V65H240.676V58.7539ZM245.721 58.543C246.428 58.543 247.002 58.7148 247.443 59.0586C247.889 59.4023 248.156 59.9941 248.246 60.834H247.221C247.158 60.4473 247.016 60.127 246.793 59.873C246.57 59.6152 246.213 59.4863 245.721 59.4863C245.049 59.4863 244.568 59.8145 244.279 60.4707C244.092 60.8965 243.998 61.4219 243.998 62.0469C243.998 62.6758 244.131 63.2051 244.396 63.6348C244.662 64.0645 245.08 64.2793 245.65 64.2793C246.088 64.2793 246.434 64.1465 246.688 63.8809C246.945 63.6113 247.123 63.2441 247.221 62.7793H248.246C248.129 63.6113 247.836 64.2207 247.367 64.6074C246.898 64.9902 246.299 65.1816 245.568 65.1816C244.748 65.1816 244.094 64.8828 243.605 64.2852C243.117 63.6836 242.873 62.9336 242.873 62.0352C242.873 60.9336 243.141 60.0762 243.676 59.4629C244.211 58.8496 244.893 58.543 245.721 58.543Z" fill="black"/>
<path d="M25.9648 88.2227C25.9922 88.7109 26.1074 89.1074 26.3105 89.4121C26.6973 89.9824 27.3789 90.2676 28.3555 90.2676C28.793 90.2676 29.1914 90.2051 29.5508 90.0801C30.2461 89.8379 30.5938 89.4043 30.5938 88.7793C30.5938 88.3105 30.4473 87.9766 30.1543 87.7773C29.8574 87.582 29.3926 87.4121 28.7598 87.2676L27.5938 87.0039C26.832 86.832 26.293 86.6426 25.9766 86.4355C25.4297 86.0762 25.1562 85.5391 25.1562 84.8242C25.1562 84.0508 25.4238 83.416 25.959 82.9199C26.4941 82.4238 27.252 82.1758 28.2324 82.1758C29.1348 82.1758 29.9004 82.3945 30.5293 82.832C31.1621 83.2656 31.4785 83.9609 31.4785 84.918H30.3828C30.3242 84.457 30.1992 84.1035 30.0078 83.8574C29.6523 83.4082 29.0488 83.1836 28.1973 83.1836C27.5098 83.1836 27.0156 83.3281 26.7148 83.6172C26.4141 83.9062 26.2637 84.2422 26.2637 84.625C26.2637 85.0469 26.4395 85.3555 26.791 85.5508C27.0215 85.6758 27.543 85.832 28.3555 86.0195L29.5625 86.2949C30.1445 86.4277 30.5938 86.6094 30.9102 86.8398C31.457 87.2422 31.7305 87.8262 31.7305 88.5918C31.7305 89.5449 31.3828 90.2266 30.6875 90.6367C29.9961 91.0469 29.1914 91.252 28.2734 91.252C27.2031 91.252 26.3652 90.9785 25.7598 90.4316C25.1543 89.8887 24.8574 89.1523 24.8691 88.2227H25.9648ZM33.0664 82.3633H34.1211V85.5742C34.3711 85.2578 34.5957 85.0352 34.7949 84.9062C35.1348 84.6836 35.5586 84.5723 36.0664 84.5723C36.9766 84.5723 37.5938 84.8906 37.918 85.5273C38.0938 85.875 38.1816 86.3574 38.1816 86.9746V91H37.0977V87.0449C37.0977 86.584 37.0391 86.2461 36.9219 86.0312C36.7305 85.6875 36.3711 85.5156 35.8438 85.5156C35.4062 85.5156 35.0098 85.666 34.6543 85.9668C34.2988 86.2676 34.1211 86.8359 34.1211 87.6719V91H33.0664V82.3633ZM39.7461 84.7539H40.8184V91H39.7461V84.7539ZM39.7461 82.3926H40.8184V83.5879H39.7461V82.3926ZM45.0664 90.291C45.5586 90.291 45.9668 90.0859 46.291 89.6758C46.6191 89.2617 46.7832 88.6445 46.7832 87.8242C46.7832 87.3242 46.7109 86.8945 46.5664 86.5352C46.293 85.8438 45.793 85.498 45.0664 85.498C44.3359 85.498 43.8359 85.8633 43.5664 86.5938C43.4219 86.9844 43.3496 87.4805 43.3496 88.082C43.3496 88.5664 43.4219 88.9785 43.5664 89.3184C43.8398 89.9668 44.3398 90.291 45.0664 90.291ZM42.3359 84.7539H43.3613V85.5859C43.5723 85.3008 43.8027 85.0801 44.0527 84.9238C44.4082 84.6895 44.8262 84.5723 45.3066 84.5723C46.0176 84.5723 46.6211 84.8457 47.1172 85.3926C47.6133 85.9355 47.8613 86.7129 47.8613 87.7246C47.8613 89.0918 47.5039 90.0684 46.7891 90.6543C46.3359 91.0254 45.8086 91.2109 45.207 91.2109C44.7344 91.2109 44.3379 91.1074 44.0176 90.9004C43.8301 90.7832 43.6211 90.582 43.3906 90.2969V93.502H42.3359V84.7539ZM49.0977 84.7246H50.1406V85.6152C50.3906 85.3066 50.6172 85.082 50.8203 84.9414C51.168 84.7031 51.5625 84.584 52.0039 84.584C52.5039 84.584 52.9062 84.707 53.2109 84.9531C53.3828 85.0938 53.5391 85.3008 53.6797 85.5742C53.9141 85.2383 54.1895 84.9902 54.5059 84.8301C54.8223 84.666 55.1777 84.584 55.5723 84.584C56.416 84.584 56.9902 84.8887 57.2949 85.498C57.459 85.8262 57.541 86.2676 57.541 86.8223V91H56.4453V86.6406C56.4453 86.2227 56.3398 85.9355 56.1289 85.7793C55.9219 85.623 55.668 85.5449 55.3672 85.5449C54.9531 85.5449 54.5957 85.6836 54.2949 85.9609C53.998 86.2383 53.8496 86.7012 53.8496 87.3496V91H52.7773V86.9043C52.7773 86.4785 52.7266 86.168 52.625 85.9727C52.4648 85.6797 52.166 85.5332 51.7285 85.5332C51.3301 85.5332 50.9668 85.6875 50.6387 85.9961C50.3145 86.3047 50.1523 86.8633 50.1523 87.6719V91H49.0977V84.7246ZM61.707 84.584C62.1523 84.584 62.584 84.6895 63.002 84.9004C63.4199 85.1074 63.7383 85.377 63.957 85.709C64.168 86.0254 64.3086 86.3945 64.3789 86.8164C64.4414 87.1055 64.4727 87.5664 64.4727 88.1992H59.873C59.8926 88.8359 60.043 89.3477 60.3242 89.7344C60.6055 90.1172 61.041 90.3086 61.6309 90.3086C62.1816 90.3086 62.6211 90.127 62.9492 89.7637C63.1367 89.5527 63.2695 89.3086 63.3477 89.0312H64.3848C64.3574 89.2617 64.2656 89.5195 64.1094 89.8047C63.957 90.0859 63.7852 90.3164 63.5938 90.4961C63.2734 90.8086 62.877 91.0195 62.4043 91.1289C62.1504 91.1914 61.8633 91.2227 61.543 91.2227C60.7617 91.2227 60.0996 90.9395 59.5566 90.373C59.0137 89.8027 58.7422 89.0059 58.7422 87.9824C58.7422 86.9746 59.0156 86.1562 59.5625 85.5273C60.1094 84.8984 60.8242 84.584 61.707 84.584ZM63.3887 87.3613C63.3457 86.9043 63.2461 86.5391 63.0898 86.2656C62.8008 85.7578 62.3184 85.5039 61.6426 85.5039C61.1582 85.5039 60.752 85.6797 60.4238 86.0312C60.0957 86.3789 59.9219 86.8223 59.9023 87.3613H63.3887ZM65.7734 84.7246H66.7754V85.6152C67.0723 85.248 67.3867 84.9844 67.7188 84.8242C68.0508 84.6641 68.4199 84.584 68.8262 84.584C69.7168 84.584 70.3184 84.8945 70.6309 85.5156C70.8027 85.8555 70.8887 86.3418 70.8887 86.9746V91H69.8164V87.0449C69.8164 86.6621 69.7598 86.3535 69.6465 86.1191C69.459 85.7285 69.1191 85.5332 68.627 85.5332C68.377 85.5332 68.1719 85.5586 68.0117 85.6094C67.7227 85.6953 67.4688 85.8672 67.25 86.125C67.0742 86.332 66.959 86.5469 66.9043 86.7695C66.8535 86.9883 66.8281 87.3027 66.8281 87.7129V91H65.7734V84.7246ZM72.6641 82.9727H73.7305V84.7246H74.7324V85.5859H73.7305V89.6816C73.7305 89.9004 73.8047 90.0469 73.9531 90.1211C74.0352 90.1641 74.1719 90.1855 74.3633 90.1855C74.4141 90.1855 74.4688 90.1855 74.5273 90.1855C74.5859 90.1816 74.6543 90.1758 74.7324 90.168V91C74.6113 91.0352 74.4844 91.0605 74.3516 91.0762C74.2227 91.0918 74.082 91.0996 73.9297 91.0996C73.4375 91.0996 73.1035 90.9746 72.9277 90.7246C72.752 90.4707 72.6641 90.1426 72.6641 89.7402V85.5859H71.8145V84.7246H72.6641V82.9727ZM79.9531 82.3926L82.4258 89.7227L84.8691 82.3926H86.1758L83.0352 91H81.7988L78.6641 82.3926H79.9531ZM90.9922 82.1582C92.5117 82.1582 93.6367 82.6465 94.3672 83.623C94.9375 84.3848 95.2227 85.3594 95.2227 86.5469C95.2227 87.832 94.8965 88.9004 94.2441 89.752C93.4785 90.752 92.3867 91.252 90.9688 91.252C89.6445 91.252 88.6035 90.8145 87.8457 89.9395C87.1699 89.0957 86.832 88.0293 86.832 86.7402C86.832 85.5762 87.1211 84.5801 87.6992 83.752C88.4414 82.6895 89.5391 82.1582 90.9922 82.1582ZM91.1094 90.209C92.1367 90.209 92.8789 89.8418 93.3359 89.1074C93.7969 88.3691 94.0273 87.5215 94.0273 86.5645C94.0273 85.5527 93.7617 84.7383 93.2305 84.1211C92.7031 83.5039 91.9805 83.1953 91.0625 83.1953C90.1719 83.1953 89.4453 83.502 88.8828 84.1152C88.3203 84.7246 88.0391 85.625 88.0391 86.8164C88.0391 87.7695 88.2793 88.5742 88.7598 89.2305C89.2441 89.8828 90.0273 90.209 91.1094 90.209ZM95.9492 82.3926H97.3086L99.7812 86.5293L102.254 82.3926H103.619L100.367 87.5312V91H99.2012V87.5312L95.9492 82.3926ZM103.104 87.1152H106.045V88.1992H103.104V87.1152ZM107.75 85.0586V84.25C108.512 84.1758 109.043 84.0527 109.344 83.8809C109.645 83.7051 109.869 83.293 110.018 82.6445H110.85V91H109.725V85.0586H107.75ZM113.656 91C113.695 90.2773 113.844 89.6484 114.102 89.1133C114.363 88.5781 114.871 88.0918 115.625 87.6543L116.75 87.0039C117.254 86.7109 117.607 86.4609 117.811 86.2539C118.131 85.9297 118.291 85.5586 118.291 85.1406C118.291 84.6523 118.145 84.2656 117.852 83.9805C117.559 83.6914 117.168 83.5469 116.68 83.5469C115.957 83.5469 115.457 83.8203 115.18 84.3672C115.031 84.6602 114.949 85.0664 114.934 85.5859H113.861C113.873 84.8555 114.008 84.2598 114.266 83.7988C114.723 82.9863 115.529 82.5801 116.686 82.5801C117.646 82.5801 118.348 82.8398 118.789 83.3594C119.234 83.8789 119.457 84.457 119.457 85.0938C119.457 85.7656 119.221 86.3398 118.748 86.8164C118.475 87.0938 117.984 87.4297 117.277 87.8242L116.475 88.2695C116.092 88.4805 115.791 88.6816 115.572 88.873C115.182 89.2129 114.936 89.5898 114.834 90.0039H119.416V91H113.656ZM123.928 88.0293V84.2266L121.238 88.0293H123.928ZM123.945 91V88.9492H120.266V87.918L124.109 82.5859H125V88.0293H126.236V88.9492H125V91H123.945ZM134.199 90.0039C134.594 90.0039 134.918 89.9629 135.172 89.8809C135.625 89.7285 135.996 89.4355 136.285 89.002C136.516 88.6543 136.682 88.209 136.783 87.666C136.842 87.3418 136.871 87.041 136.871 86.7637C136.871 85.6973 136.658 84.8691 136.232 84.2793C135.811 83.6895 135.129 83.3945 134.188 83.3945H132.119V90.0039H134.199ZM130.947 82.3926H134.434C135.617 82.3926 136.535 82.8125 137.188 83.6523C137.77 84.4102 138.061 85.3809 138.061 86.5645C138.061 87.4785 137.889 88.3047 137.545 89.043C136.939 90.3477 135.898 91 134.422 91H130.947V82.3926ZM142.039 84.584C142.484 84.584 142.916 84.6895 143.334 84.9004C143.752 85.1074 144.07 85.377 144.289 85.709C144.5 86.0254 144.641 86.3945 144.711 86.8164C144.773 87.1055 144.805 87.5664 144.805 88.1992H140.205C140.225 88.8359 140.375 89.3477 140.656 89.7344C140.938 90.1172 141.373 90.3086 141.963 90.3086C142.514 90.3086 142.953 90.127 143.281 89.7637C143.469 89.5527 143.602 89.3086 143.68 89.0312H144.717C144.689 89.2617 144.598 89.5195 144.441 89.8047C144.289 90.0859 144.117 90.3164 143.926 90.4961C143.605 90.8086 143.209 91.0195 142.736 91.1289C142.482 91.1914 142.195 91.2227 141.875 91.2227C141.094 91.2227 140.432 90.9395 139.889 90.373C139.346 89.8027 139.074 89.0059 139.074 87.9824C139.074 86.9746 139.348 86.1562 139.895 85.5273C140.441 84.8984 141.156 84.584 142.039 84.584ZM143.721 87.3613C143.678 86.9043 143.578 86.5391 143.422 86.2656C143.133 85.7578 142.65 85.5039 141.975 85.5039C141.49 85.5039 141.084 85.6797 140.756 86.0312C140.428 86.3789 140.254 86.8223 140.234 87.3613H143.721ZM146.135 82.3926H147.189V91H146.135V82.3926ZM148.777 84.7539H149.85V91H148.777V84.7539ZM148.777 82.3926H149.85V83.5879H148.777V82.3926ZM151.965 84.7246L153.641 89.834L155.393 84.7246H156.547L154.18 91H153.055L150.74 84.7246H151.965ZM160.062 84.584C160.508 84.584 160.939 84.6895 161.357 84.9004C161.775 85.1074 162.094 85.377 162.312 85.709C162.523 86.0254 162.664 86.3945 162.734 86.8164C162.797 87.1055 162.828 87.5664 162.828 88.1992H158.229C158.248 88.8359 158.398 89.3477 158.68 89.7344C158.961 90.1172 159.396 90.3086 159.986 90.3086C160.537 90.3086 160.977 90.127 161.305 89.7637C161.492 89.5527 161.625 89.3086 161.703 89.0312H162.74C162.713 89.2617 162.621 89.5195 162.465 89.8047C162.312 90.0859 162.141 90.3164 161.949 90.4961C161.629 90.8086 161.232 91.0195 160.76 91.1289C160.506 91.1914 160.219 91.2227 159.898 91.2227C159.117 91.2227 158.455 90.9395 157.912 90.373C157.369 89.8027 157.098 89.0059 157.098 87.9824C157.098 86.9746 157.371 86.1562 157.918 85.5273C158.465 84.8984 159.18 84.584 160.062 84.584ZM161.744 87.3613C161.701 86.9043 161.602 86.5391 161.445 86.2656C161.156 85.7578 160.674 85.5039 159.998 85.5039C159.514 85.5039 159.107 85.6797 158.779 86.0312C158.451 86.3789 158.277 86.8223 158.258 87.3613H161.744ZM164.158 84.7246H165.16V85.8086C165.242 85.5977 165.443 85.3418 165.764 85.041C166.084 84.7363 166.453 84.584 166.871 84.584C166.891 84.584 166.924 84.5859 166.971 84.5898C167.018 84.5938 167.098 84.6016 167.211 84.6133V85.7266C167.148 85.7148 167.09 85.707 167.035 85.7031C166.984 85.6992 166.928 85.6973 166.865 85.6973C166.334 85.6973 165.926 85.8691 165.641 86.2129C165.355 86.5527 165.213 86.9453 165.213 87.3906V91H164.158V84.7246ZM170.738 84.584C171.184 84.584 171.615 84.6895 172.033 84.9004C172.451 85.1074 172.77 85.377 172.988 85.709C173.199 86.0254 173.34 86.3945 173.41 86.8164C173.473 87.1055 173.504 87.5664 173.504 88.1992H168.904C168.924 88.8359 169.074 89.3477 169.355 89.7344C169.637 90.1172 170.072 90.3086 170.662 90.3086C171.213 90.3086 171.652 90.127 171.98 89.7637C172.168 89.5527 172.301 89.3086 172.379 89.0312H173.416C173.389 89.2617 173.297 89.5195 173.141 89.8047C172.988 90.0859 172.816 90.3164 172.625 90.4961C172.305 90.8086 171.908 91.0195 171.436 91.1289C171.182 91.1914 170.895 91.2227 170.574 91.2227C169.793 91.2227 169.131 90.9395 168.588 90.373C168.045 89.8027 167.773 89.0059 167.773 87.9824C167.773 86.9746 168.047 86.1562 168.594 85.5273C169.141 84.8984 169.855 84.584 170.738 84.584ZM172.42 87.3613C172.377 86.9043 172.277 86.5391 172.121 86.2656C171.832 85.7578 171.35 85.5039 170.674 85.5039C170.189 85.5039 169.783 85.6797 169.455 86.0312C169.127 86.3789 168.953 86.8223 168.934 87.3613H172.42ZM175.473 87.9355C175.473 88.6074 175.615 89.1699 175.9 89.623C176.186 90.0762 176.643 90.3027 177.271 90.3027C177.76 90.3027 178.16 90.0938 178.473 89.6758C178.789 89.2539 178.947 88.6504 178.947 87.8652C178.947 87.0723 178.785 86.4863 178.461 86.1074C178.137 85.7246 177.736 85.5332 177.26 85.5332C176.729 85.5332 176.297 85.7363 175.965 86.1426C175.637 86.5488 175.473 87.1465 175.473 87.9355ZM177.061 84.6133C177.541 84.6133 177.943 84.7148 178.268 84.918C178.455 85.0352 178.668 85.2402 178.906 85.5332V82.3633H179.92V91H178.971V90.127C178.725 90.5137 178.434 90.793 178.098 90.9648C177.762 91.1367 177.377 91.2227 176.943 91.2227C176.244 91.2227 175.639 90.9297 175.127 90.3438C174.615 89.7539 174.359 88.9707 174.359 87.9941C174.359 87.0801 174.592 86.2891 175.057 85.6211C175.525 84.9492 176.193 84.6133 177.061 84.6133Z" fill="black"/>
</svg>
