<svg width="301" height="134" viewBox="0 0 301 134" fill="none" xmlns="http://www.w3.org/2000/svg">
<rect x="34" y="10" width="10" height="100" fill="#1FD130"/>
<rect x="63" y="30" width="10" height="80" fill="#1FD130"/>
<rect x="150" y="30" width="10" height="80" fill="#1FD130"/>
<rect x="182" y="30" width="10" height="80" fill="#1FD130"/>
<rect x="214" y="20" width="10" height="90" fill="#1FD130"/>
<rect x="92" y="15" width="10" height="95" fill="#1FD130"/>
<rect x="121" width="10" height="110" fill="#1FD130"/>
<rect x="243" width="10" height="110" fill="#1FD130"/>
<rect x="275" width="10" height="110" fill="#1FD130"/>
<line x1="19" y1="109.5" x2="300.016" y2="109.5" stroke="#CCCCCC"/>
<path d="M148.063 121.675V122.786H144.921V131H143.639V122.786H140.497V121.675H148.063ZM148.59 124.233H149.752V131H148.59V124.233ZM148.59 121.675H149.752V122.97H148.59V121.675ZM151.485 124.202H152.615V125.167C152.886 124.832 153.131 124.589 153.351 124.437C153.728 124.178 154.155 124.049 154.633 124.049C155.175 124.049 155.611 124.183 155.941 124.449C156.127 124.602 156.296 124.826 156.449 125.122C156.703 124.758 157.001 124.489 157.344 124.316C157.687 124.138 158.072 124.049 158.499 124.049C159.413 124.049 160.035 124.379 160.365 125.04C160.543 125.395 160.632 125.873 160.632 126.474V131H159.445V126.277C159.445 125.825 159.331 125.514 159.102 125.344C158.878 125.175 158.603 125.09 158.277 125.09C157.828 125.09 157.441 125.241 157.115 125.541C156.794 125.841 156.633 126.343 156.633 127.045V131H155.471V126.563C155.471 126.102 155.416 125.765 155.306 125.554C155.133 125.236 154.809 125.078 154.335 125.078C153.903 125.078 153.51 125.245 153.154 125.579C152.803 125.913 152.627 126.519 152.627 127.395V131H151.485V124.202ZM165.145 124.049C165.627 124.049 166.095 124.164 166.548 124.392C167.001 124.616 167.346 124.908 167.583 125.268C167.811 125.611 167.963 126.011 168.04 126.468C168.107 126.781 168.141 127.28 168.141 127.966H163.158C163.179 128.656 163.342 129.21 163.647 129.629C163.952 130.044 164.424 130.251 165.062 130.251C165.659 130.251 166.135 130.054 166.491 129.661C166.694 129.432 166.838 129.168 166.922 128.867H168.046C168.016 129.117 167.917 129.396 167.748 129.705C167.583 130.01 167.396 130.259 167.189 130.454C166.842 130.793 166.412 131.021 165.9 131.14C165.625 131.207 165.314 131.241 164.967 131.241C164.121 131.241 163.404 130.934 162.815 130.321C162.227 129.703 161.933 128.84 161.933 127.731C161.933 126.639 162.229 125.753 162.822 125.071C163.414 124.39 164.189 124.049 165.145 124.049ZM166.967 127.058C166.92 126.563 166.812 126.167 166.643 125.871C166.33 125.321 165.807 125.046 165.075 125.046C164.55 125.046 164.11 125.236 163.755 125.617C163.399 125.994 163.211 126.474 163.19 127.058H166.967Z" fill="black"/>
<path d="M2.67529 99.7178V98.2261L10.229 93.5161H2.67529V92.3164H12V93.7319L4.45264 98.5117H12V99.7178H2.67529ZM11.2637 87.7778C11.2637 87.0203 10.978 86.502 10.4067 86.2227C9.83122 85.9391 9.19222 85.7974 8.48975 85.7974C7.85498 85.7974 7.3387 85.8989 6.94092 86.1021C6.31462 86.4237 6.00146 86.978 6.00146 87.7651C6.00146 88.4634 6.26807 88.9712 6.80127 89.2886C7.33447 89.606 7.9777 89.7646 8.73096 89.7646C9.45459 89.7646 10.0576 89.606 10.54 89.2886C11.0225 88.9712 11.2637 88.4676 11.2637 87.7778ZM5.00488 87.7334C5.00488 86.8574 5.29688 86.1169 5.88086 85.5117C6.46484 84.9066 7.32389 84.604 8.45801 84.604C9.55404 84.604 10.4596 84.8706 11.1748 85.4038C11.89 85.937 12.2476 86.7643 12.2476 87.8857C12.2476 88.821 11.9323 89.5636 11.3018 90.1138C10.667 90.6639 9.81641 90.939 8.75 90.939C7.60742 90.939 6.69759 90.6491 6.02051 90.0693C5.34342 89.4896 5.00488 88.7109 5.00488 87.7334ZM10.6162 82.9663V81.6396H12V82.9663H10.6162ZM11.2637 73.3052C11.2637 72.5477 10.978 72.0293 10.4067 71.75C9.83122 71.4665 9.19222 71.3247 8.48975 71.3247C7.85498 71.3247 7.3387 71.4263 6.94092 71.6294C6.31462 71.951 6.00146 72.5054 6.00146 73.2925C6.00146 73.9907 6.26807 74.4985 6.80127 74.8159C7.33447 75.1333 7.9777 75.292 8.73096 75.292C9.45459 75.292 10.0576 75.1333 10.54 74.8159C11.0225 74.4985 11.2637 73.995 11.2637 73.3052ZM5.00488 73.2607C5.00488 72.3848 5.29688 71.6442 5.88086 71.0391C6.46484 70.4339 7.32389 70.1313 8.45801 70.1313C9.55404 70.1313 10.4596 70.3979 11.1748 70.9312C11.89 71.4644 12.2476 72.2917 12.2476 73.4131C12.2476 74.3483 11.9323 75.091 11.3018 75.6411C10.667 76.1912 9.81641 76.4663 8.75 76.4663C7.60742 76.4663 6.69759 76.1764 6.02051 75.5967C5.34342 75.0169 5.00488 74.2383 5.00488 73.2607ZM4.16699 68.481C3.69303 68.464 3.34603 68.3815 3.12598 68.2334C2.73665 67.9668 2.54199 67.4526 2.54199 66.6909C2.54199 66.619 2.54411 66.5449 2.54834 66.4688C2.55257 66.3926 2.55892 66.3058 2.56738 66.2085H3.6084C3.59993 66.327 3.5957 66.4137 3.5957 66.4688C3.59147 66.5195 3.58936 66.5682 3.58936 66.6147C3.58936 66.9618 3.68034 67.1691 3.8623 67.2368C4.04004 67.3045 4.49707 67.3384 5.2334 67.3384V66.2085H6.13477V67.3511H12V68.481H6.13477V69.4268H5.2334V68.481H4.16699ZM2.64355 61.6191L2.64355 60.5083H6.02686C5.70101 60.2586 5.45345 59.9603 5.28418 59.6133C5.11068 59.2663 5.02393 58.8896 5.02393 58.4834C5.02393 57.637 5.31592 56.9515 5.8999 56.4268C6.47965 55.8978 7.33659 55.6333 8.4707 55.6333C9.54557 55.6333 10.4385 55.8936 11.1494 56.4141C11.8604 56.9346 12.2158 57.6561 12.2158 58.5786C12.2158 59.0949 12.091 59.5308 11.8413 59.8862C11.6932 60.0978 11.4562 60.3242 11.1304 60.5654H12V61.6191H2.64355ZM11.2065 58.6484C11.2065 58.0306 10.9611 57.5693 10.4702 57.2646C9.97933 56.9557 9.33187 56.8013 8.52783 56.8013C7.81266 56.8013 7.22021 56.9557 6.75049 57.2646C6.28076 57.5693 6.0459 58.02 6.0459 58.6167C6.0459 59.1372 6.23844 59.5942 6.62354 59.9878C7.00863 60.3771 7.64339 60.5718 8.52783 60.5718C9.16683 60.5718 9.68522 60.4914 10.083 60.3306C10.832 60.0301 11.2065 59.4694 11.2065 58.6484ZM11.2637 51.5962C11.2637 50.8387 10.978 50.3203 10.4067 50.041C9.83122 49.7575 9.19222 49.6157 8.48975 49.6157C7.85498 49.6157 7.3387 49.7173 6.94092 49.9204C6.31462 50.242 6.00146 50.7964 6.00146 51.5835C6.00146 52.2817 6.26807 52.7896 6.80127 53.1069C7.33447 53.4243 7.9777 53.583 8.73096 53.583C9.45459 53.583 10.0576 53.4243 10.54 53.1069C11.0225 52.7896 11.2637 52.286 11.2637 51.5962ZM5.00488 51.5518C5.00488 50.6758 5.29688 49.9352 5.88086 49.3301C6.46484 48.7249 7.32389 48.4224 8.45801 48.4224C9.55404 48.4224 10.4596 48.689 11.1748 49.2222C11.89 49.7554 12.2476 50.5827 12.2476 51.7041C12.2476 52.6393 11.9323 53.382 11.3018 53.9321C10.667 54.4823 9.81641 54.7573 8.75 54.7573C7.60742 54.7573 6.69759 54.4674 6.02051 53.8877C5.34342 53.3079 5.00488 52.5293 5.00488 51.5518ZM11.2637 44.3599C11.2637 43.6024 10.978 43.084 10.4067 42.8047C9.83122 42.5212 9.19222 42.3794 8.48975 42.3794C7.85498 42.3794 7.3387 42.481 6.94092 42.6841C6.31462 43.0057 6.00146 43.5601 6.00146 44.3472C6.00146 45.0454 6.26807 45.5532 6.80127 45.8706C7.33447 46.188 7.9777 46.3467 8.73096 46.3467C9.45459 46.3467 10.0576 46.188 10.54 45.8706C11.0225 45.5532 11.2637 45.0496 11.2637 44.3599ZM5.00488 44.3154C5.00488 43.4395 5.29688 42.6989 5.88086 42.0938C6.46484 41.4886 7.32389 41.186 8.45801 41.186C9.55404 41.186 10.4596 41.4526 11.1748 41.9858C11.89 42.519 12.2476 43.3464 12.2476 44.4678C12.2476 45.403 11.9323 46.1457 11.3018 46.6958C10.667 47.2459 9.81641 47.521 8.75 47.521C7.60742 47.521 6.69759 47.2311 6.02051 46.6514C5.34342 46.0716 5.00488 45.293 5.00488 44.3154ZM2.67529 39.8467V38.7485H8.08984L5.20166 35.8159V34.356L7.74707 36.9585L12 34.21V35.6699L8.57227 37.79L9.44824 38.7485H12L12 39.8467H2.67529ZM5.2334 33.3213L5.2334 32.1597H12V33.3213H5.2334ZM2.67529 33.3213V32.1597H3.97021V33.3213H2.67529ZM5.20166 30.4268V29.3413H6.1665C5.76872 29.0197 5.48307 28.679 5.30957 28.3193C5.13607 27.9596 5.04932 27.5597 5.04932 27.1196C5.04932 26.1548 5.38574 25.5031 6.05859 25.1646C6.42676 24.9784 6.95361 24.8853 7.63916 24.8853H12V26.0469H7.71533C7.30062 26.0469 6.96631 26.1082 6.7124 26.231C6.28923 26.4341 6.07764 26.8022 6.07764 27.3354C6.07764 27.6063 6.10514 27.8285 6.16016 28.002C6.25326 28.3151 6.43945 28.5902 6.71875 28.8271C6.94303 29.0176 7.17578 29.1424 7.41699 29.2017C7.65397 29.2567 7.99463 29.2842 8.43896 29.2842H12V30.4268H5.20166ZM5.08105 20.791C5.08105 20.2578 5.21224 19.7923 5.47461 19.3945C5.62272 19.1787 5.83854 18.9587 6.12207 18.7344H5.26514V17.6807H11.4478C12.311 17.6807 12.9924 17.8076 13.4917 18.0615C14.4142 18.5355 14.8755 19.4305 14.8755 20.7466C14.8755 21.4787 14.7104 22.0944 14.3804 22.5938C14.0545 23.0931 13.5425 23.3724 12.8442 23.4316L12.8442 22.27C13.1489 22.215 13.3838 22.105 13.5488 21.9399C13.8027 21.6818 13.9297 21.2756 13.9297 20.7212C13.9297 19.8452 13.6208 19.2718 13.0029 19.001C12.639 18.8402 11.9894 18.7661 11.0542 18.7788C11.4012 19.0073 11.6593 19.2824 11.8286 19.604C11.9979 19.9256 12.0825 20.3509 12.0825 20.8799C12.0825 21.6162 11.8223 22.2616 11.3018 22.8159C10.777 23.366 9.91162 23.6411 8.70557 23.6411C7.56722 23.6411 6.67855 23.3639 6.03955 22.8096C5.40055 22.251 5.08105 21.5781 5.08105 20.791ZM8.57227 18.7344C7.73014 18.7344 7.10596 18.9079 6.69971 19.2549C6.29346 19.6019 6.09033 20.0441 6.09033 20.5815C6.09033 21.3856 6.46696 21.9357 7.22021 22.2319C7.62223 22.3885 8.14909 22.4668 8.80078 22.4668C9.56673 22.4668 10.1507 22.3123 10.5527 22.0034C10.9505 21.6903 11.1494 21.2713 11.1494 20.7466C11.1494 19.9256 10.7791 19.348 10.0386 19.0137C9.61963 18.8275 9.13086 18.7344 8.57227 18.7344ZM9.86719 15.2749C10.248 15.241 10.54 15.1458 10.7432 14.9893C11.1113 14.7015 11.2954 14.2021 11.2954 13.4912C11.2954 13.068 11.2044 12.6956 11.0225 12.374C10.8363 12.0524 10.5506 11.8916 10.1655 11.8916C9.87354 11.8916 9.65137 12.0207 9.49902 12.2788C9.40592 12.4438 9.29801 12.7697 9.17529 13.2563L8.94678 14.1641C8.8029 14.7438 8.64209 15.1712 8.46436 15.4463C8.15544 15.9372 7.72803 16.1826 7.18213 16.1826C6.5389 16.1826 6.01839 15.952 5.62061 15.4907C5.22282 15.0252 5.02393 14.401 5.02393 13.6182C5.02393 12.5941 5.32438 11.8556 5.92529 11.4028C6.30615 11.1193 6.71663 10.9818 7.15674 10.9902V12.0693C6.8986 12.0905 6.66374 12.1815 6.45215 12.3423C6.15169 12.6047 6.00146 13.0596 6.00146 13.707C6.00146 14.1387 6.08398 14.4666 6.24902 14.6909C6.41406 14.911 6.632 15.021 6.90283 15.021C7.19906 15.021 7.43604 14.875 7.61377 14.583C7.71956 14.4137 7.81266 14.1641 7.89307 13.834L8.07715 13.0786C8.27604 12.2576 8.46859 11.7075 8.65479 11.4282C8.94678 10.9839 9.40592 10.7617 10.0322 10.7617C10.6374 10.7617 11.16 10.9924 11.6001 11.4536C12.0402 11.9106 12.2603 12.6089 12.2603 13.5483C12.2603 14.5597 12.0317 15.277 11.5747 15.7002C11.1134 16.1191 10.5443 16.3434 9.86719 16.373V15.2749Z" fill="black"/>
</svg>
