<svg width="285" height="130" viewBox="0 0 285 130" fill="none" xmlns="http://www.w3.org/2000/svg">
<circle cx="65" cy="65" r="60" stroke="#3646F5" stroke-width="10"/>
<mask id="path-2-inside-1_264_5" fill="white">
<path d="M65 130C73.5359 130 81.9883 128.319 89.8744 125.052C97.7606 121.786 104.926 116.998 110.962 110.962C116.998 104.926 121.786 97.7606 125.052 89.8744C128.319 81.9883 130 73.5359 130 65C130 56.4641 128.319 48.0117 125.052 40.1256C121.786 32.2394 116.998 25.0739 110.962 19.0381C104.926 13.0022 97.7606 8.21438 89.8744 4.94783C81.9883 1.68127 73.5359 -7.46234e-07 65 0V10.333C72.179 10.333 79.2876 11.747 85.9201 14.4943C92.5526 17.2416 98.5791 21.2683 103.655 26.3446C108.732 31.4209 112.758 37.4474 115.506 44.0799C118.253 50.7124 119.667 57.821 119.667 65C119.667 72.179 118.253 79.2876 115.506 85.9201C112.758 92.5526 108.732 98.5791 103.655 103.655C98.5791 108.732 92.5526 112.758 85.9201 115.506C79.2876 118.253 72.179 119.667 65 119.667V130Z"/>
</mask>
<path d="M65 130C73.5359 130 81.9883 128.319 89.8744 125.052C97.7606 121.786 104.926 116.998 110.962 110.962C116.998 104.926 121.786 97.7606 125.052 89.8744C128.319 81.9883 130 73.5359 130 65C130 56.4641 128.319 48.0117 125.052 40.1256C121.786 32.2394 116.998 25.0739 110.962 19.0381C104.926 13.0022 97.7606 8.21438 89.8744 4.94783C81.9883 1.68127 73.5359 -7.46234e-07 65 0V10.333C72.179 10.333 79.2876 11.747 85.9201 14.4943C92.5526 17.2416 98.5791 21.2683 103.655 26.3446C108.732 31.4209 112.758 37.4474 115.506 44.0799C118.253 50.7124 119.667 57.821 119.667 65C119.667 72.179 118.253 79.2876 115.506 85.9201C112.758 92.5526 108.732 98.5791 103.655 103.655C98.5791 108.732 92.5526 112.758 85.9201 115.506C79.2876 118.253 72.179 119.667 65 119.667V130Z" stroke="#E30A0A" stroke-width="20" mask="url(#path-2-inside-1_264_5)"/>
<circle cx="181" cy="20" r="5" fill="#3646F5"/>
<circle cx="181" cy="46" r="5" fill="#E30A0A"/>
<path d="M203.1 15.1582C204.619 15.1582 205.744 15.6465 206.475 16.623C207.045 17.3848 207.33 18.3594 207.33 19.5469C207.33 20.832 207.004 21.9004 206.352 22.752C205.586 23.752 204.494 24.252 203.076 24.252C201.752 24.252 200.711 23.8145 199.953 22.9395C199.277 22.0957 198.939 21.0293 198.939 19.7402C198.939 18.5762 199.229 17.5801 199.807 16.752C200.549 15.6895 201.646 15.1582 203.1 15.1582ZM203.217 23.209C204.244 23.209 204.986 22.8418 205.443 22.1074C205.904 21.3691 206.135 20.5215 206.135 19.5645C206.135 18.5527 205.869 17.7383 205.338 17.1211C204.811 16.5039 204.088 16.1953 203.17 16.1953C202.279 16.1953 201.553 16.502 200.99 17.1152C200.428 17.7246 200.146 18.625 200.146 19.8164C200.146 20.7695 200.387 21.5742 200.867 22.2305C201.352 22.8828 202.135 23.209 203.217 23.209ZM211.232 23.291C211.725 23.291 212.133 23.0859 212.457 22.6758C212.785 22.2617 212.949 21.6445 212.949 20.8242C212.949 20.3242 212.877 19.8945 212.732 19.5352C212.459 18.8438 211.959 18.498 211.232 18.498C210.502 18.498 210.002 18.8633 209.732 19.5938C209.588 19.9844 209.516 20.4805 209.516 21.082C209.516 21.5664 209.588 21.9785 209.732 22.3184C210.006 22.9668 210.506 23.291 211.232 23.291ZM208.502 17.7539H209.527V18.5859C209.738 18.3008 209.969 18.0801 210.219 17.9238C210.574 17.6895 210.992 17.5723 211.473 17.5723C212.184 17.5723 212.787 17.8457 213.283 18.3926C213.779 18.9355 214.027 19.7129 214.027 20.7246C214.027 22.0918 213.67 23.0684 212.955 23.6543C212.502 24.0254 211.975 24.2109 211.373 24.2109C210.9 24.2109 210.504 24.1074 210.184 23.9004C209.996 23.7832 209.787 23.582 209.557 23.2969V26.502H208.502V17.7539ZM215.475 15.9727H216.541V17.7246H217.543V18.5859H216.541V22.6816C216.541 22.9004 216.615 23.0469 216.764 23.1211C216.846 23.1641 216.982 23.1855 217.174 23.1855C217.225 23.1855 217.279 23.1855 217.338 23.1855C217.396 23.1816 217.465 23.1758 217.543 23.168V24C217.422 24.0352 217.295 24.0605 217.162 24.0762C217.033 24.0918 216.893 24.0996 216.74 24.0996C216.248 24.0996 215.914 23.9746 215.738 23.7246C215.562 23.4707 215.475 23.1426 215.475 22.7402V18.5859H214.625V17.7246H215.475V15.9727ZM218.604 17.7539H219.676V24H218.604V17.7539ZM218.604 15.3926H219.676V16.5879H218.604V15.3926ZM221.275 17.7246H222.318V18.6152C222.568 18.3066 222.795 18.082 222.998 17.9414C223.346 17.7031 223.74 17.584 224.182 17.584C224.682 17.584 225.084 17.707 225.389 17.9531C225.561 18.0938 225.717 18.3008 225.857 18.5742C226.092 18.2383 226.367 17.9902 226.684 17.8301C227 17.666 227.355 17.584 227.75 17.584C228.594 17.584 229.168 17.8887 229.473 18.498C229.637 18.8262 229.719 19.2676 229.719 19.8223V24H228.623V19.6406C228.623 19.2227 228.518 18.9355 228.307 18.7793C228.1 18.623 227.846 18.5449 227.545 18.5449C227.131 18.5449 226.773 18.6836 226.473 18.9609C226.176 19.2383 226.027 19.7012 226.027 20.3496V24H224.955V19.9043C224.955 19.4785 224.904 19.168 224.803 18.9727C224.643 18.6797 224.344 18.5332 223.906 18.5332C223.508 18.5332 223.145 18.6875 222.816 18.9961C222.492 19.3047 222.33 19.8633 222.33 20.6719V24H221.275V17.7246ZM231.271 17.7539H232.344V24H231.271V17.7539ZM231.271 15.3926H232.344V16.5879H231.271V15.3926ZM233.475 23.168L237.195 18.668H233.75V17.7246H238.613V18.5859L234.916 23.0566H238.725V24H233.475V23.168ZM242.557 17.584C243.002 17.584 243.434 17.6895 243.852 17.9004C244.27 18.1074 244.588 18.377 244.807 18.709C245.018 19.0254 245.158 19.3945 245.229 19.8164C245.291 20.1055 245.322 20.5664 245.322 21.1992H240.723C240.742 21.8359 240.893 22.3477 241.174 22.7344C241.455 23.1172 241.891 23.3086 242.48 23.3086C243.031 23.3086 243.471 23.127 243.799 22.7637C243.986 22.5527 244.119 22.3086 244.197 22.0312H245.234C245.207 22.2617 245.115 22.5195 244.959 22.8047C244.807 23.0859 244.635 23.3164 244.443 23.4961C244.123 23.8086 243.727 24.0195 243.254 24.1289C243 24.1914 242.713 24.2227 242.393 24.2227C241.611 24.2227 240.949 23.9395 240.406 23.373C239.863 22.8027 239.592 22.0059 239.592 20.9824C239.592 19.9746 239.865 19.1562 240.412 18.5273C240.959 17.8984 241.674 17.584 242.557 17.584ZM244.238 20.3613C244.195 19.9043 244.096 19.5391 243.939 19.2656C243.65 18.7578 243.168 18.5039 242.492 18.5039C242.008 18.5039 241.602 18.6797 241.273 19.0312C240.945 19.3789 240.771 19.8223 240.752 20.3613H244.238ZM247.291 20.9355C247.291 21.6074 247.434 22.1699 247.719 22.623C248.004 23.0762 248.461 23.3027 249.09 23.3027C249.578 23.3027 249.979 23.0938 250.291 22.6758C250.607 22.2539 250.766 21.6504 250.766 20.8652C250.766 20.0723 250.604 19.4863 250.279 19.1074C249.955 18.7246 249.555 18.5332 249.078 18.5332C248.547 18.5332 248.115 18.7363 247.783 19.1426C247.455 19.5488 247.291 20.1465 247.291 20.9355ZM248.879 17.6133C249.359 17.6133 249.762 17.7148 250.086 17.918C250.273 18.0352 250.486 18.2402 250.725 18.5332V15.3633H251.738V24H250.789V23.127C250.543 23.5137 250.252 23.793 249.916 23.9648C249.58 24.1367 249.195 24.2227 248.762 24.2227C248.062 24.2227 247.457 23.9297 246.945 23.3438C246.434 22.7539 246.178 21.9707 246.178 20.9941C246.178 20.0801 246.41 19.2891 246.875 18.6211C247.344 17.9492 248.012 17.6133 248.879 17.6133Z" fill="black"/>
<path d="M37.8105 86.2227C37.8379 86.7109 37.9531 87.1074 38.1562 87.4121C38.543 87.9824 39.2246 88.2676 40.2012 88.2676C40.6387 88.2676 41.0371 88.2051 41.3965 88.0801C42.0918 87.8379 42.4395 87.4043 42.4395 86.7793C42.4395 86.3105 42.293 85.9766 42 85.7773C41.7031 85.582 41.2383 85.4121 40.6055 85.2676L39.4395 85.0039C38.6777 84.832 38.1387 84.6426 37.8223 84.4355C37.2754 84.0762 37.002 83.5391 37.002 82.8242C37.002 82.0508 37.2695 81.416 37.8047 80.9199C38.3398 80.4238 39.0977 80.1758 40.0781 80.1758C40.9805 80.1758 41.7461 80.3945 42.375 80.832C43.0078 81.2656 43.3242 81.9609 43.3242 82.918H42.2285C42.1699 82.457 42.0449 82.1035 41.8535 81.8574C41.498 81.4082 40.8945 81.1836 40.043 81.1836C39.3555 81.1836 38.8613 81.3281 38.5605 81.6172C38.2598 81.9062 38.1094 82.2422 38.1094 82.625C38.1094 83.0469 38.2852 83.3555 38.6367 83.5508C38.8672 83.6758 39.3887 83.832 40.2012 84.0195L41.4082 84.2949C41.9902 84.4277 42.4395 84.6094 42.7559 84.8398C43.3027 85.2422 43.5762 85.8262 43.5762 86.5918C43.5762 87.5449 43.2285 88.2266 42.5332 88.6367C41.8418 89.0469 41.0371 89.252 40.1191 89.252C39.0488 89.252 38.2109 88.9785 37.6055 88.4316C37 87.8887 36.7031 87.1523 36.7148 86.2227H37.8105ZM44.9121 80.3633H45.9668V83.5742C46.2168 83.2578 46.4414 83.0352 46.6406 82.9062C46.9805 82.6836 47.4043 82.5723 47.9121 82.5723C48.8223 82.5723 49.4395 82.8906 49.7637 83.5273C49.9395 83.875 50.0273 84.3574 50.0273 84.9746V89H48.9434V85.0449C48.9434 84.584 48.8848 84.2461 48.7676 84.0312C48.5762 83.6875 48.2168 83.5156 47.6895 83.5156C47.252 83.5156 46.8555 83.666 46.5 83.9668C46.1445 84.2676 45.9668 84.8359 45.9668 85.6719V89H44.9121V80.3633ZM51.5918 82.7539H52.6641V89H51.5918V82.7539ZM51.5918 80.3926H52.6641V81.5879H51.5918V80.3926ZM56.9121 88.291C57.4043 88.291 57.8125 88.0859 58.1367 87.6758C58.4648 87.2617 58.6289 86.6445 58.6289 85.8242C58.6289 85.3242 58.5566 84.8945 58.4121 84.5352C58.1387 83.8438 57.6387 83.498 56.9121 83.498C56.1816 83.498 55.6816 83.8633 55.4121 84.5938C55.2676 84.9844 55.1953 85.4805 55.1953 86.082C55.1953 86.5664 55.2676 86.9785 55.4121 87.3184C55.6855 87.9668 56.1855 88.291 56.9121 88.291ZM54.1816 82.7539H55.207V83.5859C55.418 83.3008 55.6484 83.0801 55.8984 82.9238C56.2539 82.6895 56.6719 82.5723 57.1523 82.5723C57.8633 82.5723 58.4668 82.8457 58.9629 83.3926C59.459 83.9355 59.707 84.7129 59.707 85.7246C59.707 87.0918 59.3496 88.0684 58.6348 88.6543C58.1816 89.0254 57.6543 89.2109 57.0527 89.2109C56.5801 89.2109 56.1836 89.1074 55.8633 88.9004C55.6758 88.7832 55.4668 88.582 55.2363 88.2969V91.502H54.1816V82.7539ZM60.9434 82.7246H61.9863V83.6152C62.2363 83.3066 62.4629 83.082 62.666 82.9414C63.0137 82.7031 63.4082 82.584 63.8496 82.584C64.3496 82.584 64.752 82.707 65.0566 82.9531C65.2285 83.0938 65.3848 83.3008 65.5254 83.5742C65.7598 83.2383 66.0352 82.9902 66.3516 82.8301C66.668 82.666 67.0234 82.584 67.418 82.584C68.2617 82.584 68.8359 82.8887 69.1406 83.498C69.3047 83.8262 69.3867 84.2676 69.3867 84.8223V89H68.291V84.6406C68.291 84.2227 68.1855 83.9355 67.9746 83.7793C67.7676 83.623 67.5137 83.5449 67.2129 83.5449C66.7988 83.5449 66.4414 83.6836 66.1406 83.9609C65.8438 84.2383 65.6953 84.7012 65.6953 85.3496V89H64.623V84.9043C64.623 84.4785 64.5723 84.168 64.4707 83.9727C64.3105 83.6797 64.0117 83.5332 63.5742 83.5332C63.1758 83.5332 62.8125 83.6875 62.4844 83.9961C62.1602 84.3047 61.998 84.8633 61.998 85.6719V89H60.9434V82.7246ZM73.5527 82.584C73.998 82.584 74.4297 82.6895 74.8477 82.9004C75.2656 83.1074 75.584 83.377 75.8027 83.709C76.0137 84.0254 76.1543 84.3945 76.2246 84.8164C76.2871 85.1055 76.3184 85.5664 76.3184 86.1992H71.7188C71.7383 86.8359 71.8887 87.3477 72.1699 87.7344C72.4512 88.1172 72.8867 88.3086 73.4766 88.3086C74.0273 88.3086 74.4668 88.127 74.7949 87.7637C74.9824 87.5527 75.1152 87.3086 75.1934 87.0312H76.2305C76.2031 87.2617 76.1113 87.5195 75.9551 87.8047C75.8027 88.0859 75.6309 88.3164 75.4395 88.4961C75.1191 88.8086 74.7227 89.0195 74.25 89.1289C73.9961 89.1914 73.709 89.2227 73.3887 89.2227C72.6074 89.2227 71.9453 88.9395 71.4023 88.373C70.8594 87.8027 70.5879 87.0059 70.5879 85.9824C70.5879 84.9746 70.8613 84.1562 71.4082 83.5273C71.9551 82.8984 72.6699 82.584 73.5527 82.584ZM75.2344 85.3613C75.1914 84.9043 75.0918 84.5391 74.9355 84.2656C74.6465 83.7578 74.1641 83.5039 73.4883 83.5039C73.0039 83.5039 72.5977 83.6797 72.2695 84.0312C71.9414 84.3789 71.7676 84.8223 71.748 85.3613H75.2344ZM77.6191 82.7246H78.6211V83.6152C78.918 83.248 79.2324 82.9844 79.5645 82.8242C79.8965 82.6641 80.2656 82.584 80.6719 82.584C81.5625 82.584 82.1641 82.8945 82.4766 83.5156C82.6484 83.8555 82.7344 84.3418 82.7344 84.9746V89H81.6621V85.0449C81.6621 84.6621 81.6055 84.3535 81.4922 84.1191C81.3047 83.7285 80.9648 83.5332 80.4727 83.5332C80.2227 83.5332 80.0176 83.5586 79.8574 83.6094C79.5684 83.6953 79.3145 83.8672 79.0957 84.125C78.9199 84.332 78.8047 84.5469 78.75 84.7695C78.6992 84.9883 78.6738 85.3027 78.6738 85.7129V89H77.6191V82.7246ZM84.5098 80.9727H85.5762V82.7246H86.5781V83.5859H85.5762V87.6816C85.5762 87.9004 85.6504 88.0469 85.7988 88.1211C85.8809 88.1641 86.0176 88.1855 86.209 88.1855C86.2598 88.1855 86.3145 88.1855 86.373 88.1855C86.4316 88.1816 86.5 88.1758 86.5781 88.168V89C86.457 89.0352 86.3301 89.0605 86.1973 89.0762C86.0684 89.0918 85.9277 89.0996 85.7754 89.0996C85.2832 89.0996 84.9492 88.9746 84.7734 88.7246C84.5977 88.4707 84.5098 88.1426 84.5098 87.7402V83.5859H83.6602V82.7246H84.5098V80.9727ZM88.2656 87.0312C88.2969 87.3828 88.3848 87.6523 88.5293 87.8398C88.7949 88.1797 89.2559 88.3496 89.9121 88.3496C90.3027 88.3496 90.6465 88.2656 90.9434 88.0977C91.2402 87.9258 91.3887 87.6621 91.3887 87.3066C91.3887 87.0371 91.2695 86.832 91.0312 86.6914C90.8789 86.6055 90.5781 86.5059 90.1289 86.3926L89.291 86.1816C88.7559 86.0488 88.3613 85.9004 88.1074 85.7363C87.6543 85.4512 87.4277 85.0566 87.4277 84.5527C87.4277 83.959 87.6406 83.4785 88.0664 83.1113C88.4961 82.7441 89.0723 82.5605 89.7949 82.5605C90.7402 82.5605 91.4219 82.8379 91.8398 83.3926C92.1016 83.7441 92.2285 84.123 92.2207 84.5293H91.2246C91.2051 84.291 91.1211 84.0742 90.9727 83.8789C90.7305 83.6016 90.3105 83.4629 89.7129 83.4629C89.3145 83.4629 89.0117 83.5391 88.8047 83.6914C88.6016 83.8438 88.5 84.0449 88.5 84.2949C88.5 84.5684 88.6348 84.7871 88.9043 84.9512C89.0605 85.0488 89.291 85.1348 89.5957 85.209L90.293 85.3789C91.0508 85.5625 91.5586 85.7402 91.8164 85.9121C92.2266 86.1816 92.4316 86.6055 92.4316 87.1836C92.4316 87.7422 92.2188 88.2246 91.793 88.6309C91.3711 89.0371 90.7266 89.2402 89.8594 89.2402C88.9258 89.2402 88.2637 89.0293 87.873 88.6074C87.4863 88.1816 87.2793 87.6562 87.252 87.0312H88.2656Z" fill="black"/>
<path d="M54.1055 55.7227C54.2461 56.9258 54.8047 57.7578 55.7812 58.2188C56.2812 58.4531 56.8594 58.5703 57.5156 58.5703C58.7656 58.5703 59.6914 58.1719 60.293 57.375C60.8945 56.5781 61.1953 55.6953 61.1953 54.7266C61.1953 53.5547 60.8359 52.6484 60.1172 52.0078C59.4062 51.3672 58.5508 51.0469 57.5508 51.0469C56.8242 51.0469 56.1992 51.1875 55.6758 51.4688C55.1602 51.75 54.7188 52.1406 54.3516 52.6406L52.5234 52.5352L53.8008 43.5H62.5195V45.5391H55.3828L54.668 50.2031C55.0586 49.9062 55.4297 49.6836 55.7812 49.5352C56.4062 49.2773 57.1289 49.1484 57.9492 49.1484C59.4883 49.1484 60.793 49.6445 61.8633 50.6367C62.9336 51.6289 63.4688 52.8867 63.4688 54.4102C63.4688 55.9961 62.9766 57.3945 61.9922 58.6055C61.0156 59.8164 59.4531 60.4219 57.3047 60.4219C55.9375 60.4219 54.7266 60.0391 53.6719 59.2734C52.625 58.5 52.0391 57.3164 51.9141 55.7227H54.1055ZM70.9922 43.2188C73.1641 43.2188 74.7344 44.1133 75.7031 45.9023C76.4531 47.2852 76.8281 49.1797 76.8281 51.5859C76.8281 53.8672 76.4883 55.7539 75.8086 57.2461C74.8242 59.3867 73.2148 60.457 70.9805 60.457C68.9648 60.457 67.4648 59.582 66.4805 57.832C65.6602 56.3711 65.25 54.4102 65.25 51.9492C65.25 50.043 65.4961 48.4062 65.9883 47.0391C66.9102 44.4922 68.5781 43.2188 70.9922 43.2188ZM70.9688 58.5352C72.0625 58.5352 72.9336 58.0508 73.582 57.082C74.2305 56.1133 74.5547 54.3086 74.5547 51.668C74.5547 49.7617 74.3203 48.1953 73.8516 46.9688C73.3828 45.7344 72.4727 45.1172 71.1211 45.1172C69.8789 45.1172 68.9688 45.7031 68.3906 46.875C67.8203 48.0391 67.5352 49.7578 67.5352 52.0312C67.5352 53.7422 67.7188 55.1172 68.0859 56.1562C68.6484 57.7422 69.6094 58.5352 70.9688 58.5352Z" fill="black"/>
<path d="M199.324 41.3926H200.994L203.467 48.6699L205.922 41.3926H207.574V50H206.467V44.9199C206.467 44.7441 206.471 44.4531 206.479 44.0469C206.486 43.6406 206.49 43.2051 206.49 42.7402L204.035 50H202.881L200.408 42.7402V43.0039C200.408 43.2148 200.412 43.5371 200.42 43.9707C200.432 44.4004 200.438 44.7168 200.438 44.9199V50H199.324V41.3926ZM210.018 48.3301C210.018 48.6348 210.129 48.875 210.352 49.0508C210.574 49.2266 210.838 49.3145 211.143 49.3145C211.514 49.3145 211.873 49.2285 212.221 49.0566C212.807 48.7715 213.1 48.3047 213.1 47.6562V46.8066C212.971 46.8887 212.805 46.957 212.602 47.0117C212.398 47.0664 212.199 47.1055 212.004 47.1289L211.365 47.2109C210.982 47.2617 210.695 47.3418 210.504 47.4512C210.18 47.6348 210.018 47.9277 210.018 48.3301ZM212.572 46.1973C212.814 46.166 212.977 46.0645 213.059 45.8926C213.105 45.7988 213.129 45.6641 213.129 45.4883C213.129 45.1289 213 44.8691 212.742 44.709C212.488 44.5449 212.123 44.4629 211.646 44.4629C211.096 44.4629 210.705 44.6113 210.475 44.9082C210.346 45.0723 210.262 45.3164 210.223 45.6406H209.238C209.258 44.8672 209.508 44.3301 209.988 44.0293C210.473 43.7246 211.033 43.5723 211.67 43.5723C212.408 43.5723 213.008 43.7129 213.469 43.9941C213.926 44.2754 214.154 44.7129 214.154 45.3066V48.9219C214.154 49.0312 214.176 49.1191 214.219 49.1855C214.266 49.252 214.361 49.2852 214.506 49.2852C214.553 49.2852 214.605 49.2832 214.664 49.2793C214.723 49.2715 214.785 49.2617 214.852 49.25V50.0293C214.688 50.0762 214.562 50.1055 214.477 50.1172C214.391 50.1289 214.273 50.1348 214.125 50.1348C213.762 50.1348 213.498 50.0059 213.334 49.748C213.248 49.6113 213.188 49.418 213.152 49.168C212.938 49.4492 212.629 49.6934 212.227 49.9004C211.824 50.1074 211.381 50.2109 210.896 50.2109C210.314 50.2109 209.838 50.0352 209.467 49.6836C209.1 49.3281 208.916 48.8848 208.916 48.3535C208.916 47.7715 209.098 47.3203 209.461 47C209.824 46.6797 210.301 46.4824 210.891 46.4082L212.572 46.1973ZM215.889 43.7246H216.891V44.6152C217.188 44.248 217.502 43.9844 217.834 43.8242C218.166 43.6641 218.535 43.584 218.941 43.584C219.832 43.584 220.434 43.8945 220.746 44.5156C220.918 44.8555 221.004 45.3418 221.004 45.9746V50H219.932V46.0449C219.932 45.6621 219.875 45.3535 219.762 45.1191C219.574 44.7285 219.234 44.5332 218.742 44.5332C218.492 44.5332 218.287 44.5586 218.127 44.6094C217.838 44.6953 217.584 44.8672 217.365 45.125C217.189 45.332 217.074 45.5469 217.02 45.7695C216.969 45.9883 216.943 46.3027 216.943 46.7129V50H215.889V43.7246ZM223.623 43.7246V47.8906C223.623 48.2109 223.674 48.4727 223.775 48.6758C223.963 49.0508 224.312 49.2383 224.824 49.2383C225.559 49.2383 226.059 48.9102 226.324 48.2539C226.469 47.9023 226.541 47.4199 226.541 46.8066V43.7246H227.596V50H226.6L226.611 49.0742C226.475 49.3125 226.305 49.5137 226.102 49.6777C225.699 50.0059 225.211 50.1699 224.637 50.1699C223.742 50.1699 223.133 49.8711 222.809 49.2734C222.633 48.9531 222.545 48.5254 222.545 47.9902V43.7246H223.623ZM230.057 48.3301C230.057 48.6348 230.168 48.875 230.391 49.0508C230.613 49.2266 230.877 49.3145 231.182 49.3145C231.553 49.3145 231.912 49.2285 232.26 49.0566C232.846 48.7715 233.139 48.3047 233.139 47.6562V46.8066C233.01 46.8887 232.844 46.957 232.641 47.0117C232.438 47.0664 232.238 47.1055 232.043 47.1289L231.404 47.2109C231.021 47.2617 230.734 47.3418 230.543 47.4512C230.219 47.6348 230.057 47.9277 230.057 48.3301ZM232.611 46.1973C232.854 46.166 233.016 46.0645 233.098 45.8926C233.145 45.7988 233.168 45.6641 233.168 45.4883C233.168 45.1289 233.039 44.8691 232.781 44.709C232.527 44.5449 232.162 44.4629 231.686 44.4629C231.135 44.4629 230.744 44.6113 230.514 44.9082C230.385 45.0723 230.301 45.3164 230.262 45.6406H229.277C229.297 44.8672 229.547 44.3301 230.027 44.0293C230.512 43.7246 231.072 43.5723 231.709 43.5723C232.447 43.5723 233.047 43.7129 233.508 43.9941C233.965 44.2754 234.193 44.7129 234.193 45.3066V48.9219C234.193 49.0312 234.215 49.1191 234.258 49.1855C234.305 49.252 234.4 49.2852 234.545 49.2852C234.592 49.2852 234.645 49.2832 234.703 49.2793C234.762 49.2715 234.824 49.2617 234.891 49.25V50.0293C234.727 50.0762 234.602 50.1055 234.516 50.1172C234.43 50.1289 234.312 50.1348 234.164 50.1348C233.801 50.1348 233.537 50.0059 233.373 49.748C233.287 49.6113 233.227 49.418 233.191 49.168C232.977 49.4492 232.668 49.6934 232.266 49.9004C231.863 50.1074 231.42 50.2109 230.936 50.2109C230.354 50.2109 229.877 50.0352 229.506 49.6836C229.139 49.3281 228.955 48.8848 228.955 48.3535C228.955 47.7715 229.137 47.3203 229.5 47C229.863 46.6797 230.34 46.4824 230.93 46.4082L232.611 46.1973ZM235.957 41.3926H237.012V50H235.957V41.3926ZM245.314 45.0312C245.807 45.0312 246.189 44.9629 246.463 44.8262C246.893 44.6113 247.107 44.2246 247.107 43.666C247.107 43.1035 246.879 42.7246 246.422 42.5293C246.164 42.4199 245.781 42.3652 245.273 42.3652H243.193V45.0312H245.314ZM245.707 49.0039C246.422 49.0039 246.932 48.7969 247.236 48.3828C247.428 48.1211 247.523 47.8047 247.523 47.4336C247.523 46.8086 247.244 46.3828 246.686 46.1562C246.389 46.0352 245.996 45.9746 245.508 45.9746H243.193V49.0039H245.707ZM242.051 41.3926H245.748C246.756 41.3926 247.473 41.6934 247.898 42.2949C248.148 42.6504 248.273 43.0605 248.273 43.5254C248.273 44.0684 248.119 44.5137 247.811 44.8613C247.65 45.0449 247.42 45.2129 247.119 45.3652C247.561 45.5332 247.891 45.7227 248.109 45.9336C248.496 46.3086 248.689 46.8262 248.689 47.4863C248.689 48.041 248.516 48.543 248.168 48.9922C247.648 49.6641 246.822 50 245.689 50H242.051V41.3926ZM252.434 49.3203C253.133 49.3203 253.611 49.0566 253.869 48.5293C254.131 47.998 254.262 47.4082 254.262 46.7598C254.262 46.1738 254.168 45.6973 253.98 45.3301C253.684 44.752 253.172 44.4629 252.445 44.4629C251.801 44.4629 251.332 44.709 251.039 45.2012C250.746 45.6934 250.6 46.2871 250.6 46.9824C250.6 47.6504 250.746 48.207 251.039 48.6523C251.332 49.0977 251.797 49.3203 252.434 49.3203ZM252.475 43.543C253.283 43.543 253.967 43.8125 254.525 44.3516C255.084 44.8906 255.363 45.6836 255.363 46.7305C255.363 47.7422 255.117 48.5781 254.625 49.2383C254.133 49.8984 253.369 50.2285 252.334 50.2285C251.471 50.2285 250.785 49.9375 250.277 49.3555C249.77 48.7695 249.516 47.9844 249.516 47C249.516 45.9453 249.783 45.1055 250.318 44.4805C250.854 43.8555 251.572 43.543 252.475 43.543ZM259.113 49.3203C259.812 49.3203 260.291 49.0566 260.549 48.5293C260.811 47.998 260.941 47.4082 260.941 46.7598C260.941 46.1738 260.848 45.6973 260.66 45.3301C260.363 44.752 259.852 44.4629 259.125 44.4629C258.48 44.4629 258.012 44.709 257.719 45.2012C257.426 45.6934 257.279 46.2871 257.279 46.9824C257.279 47.6504 257.426 48.207 257.719 48.6523C258.012 49.0977 258.477 49.3203 259.113 49.3203ZM259.154 43.543C259.963 43.543 260.646 43.8125 261.205 44.3516C261.764 44.8906 262.043 45.6836 262.043 46.7305C262.043 47.7422 261.797 48.5781 261.305 49.2383C260.812 49.8984 260.049 50.2285 259.014 50.2285C258.15 50.2285 257.465 49.9375 256.957 49.3555C256.449 48.7695 256.195 47.9844 256.195 47C256.195 45.9453 256.463 45.1055 256.998 44.4805C257.533 43.8555 258.252 43.543 259.154 43.543ZM263.279 41.3926H264.293V46.3906L267 43.7246H268.348L265.945 46.0742L268.482 50H267.135L265.178 46.8359L264.293 47.6445V50H263.279V41.3926ZM269.303 43.7539H270.375V50H269.303V43.7539ZM269.303 41.3926H270.375V42.5879H269.303V41.3926ZM271.975 43.7246H272.977V44.6152C273.273 44.248 273.588 43.9844 273.92 43.8242C274.252 43.6641 274.621 43.584 275.027 43.584C275.918 43.584 276.52 43.8945 276.832 44.5156C277.004 44.8555 277.09 45.3418 277.09 45.9746V50H276.018V46.0449C276.018 45.6621 275.961 45.3535 275.848 45.1191C275.66 44.7285 275.32 44.5332 274.828 44.5332C274.578 44.5332 274.373 44.5586 274.213 44.6094C273.924 44.6953 273.67 44.8672 273.451 45.125C273.275 45.332 273.16 45.5469 273.105 45.7695C273.055 45.9883 273.029 46.3027 273.029 46.7129V50H271.975V43.7246ZM280.869 43.6133C281.361 43.6133 281.791 43.7344 282.158 43.9766C282.357 44.1133 282.561 44.3125 282.768 44.5742V43.7832H283.74V49.4902C283.74 50.2871 283.623 50.916 283.389 51.377C282.951 52.2285 282.125 52.6543 280.91 52.6543C280.234 52.6543 279.666 52.502 279.205 52.1973C278.744 51.8965 278.486 51.4238 278.432 50.7793H279.504C279.555 51.0605 279.656 51.2773 279.809 51.4297C280.047 51.6641 280.422 51.7812 280.934 51.7812C281.742 51.7812 282.271 51.4961 282.521 50.9258C282.67 50.5898 282.738 49.9902 282.727 49.127C282.516 49.4473 282.262 49.6855 281.965 49.8418C281.668 49.998 281.275 50.0762 280.787 50.0762C280.107 50.0762 279.512 49.8359 279 49.3555C278.492 48.8711 278.238 48.0723 278.238 46.959C278.238 45.9082 278.494 45.0879 279.006 44.498C279.521 43.9082 280.143 43.6133 280.869 43.6133ZM282.768 46.8359C282.768 46.0586 282.607 45.4824 282.287 45.1074C281.967 44.7324 281.559 44.5449 281.062 44.5449C280.32 44.5449 279.812 44.8926 279.539 45.5879C279.395 45.959 279.322 46.4453 279.322 47.0469C279.322 47.7539 279.465 48.293 279.75 48.6641C280.039 49.0312 280.426 49.2148 280.91 49.2148C281.668 49.2148 282.201 48.873 282.51 48.1895C282.682 47.8027 282.768 47.3516 282.768 46.8359Z" fill="black"/>
</svg>
