<svg width="335" height="130" viewBox="0 0 335 130" fill="none" xmlns="http://www.w3.org/2000/svg">
<circle cx="65" cy="65" r="60" stroke="#3646F5" stroke-width="10"/>
<mask id="path-2-inside-1_264_5" fill="white">
<path d="M65 130C73.5359 130 81.9883 128.319 89.8744 125.052C97.7606 121.786 104.926 116.998 110.962 110.962C116.998 104.926 121.786 97.7606 125.052 89.8744C128.319 81.9883 130 73.5359 130 65C130 56.4641 128.319 48.0117 125.052 40.1256C121.786 32.2394 116.998 25.0739 110.962 19.0381C104.926 13.0022 97.7606 8.21438 89.8744 4.94783C81.9883 1.68127 73.5359 -7.46234e-07 65 0V10.333C72.179 10.333 79.2876 11.747 85.9201 14.4943C92.5526 17.2416 98.5791 21.2683 103.655 26.3446C108.732 31.4209 112.758 37.4474 115.506 44.0799C118.253 50.7124 119.667 57.821 119.667 65C119.667 72.179 118.253 79.2876 115.506 85.9201C112.758 92.5526 108.732 98.5791 103.655 103.655C98.5791 108.732 92.5526 112.758 85.9201 115.506C79.2876 118.253 72.179 119.667 65 119.667V130Z"/>
</mask>
<path d="M65 130C73.5359 130 81.9883 128.319 89.8744 125.052C97.7606 121.786 104.926 116.998 110.962 110.962C116.998 104.926 121.786 97.7606 125.052 89.8744C128.319 81.9883 130 73.5359 130 65C130 56.4641 128.319 48.0117 125.052 40.1256C121.786 32.2394 116.998 25.0739 110.962 19.0381C104.926 13.0022 97.7606 8.21438 89.8744 4.94783C81.9883 1.68127 73.5359 -7.46234e-07 65 0V10.333C72.179 10.333 79.2876 11.747 85.9201 14.4943C92.5526 17.2416 98.5791 21.2683 103.655 26.3446C108.732 31.4209 112.758 37.4474 115.506 44.0799C118.253 50.7124 119.667 57.821 119.667 65C119.667 72.179 118.253 79.2876 115.506 85.9201C112.758 92.5526 108.732 98.5791 103.655 103.655C98.5791 108.732 92.5526 112.758 85.9201 115.506C79.2876 118.253 72.179 119.667 65 119.667V130Z" stroke="#E30A0A" stroke-width="20" mask="url(#path-2-inside-1_264_5)"/>
<circle cx="181" cy="20" r="5" fill="#3646F5"/>
<circle cx="181" cy="46" r="5" fill="#E30A0A"/>
<path d="M205.674 15.3926V16.418H202.773V24H201.59V16.418H198.689V15.3926H205.674ZM206.189 17.7246H207.191V18.8086C207.273 18.5977 207.475 18.3418 207.795 18.041C208.115 17.7363 208.484 17.584 208.902 17.584C208.922 17.584 208.955 17.5859 209.002 17.5898C209.049 17.5938 209.129 17.6016 209.242 17.6133V18.7266C209.18 18.7148 209.121 18.707 209.066 18.7031C209.016 18.6992 208.959 18.6973 208.896 18.6973C208.365 18.6973 207.957 18.8691 207.672 19.2129C207.387 19.5527 207.244 19.9453 207.244 20.3906V24H206.189V17.7246ZM210.965 22.3301C210.965 22.6348 211.076 22.875 211.299 23.0508C211.521 23.2266 211.785 23.3145 212.09 23.3145C212.461 23.3145 212.82 23.2285 213.168 23.0566C213.754 22.7715 214.047 22.3047 214.047 21.6562V20.8066C213.918 20.8887 213.752 20.957 213.549 21.0117C213.346 21.0664 213.146 21.1055 212.951 21.1289L212.312 21.2109C211.93 21.2617 211.643 21.3418 211.451 21.4512C211.127 21.6348 210.965 21.9277 210.965 22.3301ZM213.52 20.1973C213.762 20.166 213.924 20.0645 214.006 19.8926C214.053 19.7988 214.076 19.6641 214.076 19.4883C214.076 19.1289 213.947 18.8691 213.689 18.709C213.436 18.5449 213.07 18.4629 212.594 18.4629C212.043 18.4629 211.652 18.6113 211.422 18.9082C211.293 19.0723 211.209 19.3164 211.17 19.6406H210.186C210.205 18.8672 210.455 18.3301 210.936 18.0293C211.42 17.7246 211.98 17.5723 212.617 17.5723C213.355 17.5723 213.955 17.7129 214.416 17.9941C214.873 18.2754 215.102 18.7129 215.102 19.3066V22.9219C215.102 23.0312 215.123 23.1191 215.166 23.1855C215.213 23.252 215.309 23.2852 215.453 23.2852C215.5 23.2852 215.553 23.2832 215.611 23.2793C215.67 23.2715 215.732 23.2617 215.799 23.25V24.0293C215.635 24.0762 215.51 24.1055 215.424 24.1172C215.338 24.1289 215.221 24.1348 215.072 24.1348C214.709 24.1348 214.445 24.0059 214.281 23.748C214.195 23.6113 214.135 23.418 214.1 23.168C213.885 23.4492 213.576 23.6934 213.174 23.9004C212.771 24.1074 212.328 24.2109 211.844 24.2109C211.262 24.2109 210.785 24.0352 210.414 23.6836C210.047 23.3281 209.863 22.8848 209.863 22.3535C209.863 21.7715 210.045 21.3203 210.408 21C210.771 20.6797 211.248 20.4824 211.838 20.4082L213.52 20.1973ZM216.836 17.7246H217.838V18.6152C218.135 18.248 218.449 17.9844 218.781 17.8242C219.113 17.6641 219.482 17.584 219.889 17.584C220.779 17.584 221.381 17.8945 221.693 18.5156C221.865 18.8555 221.951 19.3418 221.951 19.9746V24H220.879V20.0449C220.879 19.6621 220.822 19.3535 220.709 19.1191C220.521 18.7285 220.182 18.5332 219.689 18.5332C219.439 18.5332 219.234 18.5586 219.074 18.6094C218.785 18.6953 218.531 18.8672 218.312 19.125C218.137 19.332 218.021 19.5469 217.967 19.7695C217.916 19.9883 217.891 20.3027 217.891 20.7129V24H216.836V17.7246ZM224.143 22.0312C224.174 22.3828 224.262 22.6523 224.406 22.8398C224.672 23.1797 225.133 23.3496 225.789 23.3496C226.18 23.3496 226.523 23.2656 226.82 23.0977C227.117 22.9258 227.266 22.6621 227.266 22.3066C227.266 22.0371 227.146 21.832 226.908 21.6914C226.756 21.6055 226.455 21.5059 226.006 21.3926L225.168 21.1816C224.633 21.0488 224.238 20.9004 223.984 20.7363C223.531 20.4512 223.305 20.0566 223.305 19.5527C223.305 18.959 223.518 18.4785 223.943 18.1113C224.373 17.7441 224.949 17.5605 225.672 17.5605C226.617 17.5605 227.299 17.8379 227.717 18.3926C227.979 18.7441 228.105 19.123 228.098 19.5293H227.102C227.082 19.291 226.998 19.0742 226.85 18.8789C226.607 18.6016 226.188 18.4629 225.59 18.4629C225.191 18.4629 224.889 18.5391 224.682 18.6914C224.479 18.8438 224.377 19.0449 224.377 19.2949C224.377 19.5684 224.512 19.7871 224.781 19.9512C224.938 20.0488 225.168 20.1348 225.473 20.209L226.17 20.3789C226.928 20.5625 227.436 20.7402 227.693 20.9121C228.104 21.1816 228.309 21.6055 228.309 22.1836C228.309 22.7422 228.096 23.2246 227.67 23.6309C227.248 24.0371 226.604 24.2402 225.736 24.2402C224.803 24.2402 224.141 24.0293 223.75 23.6074C223.363 23.1816 223.156 22.6562 223.129 22.0312H224.143ZM229.516 17.7539H230.588V24H229.516V17.7539ZM229.516 15.3926H230.588V16.5879H229.516V15.3926ZM232.398 15.9727H233.465V17.7246H234.467V18.5859H233.465V22.6816C233.465 22.9004 233.539 23.0469 233.688 23.1211C233.77 23.1641 233.906 23.1855 234.098 23.1855C234.148 23.1855 234.203 23.1855 234.262 23.1855C234.32 23.1816 234.389 23.1758 234.467 23.168V24C234.346 24.0352 234.219 24.0605 234.086 24.0762C233.957 24.0918 233.816 24.0996 233.664 24.0996C233.172 24.0996 232.838 23.9746 232.662 23.7246C232.486 23.4707 232.398 23.1426 232.398 22.7402V18.5859H231.549V17.7246H232.398V15.9727ZM245.061 15.3926V16.418H242.16V24H240.977V16.418H238.076V15.3926H245.061ZM245.547 17.7539H246.619V24H245.547V17.7539ZM245.547 15.3926H246.619V16.5879H245.547V15.3926ZM248.219 17.7246H249.262V18.6152C249.512 18.3066 249.738 18.082 249.941 17.9414C250.289 17.7031 250.684 17.584 251.125 17.584C251.625 17.584 252.027 17.707 252.332 17.9531C252.504 18.0938 252.66 18.3008 252.801 18.5742C253.035 18.2383 253.311 17.9902 253.627 17.8301C253.943 17.666 254.299 17.584 254.693 17.584C255.537 17.584 256.111 17.8887 256.416 18.498C256.58 18.8262 256.662 19.2676 256.662 19.8223V24H255.566V19.6406C255.566 19.2227 255.461 18.9355 255.25 18.7793C255.043 18.623 254.789 18.5449 254.488 18.5449C254.074 18.5449 253.717 18.6836 253.416 18.9609C253.119 19.2383 252.971 19.7012 252.971 20.3496V24H251.898V19.9043C251.898 19.4785 251.848 19.168 251.746 18.9727C251.586 18.6797 251.287 18.5332 250.85 18.5332C250.451 18.5332 250.088 18.6875 249.76 18.9961C249.436 19.3047 249.273 19.8633 249.273 20.6719V24H248.219V17.7246ZM260.828 17.584C261.273 17.584 261.705 17.6895 262.123 17.9004C262.541 18.1074 262.859 18.377 263.078 18.709C263.289 19.0254 263.43 19.3945 263.5 19.8164C263.562 20.1055 263.594 20.5664 263.594 21.1992H258.994C259.014 21.8359 259.164 22.3477 259.445 22.7344C259.727 23.1172 260.162 23.3086 260.752 23.3086C261.303 23.3086 261.742 23.127 262.07 22.7637C262.258 22.5527 262.391 22.3086 262.469 22.0312H263.506C263.479 22.2617 263.387 22.5195 263.23 22.8047C263.078 23.0859 262.906 23.3164 262.715 23.4961C262.395 23.8086 261.998 24.0195 261.525 24.1289C261.271 24.1914 260.984 24.2227 260.664 24.2227C259.883 24.2227 259.221 23.9395 258.678 23.373C258.135 22.8027 257.863 22.0059 257.863 20.9824C257.863 19.9746 258.137 19.1562 258.684 18.5273C259.23 17.8984 259.945 17.584 260.828 17.584ZM262.51 20.3613C262.467 19.9043 262.367 19.5391 262.211 19.2656C261.922 18.7578 261.439 18.5039 260.764 18.5039C260.279 18.5039 259.873 18.6797 259.545 19.0312C259.217 19.3789 259.043 19.8223 259.023 20.3613H262.51ZM269.137 21.2227C269.164 21.7109 269.279 22.1074 269.482 22.4121C269.869 22.9824 270.551 23.2676 271.527 23.2676C271.965 23.2676 272.363 23.2051 272.723 23.0801C273.418 22.8379 273.766 22.4043 273.766 21.7793C273.766 21.3105 273.619 20.9766 273.326 20.7773C273.029 20.582 272.564 20.4121 271.932 20.2676L270.766 20.0039C270.004 19.832 269.465 19.6426 269.148 19.4355C268.602 19.0762 268.328 18.5391 268.328 17.8242C268.328 17.0508 268.596 16.416 269.131 15.9199C269.666 15.4238 270.424 15.1758 271.404 15.1758C272.307 15.1758 273.072 15.3945 273.701 15.832C274.334 16.2656 274.65 16.9609 274.65 17.918H273.555C273.496 17.457 273.371 17.1035 273.18 16.8574C272.824 16.4082 272.221 16.1836 271.369 16.1836C270.682 16.1836 270.188 16.3281 269.887 16.6172C269.586 16.9062 269.436 17.2422 269.436 17.625C269.436 18.0469 269.611 18.3555 269.963 18.5508C270.193 18.6758 270.715 18.832 271.527 19.0195L272.734 19.2949C273.316 19.4277 273.766 19.6094 274.082 19.8398C274.629 20.2422 274.902 20.8262 274.902 21.5918C274.902 22.5449 274.555 23.2266 273.859 23.6367C273.168 24.0469 272.363 24.252 271.445 24.252C270.375 24.252 269.537 23.9785 268.932 23.4316C268.326 22.8887 268.029 22.1523 268.041 21.2227H269.137ZM277.047 22.3301C277.047 22.6348 277.158 22.875 277.381 23.0508C277.604 23.2266 277.867 23.3145 278.172 23.3145C278.543 23.3145 278.902 23.2285 279.25 23.0566C279.836 22.7715 280.129 22.3047 280.129 21.6562V20.8066C280 20.8887 279.834 20.957 279.631 21.0117C279.428 21.0664 279.229 21.1055 279.033 21.1289L278.395 21.2109C278.012 21.2617 277.725 21.3418 277.533 21.4512C277.209 21.6348 277.047 21.9277 277.047 22.3301ZM279.602 20.1973C279.844 20.166 280.006 20.0645 280.088 19.8926C280.135 19.7988 280.158 19.6641 280.158 19.4883C280.158 19.1289 280.029 18.8691 279.771 18.709C279.518 18.5449 279.152 18.4629 278.676 18.4629C278.125 18.4629 277.734 18.6113 277.504 18.9082C277.375 19.0723 277.291 19.3164 277.252 19.6406H276.268C276.287 18.8672 276.537 18.3301 277.018 18.0293C277.502 17.7246 278.062 17.5723 278.699 17.5723C279.438 17.5723 280.037 17.7129 280.498 17.9941C280.955 18.2754 281.184 18.7129 281.184 19.3066V22.9219C281.184 23.0312 281.205 23.1191 281.248 23.1855C281.295 23.252 281.391 23.2852 281.535 23.2852C281.582 23.2852 281.635 23.2832 281.693 23.2793C281.752 23.2715 281.814 23.2617 281.881 23.25V24.0293C281.717 24.0762 281.592 24.1055 281.506 24.1172C281.42 24.1289 281.303 24.1348 281.154 24.1348C280.791 24.1348 280.527 24.0059 280.363 23.748C280.277 23.6113 280.217 23.418 280.182 23.168C279.967 23.4492 279.658 23.6934 279.256 23.9004C278.854 24.1074 278.41 24.2109 277.926 24.2109C277.344 24.2109 276.867 24.0352 276.496 23.6836C276.129 23.3281 275.945 22.8848 275.945 22.3535C275.945 21.7715 276.127 21.3203 276.49 21C276.854 20.6797 277.33 20.4824 277.92 20.4082L279.602 20.1973ZM283.434 17.7246L285.109 22.834L286.861 17.7246H288.016L285.648 24H284.523L282.209 17.7246H283.434ZM291.531 17.584C291.977 17.584 292.408 17.6895 292.826 17.9004C293.244 18.1074 293.562 18.377 293.781 18.709C293.992 19.0254 294.133 19.3945 294.203 19.8164C294.266 20.1055 294.297 20.5664 294.297 21.1992H289.697C289.717 21.8359 289.867 22.3477 290.148 22.7344C290.43 23.1172 290.865 23.3086 291.455 23.3086C292.006 23.3086 292.445 23.127 292.773 22.7637C292.961 22.5527 293.094 22.3086 293.172 22.0312H294.209C294.182 22.2617 294.09 22.5195 293.934 22.8047C293.781 23.0859 293.609 23.3164 293.418 23.4961C293.098 23.8086 292.701 24.0195 292.229 24.1289C291.975 24.1914 291.688 24.2227 291.367 24.2227C290.586 24.2227 289.924 23.9395 289.381 23.373C288.838 22.8027 288.566 22.0059 288.566 20.9824C288.566 19.9746 288.84 19.1562 289.387 18.5273C289.934 17.8984 290.648 17.584 291.531 17.584ZM293.213 20.3613C293.17 19.9043 293.07 19.5391 292.914 19.2656C292.625 18.7578 292.143 18.5039 291.467 18.5039C290.982 18.5039 290.576 18.6797 290.248 19.0312C289.92 19.3789 289.746 19.8223 289.727 20.3613H293.213ZM296.266 20.9355C296.266 21.6074 296.408 22.1699 296.693 22.623C296.979 23.0762 297.436 23.3027 298.064 23.3027C298.553 23.3027 298.953 23.0938 299.266 22.6758C299.582 22.2539 299.74 21.6504 299.74 20.8652C299.74 20.0723 299.578 19.4863 299.254 19.1074C298.93 18.7246 298.529 18.5332 298.053 18.5332C297.521 18.5332 297.09 18.7363 296.758 19.1426C296.43 19.5488 296.266 20.1465 296.266 20.9355ZM297.854 17.6133C298.334 17.6133 298.736 17.7148 299.061 17.918C299.248 18.0352 299.461 18.2402 299.699 18.5332V15.3633H300.713V24H299.764V23.127C299.518 23.5137 299.227 23.793 298.891 23.9648C298.555 24.1367 298.17 24.2227 297.736 24.2227C297.037 24.2227 296.432 23.9297 295.92 23.3438C295.408 22.7539 295.152 21.9707 295.152 20.9941C295.152 20.0801 295.385 19.2891 295.85 18.6211C296.318 17.9492 296.986 17.6133 297.854 17.6133Z" fill="black"/>
<path d="M37.8105 86.2227C37.8379 86.7109 37.9531 87.1074 38.1562 87.4121C38.543 87.9824 39.2246 88.2676 40.2012 88.2676C40.6387 88.2676 41.0371 88.2051 41.3965 88.0801C42.0918 87.8379 42.4395 87.4043 42.4395 86.7793C42.4395 86.3105 42.293 85.9766 42 85.7773C41.7031 85.582 41.2383 85.4121 40.6055 85.2676L39.4395 85.0039C38.6777 84.832 38.1387 84.6426 37.8223 84.4355C37.2754 84.0762 37.002 83.5391 37.002 82.8242C37.002 82.0508 37.2695 81.416 37.8047 80.9199C38.3398 80.4238 39.0977 80.1758 40.0781 80.1758C40.9805 80.1758 41.7461 80.3945 42.375 80.832C43.0078 81.2656 43.3242 81.9609 43.3242 82.918H42.2285C42.1699 82.457 42.0449 82.1035 41.8535 81.8574C41.498 81.4082 40.8945 81.1836 40.043 81.1836C39.3555 81.1836 38.8613 81.3281 38.5605 81.6172C38.2598 81.9062 38.1094 82.2422 38.1094 82.625C38.1094 83.0469 38.2852 83.3555 38.6367 83.5508C38.8672 83.6758 39.3887 83.832 40.2012 84.0195L41.4082 84.2949C41.9902 84.4277 42.4395 84.6094 42.7559 84.8398C43.3027 85.2422 43.5762 85.8262 43.5762 86.5918C43.5762 87.5449 43.2285 88.2266 42.5332 88.6367C41.8418 89.0469 41.0371 89.252 40.1191 89.252C39.0488 89.252 38.2109 88.9785 37.6055 88.4316C37 87.8887 36.7031 87.1523 36.7148 86.2227H37.8105ZM44.9121 80.3633H45.9668V83.5742C46.2168 83.2578 46.4414 83.0352 46.6406 82.9062C46.9805 82.6836 47.4043 82.5723 47.9121 82.5723C48.8223 82.5723 49.4395 82.8906 49.7637 83.5273C49.9395 83.875 50.0273 84.3574 50.0273 84.9746V89H48.9434V85.0449C48.9434 84.584 48.8848 84.2461 48.7676 84.0312C48.5762 83.6875 48.2168 83.5156 47.6895 83.5156C47.252 83.5156 46.8555 83.666 46.5 83.9668C46.1445 84.2676 45.9668 84.8359 45.9668 85.6719V89H44.9121V80.3633ZM51.5918 82.7539H52.6641V89H51.5918V82.7539ZM51.5918 80.3926H52.6641V81.5879H51.5918V80.3926ZM56.9121 88.291C57.4043 88.291 57.8125 88.0859 58.1367 87.6758C58.4648 87.2617 58.6289 86.6445 58.6289 85.8242C58.6289 85.3242 58.5566 84.8945 58.4121 84.5352C58.1387 83.8438 57.6387 83.498 56.9121 83.498C56.1816 83.498 55.6816 83.8633 55.4121 84.5938C55.2676 84.9844 55.1953 85.4805 55.1953 86.082C55.1953 86.5664 55.2676 86.9785 55.4121 87.3184C55.6855 87.9668 56.1855 88.291 56.9121 88.291ZM54.1816 82.7539H55.207V83.5859C55.418 83.3008 55.6484 83.0801 55.8984 82.9238C56.2539 82.6895 56.6719 82.5723 57.1523 82.5723C57.8633 82.5723 58.4668 82.8457 58.9629 83.3926C59.459 83.9355 59.707 84.7129 59.707 85.7246C59.707 87.0918 59.3496 88.0684 58.6348 88.6543C58.1816 89.0254 57.6543 89.2109 57.0527 89.2109C56.5801 89.2109 56.1836 89.1074 55.8633 88.9004C55.6758 88.7832 55.4668 88.582 55.2363 88.2969V91.502H54.1816V82.7539ZM60.9434 82.7246H61.9863V83.6152C62.2363 83.3066 62.4629 83.082 62.666 82.9414C63.0137 82.7031 63.4082 82.584 63.8496 82.584C64.3496 82.584 64.752 82.707 65.0566 82.9531C65.2285 83.0938 65.3848 83.3008 65.5254 83.5742C65.7598 83.2383 66.0352 82.9902 66.3516 82.8301C66.668 82.666 67.0234 82.584 67.418 82.584C68.2617 82.584 68.8359 82.8887 69.1406 83.498C69.3047 83.8262 69.3867 84.2676 69.3867 84.8223V89H68.291V84.6406C68.291 84.2227 68.1855 83.9355 67.9746 83.7793C67.7676 83.623 67.5137 83.5449 67.2129 83.5449C66.7988 83.5449 66.4414 83.6836 66.1406 83.9609C65.8438 84.2383 65.6953 84.7012 65.6953 85.3496V89H64.623V84.9043C64.623 84.4785 64.5723 84.168 64.4707 83.9727C64.3105 83.6797 64.0117 83.5332 63.5742 83.5332C63.1758 83.5332 62.8125 83.6875 62.4844 83.9961C62.1602 84.3047 61.998 84.8633 61.998 85.6719V89H60.9434V82.7246ZM73.5527 82.584C73.998 82.584 74.4297 82.6895 74.8477 82.9004C75.2656 83.1074 75.584 83.377 75.8027 83.709C76.0137 84.0254 76.1543 84.3945 76.2246 84.8164C76.2871 85.1055 76.3184 85.5664 76.3184 86.1992H71.7188C71.7383 86.8359 71.8887 87.3477 72.1699 87.7344C72.4512 88.1172 72.8867 88.3086 73.4766 88.3086C74.0273 88.3086 74.4668 88.127 74.7949 87.7637C74.9824 87.5527 75.1152 87.3086 75.1934 87.0312H76.2305C76.2031 87.2617 76.1113 87.5195 75.9551 87.8047C75.8027 88.0859 75.6309 88.3164 75.4395 88.4961C75.1191 88.8086 74.7227 89.0195 74.25 89.1289C73.9961 89.1914 73.709 89.2227 73.3887 89.2227C72.6074 89.2227 71.9453 88.9395 71.4023 88.373C70.8594 87.8027 70.5879 87.0059 70.5879 85.9824C70.5879 84.9746 70.8613 84.1562 71.4082 83.5273C71.9551 82.8984 72.6699 82.584 73.5527 82.584ZM75.2344 85.3613C75.1914 84.9043 75.0918 84.5391 74.9355 84.2656C74.6465 83.7578 74.1641 83.5039 73.4883 83.5039C73.0039 83.5039 72.5977 83.6797 72.2695 84.0312C71.9414 84.3789 71.7676 84.8223 71.748 85.3613H75.2344ZM77.6191 82.7246H78.6211V83.6152C78.918 83.248 79.2324 82.9844 79.5645 82.8242C79.8965 82.6641 80.2656 82.584 80.6719 82.584C81.5625 82.584 82.1641 82.8945 82.4766 83.5156C82.6484 83.8555 82.7344 84.3418 82.7344 84.9746V89H81.6621V85.0449C81.6621 84.6621 81.6055 84.3535 81.4922 84.1191C81.3047 83.7285 80.9648 83.5332 80.4727 83.5332C80.2227 83.5332 80.0176 83.5586 79.8574 83.6094C79.5684 83.6953 79.3145 83.8672 79.0957 84.125C78.9199 84.332 78.8047 84.5469 78.75 84.7695C78.6992 84.9883 78.6738 85.3027 78.6738 85.7129V89H77.6191V82.7246ZM84.5098 80.9727H85.5762V82.7246H86.5781V83.5859H85.5762V87.6816C85.5762 87.9004 85.6504 88.0469 85.7988 88.1211C85.8809 88.1641 86.0176 88.1855 86.209 88.1855C86.2598 88.1855 86.3145 88.1855 86.373 88.1855C86.4316 88.1816 86.5 88.1758 86.5781 88.168V89C86.457 89.0352 86.3301 89.0605 86.1973 89.0762C86.0684 89.0918 85.9277 89.0996 85.7754 89.0996C85.2832 89.0996 84.9492 88.9746 84.7734 88.7246C84.5977 88.4707 84.5098 88.1426 84.5098 87.7402V83.5859H83.6602V82.7246H84.5098V80.9727ZM88.2656 87.0312C88.2969 87.3828 88.3848 87.6523 88.5293 87.8398C88.7949 88.1797 89.2559 88.3496 89.9121 88.3496C90.3027 88.3496 90.6465 88.2656 90.9434 88.0977C91.2402 87.9258 91.3887 87.6621 91.3887 87.3066C91.3887 87.0371 91.2695 86.832 91.0312 86.6914C90.8789 86.6055 90.5781 86.5059 90.1289 86.3926L89.291 86.1816C88.7559 86.0488 88.3613 85.9004 88.1074 85.7363C87.6543 85.4512 87.4277 85.0566 87.4277 84.5527C87.4277 83.959 87.6406 83.4785 88.0664 83.1113C88.4961 82.7441 89.0723 82.5605 89.7949 82.5605C90.7402 82.5605 91.4219 82.8379 91.8398 83.3926C92.1016 83.7441 92.2285 84.123 92.2207 84.5293H91.2246C91.2051 84.291 91.1211 84.0742 90.9727 83.8789C90.7305 83.6016 90.3105 83.4629 89.7129 83.4629C89.3145 83.4629 89.0117 83.5391 88.8047 83.6914C88.6016 83.8438 88.5 84.0449 88.5 84.2949C88.5 84.5684 88.6348 84.7871 88.9043 84.9512C89.0605 85.0488 89.291 85.1348 89.5957 85.209L90.293 85.3789C91.0508 85.5625 91.5586 85.7402 91.8164 85.9121C92.2266 86.1816 92.4316 86.6055 92.4316 87.1836C92.4316 87.7422 92.2188 88.2246 91.793 88.6309C91.3711 89.0371 90.7266 89.2402 89.8594 89.2402C88.9258 89.2402 88.2637 89.0293 87.873 88.6074C87.4863 88.1816 87.2793 87.6562 87.252 87.0312H88.2656Z" fill="black"/>
<path d="M54.1055 55.7227C54.2461 56.9258 54.8047 57.7578 55.7812 58.2188C56.2812 58.4531 56.8594 58.5703 57.5156 58.5703C58.7656 58.5703 59.6914 58.1719 60.293 57.375C60.8945 56.5781 61.1953 55.6953 61.1953 54.7266C61.1953 53.5547 60.8359 52.6484 60.1172 52.0078C59.4062 51.3672 58.5508 51.0469 57.5508 51.0469C56.8242 51.0469 56.1992 51.1875 55.6758 51.4688C55.1602 51.75 54.7188 52.1406 54.3516 52.6406L52.5234 52.5352L53.8008 43.5H62.5195V45.5391H55.3828L54.668 50.2031C55.0586 49.9062 55.4297 49.6836 55.7812 49.5352C56.4062 49.2773 57.1289 49.1484 57.9492 49.1484C59.4883 49.1484 60.793 49.6445 61.8633 50.6367C62.9336 51.6289 63.4688 52.8867 63.4688 54.4102C63.4688 55.9961 62.9766 57.3945 61.9922 58.6055C61.0156 59.8164 59.4531 60.4219 57.3047 60.4219C55.9375 60.4219 54.7266 60.0391 53.6719 59.2734C52.625 58.5 52.0391 57.3164 51.9141 55.7227H54.1055ZM70.9922 43.2188C73.1641 43.2188 74.7344 44.1133 75.7031 45.9023C76.4531 47.2852 76.8281 49.1797 76.8281 51.5859C76.8281 53.8672 76.4883 55.7539 75.8086 57.2461C74.8242 59.3867 73.2148 60.457 70.9805 60.457C68.9648 60.457 67.4648 59.582 66.4805 57.832C65.6602 56.3711 65.25 54.4102 65.25 51.9492C65.25 50.043 65.4961 48.4062 65.9883 47.0391C66.9102 44.4922 68.5781 43.2188 70.9922 43.2188ZM70.9688 58.5352C72.0625 58.5352 72.9336 58.0508 73.582 57.082C74.2305 56.1133 74.5547 54.3086 74.5547 51.668C74.5547 49.7617 74.3203 48.1953 73.8516 46.9688C73.3828 45.7344 72.4727 45.1172 71.1211 45.1172C69.8789 45.1172 68.9688 45.7031 68.3906 46.875C67.8203 48.0391 67.5352 49.7578 67.5352 52.0312C67.5352 53.7422 67.7188 55.1172 68.0859 56.1562C68.6484 57.7422 69.6094 58.5352 70.9688 58.5352Z" fill="black"/>
<path d="M202.621 41.1582C203.711 41.1582 204.557 41.4453 205.158 42.0195C205.76 42.5938 206.094 43.2461 206.16 43.9766H205.023C204.895 43.4219 204.637 42.9824 204.25 42.6582C203.867 42.334 203.328 42.1719 202.633 42.1719C201.785 42.1719 201.1 42.4707 200.576 43.0684C200.057 43.6621 199.797 44.5742 199.797 45.8047C199.797 46.8125 200.031 47.6309 200.5 48.2598C200.973 48.8848 201.676 49.1973 202.609 49.1973C203.469 49.1973 204.123 48.8672 204.572 48.207C204.811 47.8594 204.988 47.4023 205.105 46.8359H206.242C206.141 47.7422 205.805 48.502 205.234 49.1152C204.551 49.8535 203.629 50.2227 202.469 50.2227C201.469 50.2227 200.629 49.9199 199.949 49.3145C199.055 48.5137 198.607 47.2773 198.607 45.6055C198.607 44.3359 198.943 43.2949 199.615 42.4824C200.342 41.5996 201.344 41.1582 202.621 41.1582ZM210.016 49.3203C210.715 49.3203 211.193 49.0566 211.451 48.5293C211.713 47.998 211.844 47.4082 211.844 46.7598C211.844 46.1738 211.75 45.6973 211.562 45.3301C211.266 44.752 210.754 44.4629 210.027 44.4629C209.383 44.4629 208.914 44.709 208.621 45.2012C208.328 45.6934 208.182 46.2871 208.182 46.9824C208.182 47.6504 208.328 48.207 208.621 48.6523C208.914 49.0977 209.379 49.3203 210.016 49.3203ZM210.057 43.543C210.865 43.543 211.549 43.8125 212.107 44.3516C212.666 44.8906 212.945 45.6836 212.945 46.7305C212.945 47.7422 212.699 48.5781 212.207 49.2383C211.715 49.8984 210.951 50.2285 209.916 50.2285C209.053 50.2285 208.367 49.9375 207.859 49.3555C207.352 48.7695 207.098 47.9844 207.098 47C207.098 45.9453 207.365 45.1055 207.9 44.4805C208.436 43.8555 209.154 43.543 210.057 43.543ZM214.832 48.0312C214.863 48.3828 214.951 48.6523 215.096 48.8398C215.361 49.1797 215.822 49.3496 216.479 49.3496C216.869 49.3496 217.213 49.2656 217.51 49.0977C217.807 48.9258 217.955 48.6621 217.955 48.3066C217.955 48.0371 217.836 47.832 217.598 47.6914C217.445 47.6055 217.145 47.5059 216.695 47.3926L215.857 47.1816C215.322 47.0488 214.928 46.9004 214.674 46.7363C214.221 46.4512 213.994 46.0566 213.994 45.5527C213.994 44.959 214.207 44.4785 214.633 44.1113C215.062 43.7441 215.639 43.5605 216.361 43.5605C217.307 43.5605 217.988 43.8379 218.406 44.3926C218.668 44.7441 218.795 45.123 218.787 45.5293H217.791C217.771 45.291 217.688 45.0742 217.539 44.8789C217.297 44.6016 216.877 44.4629 216.279 44.4629C215.881 44.4629 215.578 44.5391 215.371 44.6914C215.168 44.8438 215.066 45.0449 215.066 45.2949C215.066 45.5684 215.201 45.7871 215.471 45.9512C215.627 46.0488 215.857 46.1348 216.162 46.209L216.859 46.3789C217.617 46.5625 218.125 46.7402 218.383 46.9121C218.793 47.1816 218.998 47.6055 218.998 48.1836C218.998 48.7422 218.785 49.2246 218.359 49.6309C217.938 50.0371 217.293 50.2402 216.426 50.2402C215.492 50.2402 214.83 50.0293 214.439 49.6074C214.053 49.1816 213.846 48.6562 213.818 48.0312H214.832ZM220.416 41.9727H221.482V43.7246H222.484V44.5859H221.482V48.6816C221.482 48.9004 221.557 49.0469 221.705 49.1211C221.787 49.1641 221.924 49.1855 222.115 49.1855C222.166 49.1855 222.221 49.1855 222.279 49.1855C222.338 49.1816 222.406 49.1758 222.484 49.168V50C222.363 50.0352 222.236 50.0605 222.104 50.0762C221.975 50.0918 221.834 50.0996 221.682 50.0996C221.189 50.0996 220.855 49.9746 220.68 49.7246C220.504 49.4707 220.416 49.1426 220.416 48.7402V44.5859H219.566V43.7246H220.416V41.9727ZM229.533 49.291C230.025 49.291 230.434 49.0859 230.758 48.6758C231.086 48.2617 231.25 47.6445 231.25 46.8242C231.25 46.3242 231.178 45.8945 231.033 45.5352C230.76 44.8438 230.26 44.498 229.533 44.498C228.803 44.498 228.303 44.8633 228.033 45.5938C227.889 45.9844 227.816 46.4805 227.816 47.082C227.816 47.5664 227.889 47.9785 228.033 48.3184C228.307 48.9668 228.807 49.291 229.533 49.291ZM226.803 43.7539H227.828V44.5859C228.039 44.3008 228.27 44.0801 228.52 43.9238C228.875 43.6895 229.293 43.5723 229.773 43.5723C230.484 43.5723 231.088 43.8457 231.584 44.3926C232.08 44.9355 232.328 45.7129 232.328 46.7246C232.328 48.0918 231.971 49.0684 231.256 49.6543C230.803 50.0254 230.275 50.2109 229.674 50.2109C229.201 50.2109 228.805 50.1074 228.484 49.9004C228.297 49.7832 228.088 49.582 227.857 49.2969V52.502H226.803V43.7539ZM236.178 43.584C236.623 43.584 237.055 43.6895 237.473 43.9004C237.891 44.1074 238.209 44.377 238.428 44.709C238.639 45.0254 238.779 45.3945 238.85 45.8164C238.912 46.1055 238.943 46.5664 238.943 47.1992H234.344C234.363 47.8359 234.514 48.3477 234.795 48.7344C235.076 49.1172 235.512 49.3086 236.102 49.3086C236.652 49.3086 237.092 49.127 237.42 48.7637C237.607 48.5527 237.74 48.3086 237.818 48.0312H238.855C238.828 48.2617 238.736 48.5195 238.58 48.8047C238.428 49.0859 238.256 49.3164 238.064 49.4961C237.744 49.8086 237.348 50.0195 236.875 50.1289C236.621 50.1914 236.334 50.2227 236.014 50.2227C235.232 50.2227 234.57 49.9395 234.027 49.373C233.484 48.8027 233.213 48.0059 233.213 46.9824C233.213 45.9746 233.486 45.1562 234.033 44.5273C234.58 43.8984 235.295 43.584 236.178 43.584ZM237.859 46.3613C237.816 45.9043 237.717 45.5391 237.561 45.2656C237.271 44.7578 236.789 44.5039 236.113 44.5039C235.629 44.5039 235.223 44.6797 234.895 45.0312C234.566 45.3789 234.393 45.8223 234.373 46.3613H237.859ZM240.273 43.7246H241.275V44.8086C241.357 44.5977 241.559 44.3418 241.879 44.041C242.199 43.7363 242.568 43.584 242.986 43.584C243.006 43.584 243.039 43.5859 243.086 43.5898C243.133 43.5938 243.213 43.6016 243.326 43.6133V44.7266C243.264 44.7148 243.205 44.707 243.15 44.7031C243.1 44.6992 243.043 44.6973 242.98 44.6973C242.449 44.6973 242.041 44.8691 241.756 45.2129C241.471 45.5527 241.328 45.9453 241.328 46.3906V50H240.273V43.7246ZM248.482 47.2227C248.51 47.7109 248.625 48.1074 248.828 48.4121C249.215 48.9824 249.896 49.2676 250.873 49.2676C251.311 49.2676 251.709 49.2051 252.068 49.0801C252.764 48.8379 253.111 48.4043 253.111 47.7793C253.111 47.3105 252.965 46.9766 252.672 46.7773C252.375 46.582 251.91 46.4121 251.277 46.2676L250.111 46.0039C249.35 45.832 248.811 45.6426 248.494 45.4355C247.947 45.0762 247.674 44.5391 247.674 43.8242C247.674 43.0508 247.941 42.416 248.477 41.9199C249.012 41.4238 249.77 41.1758 250.75 41.1758C251.652 41.1758 252.418 41.3945 253.047 41.832C253.68 42.2656 253.996 42.9609 253.996 43.918H252.9C252.842 43.457 252.717 43.1035 252.525 42.8574C252.17 42.4082 251.566 42.1836 250.715 42.1836C250.027 42.1836 249.533 42.3281 249.232 42.6172C248.932 42.9062 248.781 43.2422 248.781 43.625C248.781 44.0469 248.957 44.3555 249.309 44.5508C249.539 44.6758 250.061 44.832 250.873 45.0195L252.08 45.2949C252.662 45.4277 253.111 45.6094 253.428 45.8398C253.975 46.2422 254.248 46.8262 254.248 47.5918C254.248 48.5449 253.9 49.2266 253.205 49.6367C252.514 50.0469 251.709 50.252 250.791 50.252C249.721 50.252 248.883 49.9785 248.277 49.4316C247.672 48.8887 247.375 48.1523 247.387 47.2227H248.482ZM255.584 41.3633H256.639V44.5742C256.889 44.2578 257.113 44.0352 257.312 43.9062C257.652 43.6836 258.076 43.5723 258.584 43.5723C259.494 43.5723 260.111 43.8906 260.436 44.5273C260.611 44.875 260.699 45.3574 260.699 45.9746V50H259.615V46.0449C259.615 45.584 259.557 45.2461 259.439 45.0312C259.248 44.6875 258.889 44.5156 258.361 44.5156C257.924 44.5156 257.527 44.666 257.172 44.9668C256.816 45.2676 256.639 45.8359 256.639 46.6719V50H255.584V41.3633ZM262.264 43.7539H263.336V50H262.264V43.7539ZM262.264 41.3926H263.336V42.5879H262.264V41.3926ZM267.584 49.291C268.076 49.291 268.484 49.0859 268.809 48.6758C269.137 48.2617 269.301 47.6445 269.301 46.8242C269.301 46.3242 269.229 45.8945 269.084 45.5352C268.811 44.8438 268.311 44.498 267.584 44.498C266.854 44.498 266.354 44.8633 266.084 45.5938C265.939 45.9844 265.867 46.4805 265.867 47.082C265.867 47.5664 265.939 47.9785 266.084 48.3184C266.357 48.9668 266.857 49.291 267.584 49.291ZM264.854 43.7539H265.879V44.5859C266.09 44.3008 266.32 44.0801 266.57 43.9238C266.926 43.6895 267.344 43.5723 267.824 43.5723C268.535 43.5723 269.139 43.8457 269.635 44.3926C270.131 44.9355 270.379 45.7129 270.379 46.7246C270.379 48.0918 270.021 49.0684 269.307 49.6543C268.854 50.0254 268.326 50.2109 267.725 50.2109C267.252 50.2109 266.855 50.1074 266.535 49.9004C266.348 49.7832 266.139 49.582 265.908 49.2969V52.502H264.854V43.7539ZM271.615 43.7246H272.658V44.6152C272.908 44.3066 273.135 44.082 273.338 43.9414C273.686 43.7031 274.08 43.584 274.521 43.584C275.021 43.584 275.424 43.707 275.729 43.9531C275.9 44.0938 276.057 44.3008 276.197 44.5742C276.432 44.2383 276.707 43.9902 277.023 43.8301C277.34 43.666 277.695 43.584 278.09 43.584C278.934 43.584 279.508 43.8887 279.812 44.498C279.977 44.8262 280.059 45.2676 280.059 45.8223V50H278.963V45.6406C278.963 45.2227 278.857 44.9355 278.646 44.7793C278.439 44.623 278.186 44.5449 277.885 44.5449C277.471 44.5449 277.113 44.6836 276.812 44.9609C276.516 45.2383 276.367 45.7012 276.367 46.3496V50H275.295V45.9043C275.295 45.4785 275.244 45.168 275.143 44.9727C274.982 44.6797 274.684 44.5332 274.246 44.5332C273.848 44.5332 273.484 44.6875 273.156 44.9961C272.832 45.3047 272.67 45.8633 272.67 46.6719V50H271.615V43.7246ZM284.225 43.584C284.67 43.584 285.102 43.6895 285.52 43.9004C285.938 44.1074 286.256 44.377 286.475 44.709C286.686 45.0254 286.826 45.3945 286.896 45.8164C286.959 46.1055 286.99 46.5664 286.99 47.1992H282.391C282.41 47.8359 282.561 48.3477 282.842 48.7344C283.123 49.1172 283.559 49.3086 284.148 49.3086C284.699 49.3086 285.139 49.127 285.467 48.7637C285.654 48.5527 285.787 48.3086 285.865 48.0312H286.902C286.875 48.2617 286.783 48.5195 286.627 48.8047C286.475 49.0859 286.303 49.3164 286.111 49.4961C285.791 49.8086 285.395 50.0195 284.922 50.1289C284.668 50.1914 284.381 50.2227 284.061 50.2227C283.279 50.2227 282.617 49.9395 282.074 49.373C281.531 48.8027 281.26 48.0059 281.26 46.9824C281.26 45.9746 281.533 45.1562 282.08 44.5273C282.627 43.8984 283.342 43.584 284.225 43.584ZM285.906 46.3613C285.863 45.9043 285.764 45.5391 285.607 45.2656C285.318 44.7578 284.836 44.5039 284.16 44.5039C283.676 44.5039 283.27 44.6797 282.941 45.0312C282.613 45.3789 282.439 45.8223 282.42 46.3613H285.906ZM288.291 43.7246H289.293V44.6152C289.59 44.248 289.904 43.9844 290.236 43.8242C290.568 43.6641 290.938 43.584 291.344 43.584C292.234 43.584 292.836 43.8945 293.148 44.5156C293.32 44.8555 293.406 45.3418 293.406 45.9746V50H292.334V46.0449C292.334 45.6621 292.277 45.3535 292.164 45.1191C291.977 44.7285 291.637 44.5332 291.145 44.5332C290.895 44.5332 290.689 44.5586 290.529 44.6094C290.24 44.6953 289.986 44.8672 289.768 45.125C289.592 45.332 289.477 45.5469 289.422 45.7695C289.371 45.9883 289.346 46.3027 289.346 46.7129V50H288.291V43.7246ZM295.182 41.9727H296.248V43.7246H297.25V44.5859H296.248V48.6816C296.248 48.9004 296.322 49.0469 296.471 49.1211C296.553 49.1641 296.689 49.1855 296.881 49.1855C296.932 49.1855 296.986 49.1855 297.045 49.1855C297.104 49.1816 297.172 49.1758 297.25 49.168V50C297.129 50.0352 297.002 50.0605 296.869 50.0762C296.74 50.0918 296.6 50.0996 296.447 50.0996C295.955 50.0996 295.621 49.9746 295.445 49.7246C295.27 49.4707 295.182 49.1426 295.182 48.7402V44.5859H294.332V43.7246H295.182V41.9727ZM302.553 47.2227C302.58 47.7109 302.695 48.1074 302.898 48.4121C303.285 48.9824 303.967 49.2676 304.943 49.2676C305.381 49.2676 305.779 49.2051 306.139 49.0801C306.834 48.8379 307.182 48.4043 307.182 47.7793C307.182 47.3105 307.035 46.9766 306.742 46.7773C306.445 46.582 305.98 46.4121 305.348 46.2676L304.182 46.0039C303.42 45.832 302.881 45.6426 302.564 45.4355C302.018 45.0762 301.744 44.5391 301.744 43.8242C301.744 43.0508 302.012 42.416 302.547 41.9199C303.082 41.4238 303.84 41.1758 304.82 41.1758C305.723 41.1758 306.488 41.3945 307.117 41.832C307.75 42.2656 308.066 42.9609 308.066 43.918H306.971C306.912 43.457 306.787 43.1035 306.596 42.8574C306.24 42.4082 305.637 42.1836 304.785 42.1836C304.098 42.1836 303.604 42.3281 303.303 42.6172C303.002 42.9062 302.852 43.2422 302.852 43.625C302.852 44.0469 303.027 44.3555 303.379 44.5508C303.609 44.6758 304.131 44.832 304.943 45.0195L306.15 45.2949C306.732 45.4277 307.182 45.6094 307.498 45.8398C308.045 46.2422 308.318 46.8262 308.318 47.5918C308.318 48.5449 307.971 49.2266 307.275 49.6367C306.584 50.0469 305.779 50.252 304.861 50.252C303.791 50.252 302.953 49.9785 302.348 49.4316C301.742 48.8887 301.445 48.1523 301.457 47.2227H302.553ZM310.463 48.3301C310.463 48.6348 310.574 48.875 310.797 49.0508C311.02 49.2266 311.283 49.3145 311.588 49.3145C311.959 49.3145 312.318 49.2285 312.666 49.0566C313.252 48.7715 313.545 48.3047 313.545 47.6562V46.8066C313.416 46.8887 313.25 46.957 313.047 47.0117C312.844 47.0664 312.645 47.1055 312.449 47.1289L311.811 47.2109C311.428 47.2617 311.141 47.3418 310.949 47.4512C310.625 47.6348 310.463 47.9277 310.463 48.3301ZM313.018 46.1973C313.26 46.166 313.422 46.0645 313.504 45.8926C313.551 45.7988 313.574 45.6641 313.574 45.4883C313.574 45.1289 313.445 44.8691 313.188 44.709C312.934 44.5449 312.568 44.4629 312.092 44.4629C311.541 44.4629 311.15 44.6113 310.92 44.9082C310.791 45.0723 310.707 45.3164 310.668 45.6406H309.684C309.703 44.8672 309.953 44.3301 310.434 44.0293C310.918 43.7246 311.479 43.5723 312.115 43.5723C312.854 43.5723 313.453 43.7129 313.914 43.9941C314.371 44.2754 314.6 44.7129 314.6 45.3066V48.9219C314.6 49.0312 314.621 49.1191 314.664 49.1855C314.711 49.252 314.807 49.2852 314.951 49.2852C314.998 49.2852 315.051 49.2832 315.109 49.2793C315.168 49.2715 315.23 49.2617 315.297 49.25V50.0293C315.133 50.0762 315.008 50.1055 314.922 50.1172C314.836 50.1289 314.719 50.1348 314.57 50.1348C314.207 50.1348 313.943 50.0059 313.779 49.748C313.693 49.6113 313.633 49.418 313.598 49.168C313.383 49.4492 313.074 49.6934 312.672 49.9004C312.27 50.1074 311.826 50.2109 311.342 50.2109C310.76 50.2109 310.283 50.0352 309.912 49.6836C309.545 49.3281 309.361 48.8848 309.361 48.3535C309.361 47.7715 309.543 47.3203 309.906 47C310.27 46.6797 310.746 46.4824 311.336 46.4082L313.018 46.1973ZM316.85 43.7246L318.525 48.834L320.277 43.7246H321.432L319.064 50H317.939L315.625 43.7246H316.85ZM324.947 43.584C325.393 43.584 325.824 43.6895 326.242 43.9004C326.66 44.1074 326.979 44.377 327.197 44.709C327.408 45.0254 327.549 45.3945 327.619 45.8164C327.682 46.1055 327.713 46.5664 327.713 47.1992H323.113C323.133 47.8359 323.283 48.3477 323.564 48.7344C323.846 49.1172 324.281 49.3086 324.871 49.3086C325.422 49.3086 325.861 49.127 326.189 48.7637C326.377 48.5527 326.51 48.3086 326.588 48.0312H327.625C327.598 48.2617 327.506 48.5195 327.35 48.8047C327.197 49.0859 327.025 49.3164 326.834 49.4961C326.514 49.8086 326.117 50.0195 325.645 50.1289C325.391 50.1914 325.104 50.2227 324.783 50.2227C324.002 50.2227 323.34 49.9395 322.797 49.373C322.254 48.8027 321.982 48.0059 321.982 46.9824C321.982 45.9746 322.256 45.1562 322.803 44.5273C323.35 43.8984 324.064 43.584 324.947 43.584ZM326.629 46.3613C326.586 45.9043 326.486 45.5391 326.33 45.2656C326.041 44.7578 325.559 44.5039 324.883 44.5039C324.398 44.5039 323.992 44.6797 323.664 45.0312C323.336 45.3789 323.162 45.8223 323.143 46.3613H326.629ZM329.682 46.9355C329.682 47.6074 329.824 48.1699 330.109 48.623C330.395 49.0762 330.852 49.3027 331.48 49.3027C331.969 49.3027 332.369 49.0938 332.682 48.6758C332.998 48.2539 333.156 47.6504 333.156 46.8652C333.156 46.0723 332.994 45.4863 332.67 45.1074C332.346 44.7246 331.945 44.5332 331.469 44.5332C330.938 44.5332 330.506 44.7363 330.174 45.1426C329.846 45.5488 329.682 46.1465 329.682 46.9355ZM331.27 43.6133C331.75 43.6133 332.152 43.7148 332.477 43.918C332.664 44.0352 332.877 44.2402 333.115 44.5332V41.3633H334.129V50H333.18V49.127C332.934 49.5137 332.643 49.793 332.307 49.9648C331.971 50.1367 331.586 50.2227 331.152 50.2227C330.453 50.2227 329.848 49.9297 329.336 49.3438C328.824 48.7539 328.568 47.9707 328.568 46.9941C328.568 46.0801 328.801 45.2891 329.266 44.6211C329.734 43.9492 330.402 43.6133 331.27 43.6133Z" fill="black"/>
</svg>
