<svg width="317" height="130" viewBox="0 0 317 130" fill="none" xmlns="http://www.w3.org/2000/svg">
<circle cx="65" cy="65" r="60" stroke="#1FD130" stroke-width="10"/>
<mask id="path-2-inside-1_264_2" fill="white">
<path d="M65 130C73.5359 130 81.9883 128.319 89.8744 125.052C97.7606 121.786 104.926 116.998 110.962 110.962C116.998 104.926 121.786 97.7606 125.052 89.8744C128.319 81.9883 130 73.5359 130 65C130 56.4641 128.319 48.0117 125.052 40.1256C121.786 32.2394 116.998 25.0739 110.962 19.0381C104.926 13.0022 97.7606 8.21438 89.8744 4.94783C81.9883 1.68127 73.5359 -7.46234e-07 65 0L65 10.333C72.179 10.333 79.2876 11.747 85.9201 14.4943C92.5526 17.2416 98.5791 21.2683 103.655 26.3446C108.732 31.4209 112.758 37.4474 115.506 44.0799C118.253 50.7124 119.667 57.821 119.667 65C119.667 72.179 118.253 79.2876 115.506 85.9201C112.758 92.5526 108.732 98.5791 103.655 103.655C98.5791 108.732 92.5526 112.758 85.9201 115.506C79.2876 118.253 72.179 119.667 65 119.667V130Z"/>
</mask>
<path d="M65 130C73.5359 130 81.9883 128.319 89.8744 125.052C97.7606 121.786 104.926 116.998 110.962 110.962C116.998 104.926 121.786 97.7606 125.052 89.8744C128.319 81.9883 130 73.5359 130 65C130 56.4641 128.319 48.0117 125.052 40.1256C121.786 32.2394 116.998 25.0739 110.962 19.0381C104.926 13.0022 97.7606 8.21438 89.8744 4.94783C81.9883 1.68127 73.5359 -7.46234e-07 65 0L65 10.333C72.179 10.333 79.2876 11.747 85.9201 14.4943C92.5526 17.2416 98.5791 21.2683 103.655 26.3446C108.732 31.4209 112.758 37.4474 115.506 44.0799C118.253 50.7124 119.667 57.821 119.667 65C119.667 72.179 118.253 79.2876 115.506 85.9201C112.758 92.5526 108.732 98.5791 103.655 103.655C98.5791 108.732 92.5526 112.758 85.9201 115.506C79.2876 118.253 72.179 119.667 65 119.667V130Z" stroke="#F57B09" stroke-width="20" mask="url(#path-2-inside-1_264_2)"/>
<circle cx="181" cy="20" r="5" fill="#F57B09"/>
<circle cx="181" cy="46" r="5" fill="#1FD130"/>
<path d="M199.453 15.3926H203.326C204.092 15.3926 204.709 15.6094 205.178 16.043C205.646 16.4727 205.881 17.0781 205.881 17.8594C205.881 18.5312 205.672 19.1172 205.254 19.6172C204.836 20.1133 204.193 20.3613 203.326 20.3613H200.619V24H199.453V15.3926ZM204.703 17.8652C204.703 17.2324 204.469 16.8027 204 16.5762C203.742 16.4551 203.389 16.3945 202.939 16.3945H200.619V19.377H202.939C203.463 19.377 203.887 19.2656 204.211 19.043C204.539 18.8203 204.703 18.4277 204.703 17.8652ZM209.818 17.584C210.264 17.584 210.695 17.6895 211.113 17.9004C211.531 18.1074 211.85 18.377 212.068 18.709C212.279 19.0254 212.42 19.3945 212.49 19.8164C212.553 20.1055 212.584 20.5664 212.584 21.1992H207.984C208.004 21.8359 208.154 22.3477 208.436 22.7344C208.717 23.1172 209.152 23.3086 209.742 23.3086C210.293 23.3086 210.732 23.127 211.061 22.7637C211.248 22.5527 211.381 22.3086 211.459 22.0312H212.496C212.469 22.2617 212.377 22.5195 212.221 22.8047C212.068 23.0859 211.896 23.3164 211.705 23.4961C211.385 23.8086 210.988 24.0195 210.516 24.1289C210.262 24.1914 209.975 24.2227 209.654 24.2227C208.873 24.2227 208.211 23.9395 207.668 23.373C207.125 22.8027 206.854 22.0059 206.854 20.9824C206.854 19.9746 207.127 19.1562 207.674 18.5273C208.221 17.8984 208.936 17.584 209.818 17.584ZM211.5 20.3613C211.457 19.9043 211.357 19.5391 211.201 19.2656C210.912 18.7578 210.43 18.5039 209.754 18.5039C209.27 18.5039 208.863 18.6797 208.535 19.0312C208.207 19.3789 208.033 19.8223 208.014 20.3613H211.5ZM213.885 17.7246H214.887V18.6152C215.184 18.248 215.498 17.9844 215.83 17.8242C216.162 17.6641 216.531 17.584 216.938 17.584C217.828 17.584 218.43 17.8945 218.742 18.5156C218.914 18.8555 219 19.3418 219 19.9746V24H217.928V20.0449C217.928 19.6621 217.871 19.3535 217.758 19.1191C217.57 18.7285 217.23 18.5332 216.738 18.5332C216.488 18.5332 216.283 18.5586 216.123 18.6094C215.834 18.6953 215.58 18.8672 215.361 19.125C215.186 19.332 215.07 19.5469 215.016 19.7695C214.965 19.9883 214.939 20.3027 214.939 20.7129V24H213.885V17.7246ZM221.232 20.9355C221.232 21.6074 221.375 22.1699 221.66 22.623C221.945 23.0762 222.402 23.3027 223.031 23.3027C223.52 23.3027 223.92 23.0938 224.232 22.6758C224.549 22.2539 224.707 21.6504 224.707 20.8652C224.707 20.0723 224.545 19.4863 224.221 19.1074C223.896 18.7246 223.496 18.5332 223.02 18.5332C222.488 18.5332 222.057 18.7363 221.725 19.1426C221.396 19.5488 221.232 20.1465 221.232 20.9355ZM222.82 17.6133C223.301 17.6133 223.703 17.7148 224.027 17.918C224.215 18.0352 224.428 18.2402 224.666 18.5332V15.3633H225.68V24H224.73V23.127C224.484 23.5137 224.193 23.793 223.857 23.9648C223.521 24.1367 223.137 24.2227 222.703 24.2227C222.004 24.2227 221.398 23.9297 220.887 23.3438C220.375 22.7539 220.119 21.9707 220.119 20.9941C220.119 20.0801 220.352 19.2891 220.816 18.6211C221.285 17.9492 221.953 17.6133 222.82 17.6133ZM227.244 17.7539H228.316V24H227.244V17.7539ZM227.244 15.3926H228.316V16.5879H227.244V15.3926ZM229.916 17.7246H230.918V18.6152C231.215 18.248 231.529 17.9844 231.861 17.8242C232.193 17.6641 232.562 17.584 232.969 17.584C233.859 17.584 234.461 17.8945 234.773 18.5156C234.945 18.8555 235.031 19.3418 235.031 19.9746V24H233.959V20.0449C233.959 19.6621 233.902 19.3535 233.789 19.1191C233.602 18.7285 233.262 18.5332 232.77 18.5332C232.52 18.5332 232.314 18.5586 232.154 18.6094C231.865 18.6953 231.611 18.8672 231.393 19.125C231.217 19.332 231.102 19.5469 231.047 19.7695C230.996 19.9883 230.971 20.3027 230.971 20.7129V24H229.916V17.7246ZM238.811 17.6133C239.303 17.6133 239.732 17.7344 240.1 17.9766C240.299 18.1133 240.502 18.3125 240.709 18.5742V17.7832H241.682V23.4902C241.682 24.2871 241.564 24.916 241.33 25.377C240.893 26.2285 240.066 26.6543 238.852 26.6543C238.176 26.6543 237.607 26.502 237.146 26.1973C236.686 25.8965 236.428 25.4238 236.373 24.7793H237.445C237.496 25.0605 237.598 25.2773 237.75 25.4297C237.988 25.6641 238.363 25.7812 238.875 25.7812C239.684 25.7812 240.213 25.4961 240.463 24.9258C240.611 24.5898 240.68 23.9902 240.668 23.127C240.457 23.4473 240.203 23.6855 239.906 23.8418C239.609 23.998 239.217 24.0762 238.729 24.0762C238.049 24.0762 237.453 23.8359 236.941 23.3555C236.434 22.8711 236.18 22.0723 236.18 20.959C236.18 19.9082 236.436 19.0879 236.947 18.498C237.463 17.9082 238.084 17.6133 238.811 17.6133ZM240.709 20.8359C240.709 20.0586 240.549 19.4824 240.229 19.1074C239.908 18.7324 239.5 18.5449 239.004 18.5449C238.262 18.5449 237.754 18.8926 237.48 19.5879C237.336 19.959 237.264 20.4453 237.264 21.0469C237.264 21.7539 237.406 22.293 237.691 22.6641C237.98 23.0312 238.367 23.2148 238.852 23.2148C239.609 23.2148 240.143 22.873 240.451 22.1895C240.623 21.8027 240.709 21.3516 240.709 20.8359ZM247.518 21.2227C247.545 21.7109 247.66 22.1074 247.863 22.4121C248.25 22.9824 248.932 23.2676 249.908 23.2676C250.346 23.2676 250.744 23.2051 251.104 23.0801C251.799 22.8379 252.146 22.4043 252.146 21.7793C252.146 21.3105 252 20.9766 251.707 20.7773C251.41 20.582 250.945 20.4121 250.312 20.2676L249.146 20.0039C248.385 19.832 247.846 19.6426 247.529 19.4355C246.982 19.0762 246.709 18.5391 246.709 17.8242C246.709 17.0508 246.977 16.416 247.512 15.9199C248.047 15.4238 248.805 15.1758 249.785 15.1758C250.688 15.1758 251.453 15.3945 252.082 15.832C252.715 16.2656 253.031 16.9609 253.031 17.918H251.936C251.877 17.457 251.752 17.1035 251.561 16.8574C251.205 16.4082 250.602 16.1836 249.75 16.1836C249.062 16.1836 248.568 16.3281 248.268 16.6172C247.967 16.9062 247.816 17.2422 247.816 17.625C247.816 18.0469 247.992 18.3555 248.344 18.5508C248.574 18.6758 249.096 18.832 249.908 19.0195L251.115 19.2949C251.697 19.4277 252.146 19.6094 252.463 19.8398C253.01 20.2422 253.283 20.8262 253.283 21.5918C253.283 22.5449 252.936 23.2266 252.24 23.6367C251.549 24.0469 250.744 24.252 249.826 24.252C248.756 24.252 247.918 23.9785 247.312 23.4316C246.707 22.8887 246.41 22.1523 246.422 21.2227H247.518ZM254.619 15.3633H255.674V18.5742C255.924 18.2578 256.148 18.0352 256.348 17.9062C256.688 17.6836 257.111 17.5723 257.619 17.5723C258.529 17.5723 259.146 17.8906 259.471 18.5273C259.646 18.875 259.734 19.3574 259.734 19.9746V24H258.65V20.0449C258.65 19.584 258.592 19.2461 258.475 19.0312C258.283 18.6875 257.924 18.5156 257.396 18.5156C256.959 18.5156 256.562 18.666 256.207 18.9668C255.852 19.2676 255.674 19.8359 255.674 20.6719V24H254.619V15.3633ZM261.299 17.7539H262.371V24H261.299V17.7539ZM261.299 15.3926H262.371V16.5879H261.299V15.3926ZM266.619 23.291C267.111 23.291 267.52 23.0859 267.844 22.6758C268.172 22.2617 268.336 21.6445 268.336 20.8242C268.336 20.3242 268.264 19.8945 268.119 19.5352C267.846 18.8438 267.346 18.498 266.619 18.498C265.889 18.498 265.389 18.8633 265.119 19.5938C264.975 19.9844 264.902 20.4805 264.902 21.082C264.902 21.5664 264.975 21.9785 265.119 22.3184C265.393 22.9668 265.893 23.291 266.619 23.291ZM263.889 17.7539H264.914V18.5859C265.125 18.3008 265.355 18.0801 265.605 17.9238C265.961 17.6895 266.379 17.5723 266.859 17.5723C267.57 17.5723 268.174 17.8457 268.67 18.3926C269.166 18.9355 269.414 19.7129 269.414 20.7246C269.414 22.0918 269.057 23.0684 268.342 23.6543C267.889 24.0254 267.361 24.2109 266.76 24.2109C266.287 24.2109 265.891 24.1074 265.57 23.9004C265.383 23.7832 265.174 23.582 264.943 23.2969V26.502H263.889V17.7539ZM270.65 17.7246H271.693V18.6152C271.943 18.3066 272.17 18.082 272.373 17.9414C272.721 17.7031 273.115 17.584 273.557 17.584C274.057 17.584 274.459 17.707 274.764 17.9531C274.936 18.0938 275.092 18.3008 275.232 18.5742C275.467 18.2383 275.742 17.9902 276.059 17.8301C276.375 17.666 276.73 17.584 277.125 17.584C277.969 17.584 278.543 17.8887 278.848 18.498C279.012 18.8262 279.094 19.2676 279.094 19.8223V24H277.998V19.6406C277.998 19.2227 277.893 18.9355 277.682 18.7793C277.475 18.623 277.221 18.5449 276.92 18.5449C276.506 18.5449 276.148 18.6836 275.848 18.9609C275.551 19.2383 275.402 19.7012 275.402 20.3496V24H274.33V19.9043C274.33 19.4785 274.279 19.168 274.178 18.9727C274.018 18.6797 273.719 18.5332 273.281 18.5332C272.883 18.5332 272.52 18.6875 272.191 18.9961C271.867 19.3047 271.705 19.8633 271.705 20.6719V24H270.65V17.7246ZM283.26 17.584C283.705 17.584 284.137 17.6895 284.555 17.9004C284.973 18.1074 285.291 18.377 285.51 18.709C285.721 19.0254 285.861 19.3945 285.932 19.8164C285.994 20.1055 286.025 20.5664 286.025 21.1992H281.426C281.445 21.8359 281.596 22.3477 281.877 22.7344C282.158 23.1172 282.594 23.3086 283.184 23.3086C283.734 23.3086 284.174 23.127 284.502 22.7637C284.689 22.5527 284.822 22.3086 284.9 22.0312H285.938C285.91 22.2617 285.818 22.5195 285.662 22.8047C285.51 23.0859 285.338 23.3164 285.146 23.4961C284.826 23.8086 284.43 24.0195 283.957 24.1289C283.703 24.1914 283.416 24.2227 283.096 24.2227C282.314 24.2227 281.652 23.9395 281.109 23.373C280.566 22.8027 280.295 22.0059 280.295 20.9824C280.295 19.9746 280.568 19.1562 281.115 18.5273C281.662 17.8984 282.377 17.584 283.26 17.584ZM284.941 20.3613C284.898 19.9043 284.799 19.5391 284.643 19.2656C284.354 18.7578 283.871 18.5039 283.195 18.5039C282.711 18.5039 282.305 18.6797 281.977 19.0312C281.648 19.3789 281.475 19.8223 281.455 20.3613H284.941ZM287.326 17.7246H288.328V18.6152C288.625 18.248 288.939 17.9844 289.271 17.8242C289.604 17.6641 289.973 17.584 290.379 17.584C291.27 17.584 291.871 17.8945 292.184 18.5156C292.355 18.8555 292.441 19.3418 292.441 19.9746V24H291.369V20.0449C291.369 19.6621 291.312 19.3535 291.199 19.1191C291.012 18.7285 290.672 18.5332 290.18 18.5332C289.93 18.5332 289.725 18.5586 289.564 18.6094C289.275 18.6953 289.021 18.8672 288.803 19.125C288.627 19.332 288.512 19.5469 288.457 19.7695C288.406 19.9883 288.381 20.3027 288.381 20.7129V24H287.326V17.7246ZM294.217 15.9727H295.283V17.7246H296.285V18.5859H295.283V22.6816C295.283 22.9004 295.357 23.0469 295.506 23.1211C295.588 23.1641 295.725 23.1855 295.916 23.1855C295.967 23.1855 296.021 23.1855 296.08 23.1855C296.139 23.1816 296.207 23.1758 296.285 23.168V24C296.164 24.0352 296.037 24.0605 295.904 24.0762C295.775 24.0918 295.635 24.0996 295.482 24.0996C294.99 24.0996 294.656 23.9746 294.48 23.7246C294.305 23.4707 294.217 23.1426 294.217 22.7402V18.5859H293.367V17.7246H294.217V15.9727ZM297.973 22.0312C298.004 22.3828 298.092 22.6523 298.236 22.8398C298.502 23.1797 298.963 23.3496 299.619 23.3496C300.01 23.3496 300.354 23.2656 300.65 23.0977C300.947 22.9258 301.096 22.6621 301.096 22.3066C301.096 22.0371 300.977 21.832 300.738 21.6914C300.586 21.6055 300.285 21.5059 299.836 21.3926L298.998 21.1816C298.463 21.0488 298.068 20.9004 297.814 20.7363C297.361 20.4512 297.135 20.0566 297.135 19.5527C297.135 18.959 297.348 18.4785 297.773 18.1113C298.203 17.7441 298.779 17.5605 299.502 17.5605C300.447 17.5605 301.129 17.8379 301.547 18.3926C301.809 18.7441 301.936 19.123 301.928 19.5293H300.932C300.912 19.291 300.828 19.0742 300.68 18.8789C300.438 18.6016 300.018 18.4629 299.42 18.4629C299.021 18.4629 298.719 18.5391 298.512 18.6914C298.309 18.8438 298.207 19.0449 298.207 19.2949C298.207 19.5684 298.342 19.7871 298.611 19.9512C298.768 20.0488 298.998 20.1348 299.303 20.209L300 20.3789C300.758 20.5625 301.266 20.7402 301.523 20.9121C301.934 21.1816 302.139 21.6055 302.139 22.1836C302.139 22.7422 301.926 23.2246 301.5 23.6309C301.078 24.0371 300.434 24.2402 299.566 24.2402C298.633 24.2402 297.971 24.0293 297.58 23.6074C297.193 23.1816 296.986 22.6562 296.959 22.0312H297.973Z" fill="black"/>
<path d="M37.8105 86.2227C37.8379 86.7109 37.9531 87.1074 38.1562 87.4121C38.543 87.9824 39.2246 88.2676 40.2012 88.2676C40.6387 88.2676 41.0371 88.2051 41.3965 88.0801C42.0918 87.8379 42.4395 87.4043 42.4395 86.7793C42.4395 86.3105 42.293 85.9766 42 85.7773C41.7031 85.582 41.2383 85.4121 40.6055 85.2676L39.4395 85.0039C38.6777 84.832 38.1387 84.6426 37.8223 84.4355C37.2754 84.0762 37.002 83.5391 37.002 82.8242C37.002 82.0508 37.2695 81.416 37.8047 80.9199C38.3398 80.4238 39.0977 80.1758 40.0781 80.1758C40.9805 80.1758 41.7461 80.3945 42.375 80.832C43.0078 81.2656 43.3242 81.9609 43.3242 82.918H42.2285C42.1699 82.457 42.0449 82.1035 41.8535 81.8574C41.498 81.4082 40.8945 81.1836 40.043 81.1836C39.3555 81.1836 38.8613 81.3281 38.5605 81.6172C38.2598 81.9062 38.1094 82.2422 38.1094 82.625C38.1094 83.0469 38.2852 83.3555 38.6367 83.5508C38.8672 83.6758 39.3887 83.832 40.2012 84.0195L41.4082 84.2949C41.9902 84.4277 42.4395 84.6094 42.7559 84.8398C43.3027 85.2422 43.5762 85.8262 43.5762 86.5918C43.5762 87.5449 43.2285 88.2266 42.5332 88.6367C41.8418 89.0469 41.0371 89.252 40.1191 89.252C39.0488 89.252 38.2109 88.9785 37.6055 88.4316C37 87.8887 36.7031 87.1523 36.7148 86.2227H37.8105ZM44.9121 80.3633H45.9668V83.5742C46.2168 83.2578 46.4414 83.0352 46.6406 82.9062C46.9805 82.6836 47.4043 82.5723 47.9121 82.5723C48.8223 82.5723 49.4395 82.8906 49.7637 83.5273C49.9395 83.875 50.0273 84.3574 50.0273 84.9746V89H48.9434V85.0449C48.9434 84.584 48.8848 84.2461 48.7676 84.0312C48.5762 83.6875 48.2168 83.5156 47.6895 83.5156C47.252 83.5156 46.8555 83.666 46.5 83.9668C46.1445 84.2676 45.9668 84.8359 45.9668 85.6719V89H44.9121V80.3633ZM51.5918 82.7539H52.6641V89H51.5918V82.7539ZM51.5918 80.3926H52.6641V81.5879H51.5918V80.3926ZM56.9121 88.291C57.4043 88.291 57.8125 88.0859 58.1367 87.6758C58.4648 87.2617 58.6289 86.6445 58.6289 85.8242C58.6289 85.3242 58.5566 84.8945 58.4121 84.5352C58.1387 83.8438 57.6387 83.498 56.9121 83.498C56.1816 83.498 55.6816 83.8633 55.4121 84.5938C55.2676 84.9844 55.1953 85.4805 55.1953 86.082C55.1953 86.5664 55.2676 86.9785 55.4121 87.3184C55.6855 87.9668 56.1855 88.291 56.9121 88.291ZM54.1816 82.7539H55.207V83.5859C55.418 83.3008 55.6484 83.0801 55.8984 82.9238C56.2539 82.6895 56.6719 82.5723 57.1523 82.5723C57.8633 82.5723 58.4668 82.8457 58.9629 83.3926C59.459 83.9355 59.707 84.7129 59.707 85.7246C59.707 87.0918 59.3496 88.0684 58.6348 88.6543C58.1816 89.0254 57.6543 89.2109 57.0527 89.2109C56.5801 89.2109 56.1836 89.1074 55.8633 88.9004C55.6758 88.7832 55.4668 88.582 55.2363 88.2969V91.502H54.1816V82.7539ZM60.9434 82.7246H61.9863V83.6152C62.2363 83.3066 62.4629 83.082 62.666 82.9414C63.0137 82.7031 63.4082 82.584 63.8496 82.584C64.3496 82.584 64.752 82.707 65.0566 82.9531C65.2285 83.0938 65.3848 83.3008 65.5254 83.5742C65.7598 83.2383 66.0352 82.9902 66.3516 82.8301C66.668 82.666 67.0234 82.584 67.418 82.584C68.2617 82.584 68.8359 82.8887 69.1406 83.498C69.3047 83.8262 69.3867 84.2676 69.3867 84.8223V89H68.291V84.6406C68.291 84.2227 68.1855 83.9355 67.9746 83.7793C67.7676 83.623 67.5137 83.5449 67.2129 83.5449C66.7988 83.5449 66.4414 83.6836 66.1406 83.9609C65.8438 84.2383 65.6953 84.7012 65.6953 85.3496V89H64.623V84.9043C64.623 84.4785 64.5723 84.168 64.4707 83.9727C64.3105 83.6797 64.0117 83.5332 63.5742 83.5332C63.1758 83.5332 62.8125 83.6875 62.4844 83.9961C62.1602 84.3047 61.998 84.8633 61.998 85.6719V89H60.9434V82.7246ZM73.5527 82.584C73.998 82.584 74.4297 82.6895 74.8477 82.9004C75.2656 83.1074 75.584 83.377 75.8027 83.709C76.0137 84.0254 76.1543 84.3945 76.2246 84.8164C76.2871 85.1055 76.3184 85.5664 76.3184 86.1992H71.7188C71.7383 86.8359 71.8887 87.3477 72.1699 87.7344C72.4512 88.1172 72.8867 88.3086 73.4766 88.3086C74.0273 88.3086 74.4668 88.127 74.7949 87.7637C74.9824 87.5527 75.1152 87.3086 75.1934 87.0312H76.2305C76.2031 87.2617 76.1113 87.5195 75.9551 87.8047C75.8027 88.0859 75.6309 88.3164 75.4395 88.4961C75.1191 88.8086 74.7227 89.0195 74.25 89.1289C73.9961 89.1914 73.709 89.2227 73.3887 89.2227C72.6074 89.2227 71.9453 88.9395 71.4023 88.373C70.8594 87.8027 70.5879 87.0059 70.5879 85.9824C70.5879 84.9746 70.8613 84.1562 71.4082 83.5273C71.9551 82.8984 72.6699 82.584 73.5527 82.584ZM75.2344 85.3613C75.1914 84.9043 75.0918 84.5391 74.9355 84.2656C74.6465 83.7578 74.1641 83.5039 73.4883 83.5039C73.0039 83.5039 72.5977 83.6797 72.2695 84.0312C71.9414 84.3789 71.7676 84.8223 71.748 85.3613H75.2344ZM77.6191 82.7246H78.6211V83.6152C78.918 83.248 79.2324 82.9844 79.5645 82.8242C79.8965 82.6641 80.2656 82.584 80.6719 82.584C81.5625 82.584 82.1641 82.8945 82.4766 83.5156C82.6484 83.8555 82.7344 84.3418 82.7344 84.9746V89H81.6621V85.0449C81.6621 84.6621 81.6055 84.3535 81.4922 84.1191C81.3047 83.7285 80.9648 83.5332 80.4727 83.5332C80.2227 83.5332 80.0176 83.5586 79.8574 83.6094C79.5684 83.6953 79.3145 83.8672 79.0957 84.125C78.9199 84.332 78.8047 84.5469 78.75 84.7695C78.6992 84.9883 78.6738 85.3027 78.6738 85.7129V89H77.6191V82.7246ZM84.5098 80.9727H85.5762V82.7246H86.5781V83.5859H85.5762V87.6816C85.5762 87.9004 85.6504 88.0469 85.7988 88.1211C85.8809 88.1641 86.0176 88.1855 86.209 88.1855C86.2598 88.1855 86.3145 88.1855 86.373 88.1855C86.4316 88.1816 86.5 88.1758 86.5781 88.168V89C86.457 89.0352 86.3301 89.0605 86.1973 89.0762C86.0684 89.0918 85.9277 89.0996 85.7754 89.0996C85.2832 89.0996 84.9492 88.9746 84.7734 88.7246C84.5977 88.4707 84.5098 88.1426 84.5098 87.7402V83.5859H83.6602V82.7246H84.5098V80.9727ZM88.2656 87.0312C88.2969 87.3828 88.3848 87.6523 88.5293 87.8398C88.7949 88.1797 89.2559 88.3496 89.9121 88.3496C90.3027 88.3496 90.6465 88.2656 90.9434 88.0977C91.2402 87.9258 91.3887 87.6621 91.3887 87.3066C91.3887 87.0371 91.2695 86.832 91.0312 86.6914C90.8789 86.6055 90.5781 86.5059 90.1289 86.3926L89.291 86.1816C88.7559 86.0488 88.3613 85.9004 88.1074 85.7363C87.6543 85.4512 87.4277 85.0566 87.4277 84.5527C87.4277 83.959 87.6406 83.4785 88.0664 83.1113C88.4961 82.7441 89.0723 82.5605 89.7949 82.5605C90.7402 82.5605 91.4219 82.8379 91.8398 83.3926C92.1016 83.7441 92.2285 84.123 92.2207 84.5293H91.2246C91.2051 84.291 91.1211 84.0742 90.9727 83.8789C90.7305 83.6016 90.3105 83.4629 89.7129 83.4629C89.3145 83.4629 89.0117 83.5391 88.8047 83.6914C88.6016 83.8438 88.5 84.0449 88.5 84.2949C88.5 84.5684 88.6348 84.7871 88.9043 84.9512C89.0605 85.0488 89.291 85.1348 89.5957 85.209L90.293 85.3789C91.0508 85.5625 91.5586 85.7402 91.8164 85.9121C92.2266 86.1816 92.4316 86.6055 92.4316 87.1836C92.4316 87.7422 92.2188 88.2246 91.793 88.6309C91.3711 89.0371 90.7266 89.2402 89.8594 89.2402C88.9258 89.2402 88.2637 89.0293 87.873 88.6074C87.4863 88.1816 87.2793 87.6562 87.252 87.0312H88.2656Z" fill="black"/>
<path d="M54.1055 55.7227C54.2461 56.9258 54.8047 57.7578 55.7812 58.2188C56.2812 58.4531 56.8594 58.5703 57.5156 58.5703C58.7656 58.5703 59.6914 58.1719 60.293 57.375C60.8945 56.5781 61.1953 55.6953 61.1953 54.7266C61.1953 53.5547 60.8359 52.6484 60.1172 52.0078C59.4062 51.3672 58.5508 51.0469 57.5508 51.0469C56.8242 51.0469 56.1992 51.1875 55.6758 51.4688C55.1602 51.75 54.7188 52.1406 54.3516 52.6406L52.5234 52.5352L53.8008 43.5H62.5195V45.5391H55.3828L54.668 50.2031C55.0586 49.9062 55.4297 49.6836 55.7812 49.5352C56.4062 49.2773 57.1289 49.1484 57.9492 49.1484C59.4883 49.1484 60.793 49.6445 61.8633 50.6367C62.9336 51.6289 63.4688 52.8867 63.4688 54.4102C63.4688 55.9961 62.9766 57.3945 61.9922 58.6055C61.0156 59.8164 59.4531 60.4219 57.3047 60.4219C55.9375 60.4219 54.7266 60.0391 53.6719 59.2734C52.625 58.5 52.0391 57.3164 51.9141 55.7227H54.1055ZM70.9922 43.2188C73.1641 43.2188 74.7344 44.1133 75.7031 45.9023C76.4531 47.2852 76.8281 49.1797 76.8281 51.5859C76.8281 53.8672 76.4883 55.7539 75.8086 57.2461C74.8242 59.3867 73.2148 60.457 70.9805 60.457C68.9648 60.457 67.4648 59.582 66.4805 57.832C65.6602 56.3711 65.25 54.4102 65.25 51.9492C65.25 50.043 65.4961 48.4062 65.9883 47.0391C66.9102 44.4922 68.5781 43.2188 70.9922 43.2188ZM70.9688 58.5352C72.0625 58.5352 72.9336 58.0508 73.582 57.082C74.2305 56.1133 74.5547 54.3086 74.5547 51.668C74.5547 49.7617 74.3203 48.1953 73.8516 46.9688C73.3828 45.7344 72.4727 45.1172 71.1211 45.1172C69.8789 45.1172 68.9688 45.7031 68.3906 46.875C67.8203 48.0391 67.5352 49.7578 67.5352 52.0312C67.5352 53.7422 67.7188 55.1172 68.0859 56.1562C68.6484 57.7422 69.6094 58.5352 70.9688 58.5352Z" fill="black"/>
<path d="M202.967 41.1582C204.057 41.1582 204.902 41.4453 205.504 42.0195C206.105 42.5938 206.439 43.2461 206.506 43.9766H205.369C205.24 43.4219 204.982 42.9824 204.596 42.6582C204.213 42.334 203.674 42.1719 202.979 42.1719C202.131 42.1719 201.445 42.4707 200.922 43.0684C200.402 43.6621 200.143 44.5742 200.143 45.8047C200.143 46.8125 200.377 47.6309 200.846 48.2598C201.318 48.8848 202.021 49.1973 202.955 49.1973C203.814 49.1973 204.469 48.8672 204.918 48.207C205.156 47.8594 205.334 47.4023 205.451 46.8359H206.588C206.486 47.7422 206.15 48.502 205.58 49.1152C204.896 49.8535 203.975 50.2227 202.814 50.2227C201.814 50.2227 200.975 49.9199 200.295 49.3145C199.4 48.5137 198.953 47.2773 198.953 45.6055C198.953 44.3359 199.289 43.2949 199.961 42.4824C200.688 41.5996 201.689 41.1582 202.967 41.1582ZM210.361 49.3203C211.061 49.3203 211.539 49.0566 211.797 48.5293C212.059 47.998 212.189 47.4082 212.189 46.7598C212.189 46.1738 212.096 45.6973 211.908 45.3301C211.611 44.752 211.1 44.4629 210.373 44.4629C209.729 44.4629 209.26 44.709 208.967 45.2012C208.674 45.6934 208.527 46.2871 208.527 46.9824C208.527 47.6504 208.674 48.207 208.967 48.6523C209.26 49.0977 209.725 49.3203 210.361 49.3203ZM210.402 43.543C211.211 43.543 211.895 43.8125 212.453 44.3516C213.012 44.8906 213.291 45.6836 213.291 46.7305C213.291 47.7422 213.045 48.5781 212.553 49.2383C212.061 49.8984 211.297 50.2285 210.262 50.2285C209.398 50.2285 208.713 49.9375 208.205 49.3555C207.697 48.7695 207.443 47.9844 207.443 47C207.443 45.9453 207.711 45.1055 208.246 44.4805C208.781 43.8555 209.5 43.543 210.402 43.543ZM214.551 43.7246H215.594V44.6152C215.844 44.3066 216.07 44.082 216.273 43.9414C216.621 43.7031 217.016 43.584 217.457 43.584C217.957 43.584 218.359 43.707 218.664 43.9531C218.836 44.0938 218.992 44.3008 219.133 44.5742C219.367 44.2383 219.643 43.9902 219.959 43.8301C220.275 43.666 220.631 43.584 221.025 43.584C221.869 43.584 222.443 43.8887 222.748 44.498C222.912 44.8262 222.994 45.2676 222.994 45.8223V50H221.898V45.6406C221.898 45.2227 221.793 44.9355 221.582 44.7793C221.375 44.623 221.121 44.5449 220.82 44.5449C220.406 44.5449 220.049 44.6836 219.748 44.9609C219.451 45.2383 219.303 45.7012 219.303 46.3496V50H218.23V45.9043C218.23 45.4785 218.18 45.168 218.078 44.9727C217.918 44.6797 217.619 44.5332 217.182 44.5332C216.783 44.5332 216.42 44.6875 216.092 44.9961C215.768 45.3047 215.605 45.8633 215.605 46.6719V50H214.551V43.7246ZM227.195 49.291C227.688 49.291 228.096 49.0859 228.42 48.6758C228.748 48.2617 228.912 47.6445 228.912 46.8242C228.912 46.3242 228.84 45.8945 228.695 45.5352C228.422 44.8438 227.922 44.498 227.195 44.498C226.465 44.498 225.965 44.8633 225.695 45.5938C225.551 45.9844 225.479 46.4805 225.479 47.082C225.479 47.5664 225.551 47.9785 225.695 48.3184C225.969 48.9668 226.469 49.291 227.195 49.291ZM224.465 43.7539H225.49V44.5859C225.701 44.3008 225.932 44.0801 226.182 43.9238C226.537 43.6895 226.955 43.5723 227.436 43.5723C228.146 43.5723 228.75 43.8457 229.246 44.3926C229.742 44.9355 229.99 45.7129 229.99 46.7246C229.99 48.0918 229.633 49.0684 228.918 49.6543C228.465 50.0254 227.938 50.2109 227.336 50.2109C226.863 50.2109 226.467 50.1074 226.146 49.9004C225.959 49.7832 225.75 49.582 225.52 49.2969V52.502H224.465V43.7539ZM231.256 41.3926H232.311V50H231.256V41.3926ZM236.512 43.584C236.957 43.584 237.389 43.6895 237.807 43.9004C238.225 44.1074 238.543 44.377 238.762 44.709C238.973 45.0254 239.113 45.3945 239.184 45.8164C239.246 46.1055 239.277 46.5664 239.277 47.1992H234.678C234.697 47.8359 234.848 48.3477 235.129 48.7344C235.41 49.1172 235.846 49.3086 236.436 49.3086C236.986 49.3086 237.426 49.127 237.754 48.7637C237.941 48.5527 238.074 48.3086 238.152 48.0312H239.189C239.162 48.2617 239.07 48.5195 238.914 48.8047C238.762 49.0859 238.59 49.3164 238.398 49.4961C238.078 49.8086 237.682 50.0195 237.209 50.1289C236.955 50.1914 236.668 50.2227 236.348 50.2227C235.566 50.2227 234.904 49.9395 234.361 49.373C233.818 48.8027 233.547 48.0059 233.547 46.9824C233.547 45.9746 233.82 45.1562 234.367 44.5273C234.914 43.8984 235.629 43.584 236.512 43.584ZM238.193 46.3613C238.15 45.9043 238.051 45.5391 237.895 45.2656C237.605 44.7578 237.123 44.5039 236.447 44.5039C235.963 44.5039 235.557 44.6797 235.229 45.0312C234.9 45.3789 234.727 45.8223 234.707 46.3613H238.193ZM240.789 41.9727H241.855V43.7246H242.857V44.5859H241.855V48.6816C241.855 48.9004 241.93 49.0469 242.078 49.1211C242.16 49.1641 242.297 49.1855 242.488 49.1855C242.539 49.1855 242.594 49.1855 242.652 49.1855C242.711 49.1816 242.779 49.1758 242.857 49.168V50C242.736 50.0352 242.609 50.0605 242.477 50.0762C242.348 50.0918 242.207 50.0996 242.055 50.0996C241.562 50.0996 241.229 49.9746 241.053 49.7246C240.877 49.4707 240.789 49.1426 240.789 48.7402V44.5859H239.939V43.7246H240.789V41.9727ZM246.531 43.584C246.977 43.584 247.408 43.6895 247.826 43.9004C248.244 44.1074 248.562 44.377 248.781 44.709C248.992 45.0254 249.133 45.3945 249.203 45.8164C249.266 46.1055 249.297 46.5664 249.297 47.1992H244.697C244.717 47.8359 244.867 48.3477 245.148 48.7344C245.43 49.1172 245.865 49.3086 246.455 49.3086C247.006 49.3086 247.445 49.127 247.773 48.7637C247.961 48.5527 248.094 48.3086 248.172 48.0312H249.209C249.182 48.2617 249.09 48.5195 248.934 48.8047C248.781 49.0859 248.609 49.3164 248.418 49.4961C248.098 49.8086 247.701 50.0195 247.229 50.1289C246.975 50.1914 246.688 50.2227 246.367 50.2227C245.586 50.2227 244.924 49.9395 244.381 49.373C243.838 48.8027 243.566 48.0059 243.566 46.9824C243.566 45.9746 243.84 45.1562 244.387 44.5273C244.934 43.8984 245.648 43.584 246.531 43.584ZM248.213 46.3613C248.17 45.9043 248.07 45.5391 247.914 45.2656C247.625 44.7578 247.143 44.5039 246.467 44.5039C245.982 44.5039 245.576 44.6797 245.248 45.0312C244.92 45.3789 244.746 45.8223 244.727 46.3613H248.213ZM251.266 46.9355C251.266 47.6074 251.408 48.1699 251.693 48.623C251.979 49.0762 252.436 49.3027 253.064 49.3027C253.553 49.3027 253.953 49.0938 254.266 48.6758C254.582 48.2539 254.74 47.6504 254.74 46.8652C254.74 46.0723 254.578 45.4863 254.254 45.1074C253.93 44.7246 253.529 44.5332 253.053 44.5332C252.521 44.5332 252.09 44.7363 251.758 45.1426C251.43 45.5488 251.266 46.1465 251.266 46.9355ZM252.854 43.6133C253.334 43.6133 253.736 43.7148 254.061 43.918C254.248 44.0352 254.461 44.2402 254.699 44.5332V41.3633H255.713V50H254.764V49.127C254.518 49.5137 254.227 49.793 253.891 49.9648C253.555 50.1367 253.17 50.2227 252.736 50.2227C252.037 50.2227 251.432 49.9297 250.92 49.3438C250.408 48.7539 250.152 47.9707 250.152 46.9941C250.152 46.0801 250.385 45.2891 250.85 44.6211C251.318 43.9492 251.986 43.6133 252.854 43.6133ZM261.52 47.2227C261.547 47.7109 261.662 48.1074 261.865 48.4121C262.252 48.9824 262.934 49.2676 263.91 49.2676C264.348 49.2676 264.746 49.2051 265.105 49.0801C265.801 48.8379 266.148 48.4043 266.148 47.7793C266.148 47.3105 266.002 46.9766 265.709 46.7773C265.412 46.582 264.947 46.4121 264.314 46.2676L263.148 46.0039C262.387 45.832 261.848 45.6426 261.531 45.4355C260.984 45.0762 260.711 44.5391 260.711 43.8242C260.711 43.0508 260.979 42.416 261.514 41.9199C262.049 41.4238 262.807 41.1758 263.787 41.1758C264.689 41.1758 265.455 41.3945 266.084 41.832C266.717 42.2656 267.033 42.9609 267.033 43.918H265.938C265.879 43.457 265.754 43.1035 265.562 42.8574C265.207 42.4082 264.604 42.1836 263.752 42.1836C263.064 42.1836 262.57 42.3281 262.27 42.6172C261.969 42.9062 261.818 43.2422 261.818 43.625C261.818 44.0469 261.994 44.3555 262.346 44.5508C262.576 44.6758 263.098 44.832 263.91 45.0195L265.117 45.2949C265.699 45.4277 266.148 45.6094 266.465 45.8398C267.012 46.2422 267.285 46.8262 267.285 47.5918C267.285 48.5449 266.938 49.2266 266.242 49.6367C265.551 50.0469 264.746 50.252 263.828 50.252C262.758 50.252 261.92 49.9785 261.314 49.4316C260.709 48.8887 260.412 48.1523 260.424 47.2227H261.52ZM268.621 41.3633H269.676V44.5742C269.926 44.2578 270.15 44.0352 270.35 43.9062C270.689 43.6836 271.113 43.5723 271.621 43.5723C272.531 43.5723 273.148 43.8906 273.473 44.5273C273.648 44.875 273.736 45.3574 273.736 45.9746V50H272.652V46.0449C272.652 45.584 272.594 45.2461 272.477 45.0312C272.285 44.6875 271.926 44.5156 271.398 44.5156C270.961 44.5156 270.564 44.666 270.209 44.9668C269.854 45.2676 269.676 45.8359 269.676 46.6719V50H268.621V41.3633ZM275.301 43.7539H276.373V50H275.301V43.7539ZM275.301 41.3926H276.373V42.5879H275.301V41.3926ZM280.621 49.291C281.113 49.291 281.521 49.0859 281.846 48.6758C282.174 48.2617 282.338 47.6445 282.338 46.8242C282.338 46.3242 282.266 45.8945 282.121 45.5352C281.848 44.8438 281.348 44.498 280.621 44.498C279.891 44.498 279.391 44.8633 279.121 45.5938C278.977 45.9844 278.904 46.4805 278.904 47.082C278.904 47.5664 278.977 47.9785 279.121 48.3184C279.395 48.9668 279.895 49.291 280.621 49.291ZM277.891 43.7539H278.916V44.5859C279.127 44.3008 279.357 44.0801 279.607 43.9238C279.963 43.6895 280.381 43.5723 280.861 43.5723C281.572 43.5723 282.176 43.8457 282.672 44.3926C283.168 44.9355 283.416 45.7129 283.416 46.7246C283.416 48.0918 283.059 49.0684 282.344 49.6543C281.891 50.0254 281.363 50.2109 280.762 50.2109C280.289 50.2109 279.893 50.1074 279.572 49.9004C279.385 49.7832 279.176 49.582 278.945 49.2969V52.502H277.891V43.7539ZM284.652 43.7246H285.695V44.6152C285.945 44.3066 286.172 44.082 286.375 43.9414C286.723 43.7031 287.117 43.584 287.559 43.584C288.059 43.584 288.461 43.707 288.766 43.9531C288.938 44.0938 289.094 44.3008 289.234 44.5742C289.469 44.2383 289.744 43.9902 290.061 43.8301C290.377 43.666 290.732 43.584 291.127 43.584C291.971 43.584 292.545 43.8887 292.85 44.498C293.014 44.8262 293.096 45.2676 293.096 45.8223V50H292V45.6406C292 45.2227 291.895 44.9355 291.684 44.7793C291.477 44.623 291.223 44.5449 290.922 44.5449C290.508 44.5449 290.15 44.6836 289.85 44.9609C289.553 45.2383 289.404 45.7012 289.404 46.3496V50H288.332V45.9043C288.332 45.4785 288.281 45.168 288.18 44.9727C288.02 44.6797 287.721 44.5332 287.283 44.5332C286.885 44.5332 286.521 44.6875 286.193 44.9961C285.869 45.3047 285.707 45.8633 285.707 46.6719V50H284.652V43.7246ZM297.262 43.584C297.707 43.584 298.139 43.6895 298.557 43.9004C298.975 44.1074 299.293 44.377 299.512 44.709C299.723 45.0254 299.863 45.3945 299.934 45.8164C299.996 46.1055 300.027 46.5664 300.027 47.1992H295.428C295.447 47.8359 295.598 48.3477 295.879 48.7344C296.16 49.1172 296.596 49.3086 297.186 49.3086C297.736 49.3086 298.176 49.127 298.504 48.7637C298.691 48.5527 298.824 48.3086 298.902 48.0312H299.939C299.912 48.2617 299.82 48.5195 299.664 48.8047C299.512 49.0859 299.34 49.3164 299.148 49.4961C298.828 49.8086 298.432 50.0195 297.959 50.1289C297.705 50.1914 297.418 50.2227 297.098 50.2227C296.316 50.2227 295.654 49.9395 295.111 49.373C294.568 48.8027 294.297 48.0059 294.297 46.9824C294.297 45.9746 294.57 45.1562 295.117 44.5273C295.664 43.8984 296.379 43.584 297.262 43.584ZM298.943 46.3613C298.9 45.9043 298.801 45.5391 298.645 45.2656C298.355 44.7578 297.873 44.5039 297.197 44.5039C296.713 44.5039 296.307 44.6797 295.979 45.0312C295.65 45.3789 295.477 45.8223 295.457 46.3613H298.943ZM301.328 43.7246H302.33V44.6152C302.627 44.248 302.941 43.9844 303.273 43.8242C303.605 43.6641 303.975 43.584 304.381 43.584C305.271 43.584 305.873 43.8945 306.186 44.5156C306.357 44.8555 306.443 45.3418 306.443 45.9746V50H305.371V46.0449C305.371 45.6621 305.314 45.3535 305.201 45.1191C305.014 44.7285 304.674 44.5332 304.182 44.5332C303.932 44.5332 303.727 44.5586 303.566 44.6094C303.277 44.6953 303.023 44.8672 302.805 45.125C302.629 45.332 302.514 45.5469 302.459 45.7695C302.408 45.9883 302.383 46.3027 302.383 46.7129V50H301.328V43.7246ZM308.219 41.9727H309.285V43.7246H310.287V44.5859H309.285V48.6816C309.285 48.9004 309.359 49.0469 309.508 49.1211C309.59 49.1641 309.727 49.1855 309.918 49.1855C309.969 49.1855 310.023 49.1855 310.082 49.1855C310.141 49.1816 310.209 49.1758 310.287 49.168V50C310.166 50.0352 310.039 50.0605 309.906 50.0762C309.777 50.0918 309.637 50.0996 309.484 50.0996C308.992 50.0996 308.658 49.9746 308.482 49.7246C308.307 49.4707 308.219 49.1426 308.219 48.7402V44.5859H307.369V43.7246H308.219V41.9727ZM311.975 48.0312C312.006 48.3828 312.094 48.6523 312.238 48.8398C312.504 49.1797 312.965 49.3496 313.621 49.3496C314.012 49.3496 314.355 49.2656 314.652 49.0977C314.949 48.9258 315.098 48.6621 315.098 48.3066C315.098 48.0371 314.979 47.832 314.74 47.6914C314.588 47.6055 314.287 47.5059 313.838 47.3926L313 47.1816C312.465 47.0488 312.07 46.9004 311.816 46.7363C311.363 46.4512 311.137 46.0566 311.137 45.5527C311.137 44.959 311.35 44.4785 311.775 44.1113C312.205 43.7441 312.781 43.5605 313.504 43.5605C314.449 43.5605 315.131 43.8379 315.549 44.3926C315.811 44.7441 315.938 45.123 315.93 45.5293H314.934C314.914 45.291 314.83 45.0742 314.682 44.8789C314.439 44.6016 314.02 44.4629 313.422 44.4629C313.023 44.4629 312.721 44.5391 312.514 44.6914C312.311 44.8438 312.209 45.0449 312.209 45.2949C312.209 45.5684 312.344 45.7871 312.613 45.9512C312.77 46.0488 313 46.1348 313.305 46.209L314.002 46.3789C314.76 46.5625 315.268 46.7402 315.525 46.9121C315.936 47.1816 316.141 47.6055 316.141 48.1836C316.141 48.7422 315.928 49.2246 315.502 49.6309C315.08 50.0371 314.436 50.2402 313.568 50.2402C312.635 50.2402 311.973 50.0293 311.582 49.6074C311.195 49.1816 310.988 48.6562 310.961 48.0312H311.975Z" fill="black"/>
</svg>
