<svg width="25" height="17" viewBox="0 0 25 17" fill="none" xmlns="http://www.w3.org/2000/svg">
<path d="M0.738133 6.11428e-06C0.332147 -0.00162943 0.00168056 0.325069 0 0.729852V14.4198C0.00164117 14.8244 0.332131 15.1511 0.738133 15.1496H2.76147C3.08006 16.2149 4.07562 17 5.24292 17C6.41038 17 7.40722 16.2151 7.72579 15.1496H17.8543V15.151C18.2365 16.1064 19.1787 16.7897 20.2668 16.7897C21.355 16.7897 22.2945 16.105 22.675 15.1496H24.2662C24.6707 15.1488 24.9985 14.8227 25 14.4198V8.99448C25.0006 8.89819 24.9819 8.80291 24.9456 8.71398L22.997 4.02999C22.8833 3.75358 22.6129 3.57367 22.3134 3.5749H16.8967V0.729886C16.8951 0.325087 16.5646 -0.00163474 16.1586 4.00551e-05L0.738133 6.11428e-06ZM1.47049 1.46116H15.4259V13.6841L7.72479 13.6839C7.40415 12.6204 6.4086 11.8351 5.24334 11.8351C4.07829 11.8351 3.08398 12.6206 2.76331 13.6841L1.47091 13.6839L1.47049 1.46116ZM16.8964 5.04178H21.8249L23.1618 8.25891H16.8965L16.8964 5.04178ZM16.8964 9.72577H23.5278V13.6842L22.8012 13.684C22.5554 12.516 21.5075 11.6289 20.2666 11.6289C19.0254 11.6289 17.973 12.516 17.7263 13.684H16.8962L16.8964 9.72577ZM20.2668 13.0946C20.8933 13.0946 21.3855 13.585 21.3855 14.2094C21.3855 14.8338 20.8933 15.3228 20.2668 15.3228C19.6403 15.3228 19.1438 14.8338 19.1438 14.2094C19.1438 13.585 19.6403 13.0946 20.2668 13.0946ZM5.24313 13.3007C5.86966 13.3007 6.36181 13.7954 6.36181 14.4198C6.36181 15.0442 5.86966 15.5346 5.24313 15.5346C4.6166 15.5346 4.12593 15.0442 4.12593 14.4198C4.12593 13.7954 4.61664 13.3007 5.24313 13.3007Z" fill="black"/>
</svg>
