<svg width="18" height="18" viewBox="0 0 18 18" fill="none" xmlns="http://www.w3.org/2000/svg">
<path d="M9.00018 12.682C8.02374 12.682 7.08727 12.2941 6.3968 11.6036C5.70629 10.913 5.31836 9.97662 5.31836 9.00018C5.31836 8.02374 5.70629 7.08727 6.3968 6.3968C7.08731 5.70629 8.02374 5.31836 9.00018 5.31836C9.97662 5.31836 10.9131 5.70629 11.6036 6.3968C12.2941 7.08731 12.682 8.02374 12.682 9.00018C12.6809 9.97635 12.2927 10.9122 11.6023 11.6023C10.9122 12.2927 9.97635 12.6809 9.00018 12.682ZM9.00018 6.95472C8.45761 6.95472 7.93744 7.17022 7.55375 7.55375C7.17022 7.93743 6.95472 8.45761 6.95472 9.00018C6.95472 9.54275 7.17022 10.0629 7.55375 10.4466C7.93743 10.8301 8.45761 11.0456 9.00018 11.0456C9.54275 11.0456 10.0629 10.8301 10.4466 10.4466C10.8301 10.0629 11.0456 9.54275 11.0456 9.00018C11.045 8.45792 10.8294 7.93787 10.4458 7.55453C10.0625 7.171 9.5424 6.95535 9.00018 6.95472Z" fill="black"/>
<path d="M9.8182 18H8.18184C7.74793 17.9995 7.33213 17.827 7.02532 17.5202C6.7185 17.2134 6.5459 16.7975 6.54547 16.3636V15.9445C6.30029 15.858 6.05998 15.7584 5.82547 15.646L5.52261 15.9486C5.21777 16.2548 4.80335 16.4263 4.37127 16.4251C3.93935 16.426 3.52492 16.254 3.22056 15.9474L2.05749 14.7852C1.75068 14.4784 1.57823 14.0621 1.57823 13.6283C1.57823 13.1944 1.75067 12.7781 2.05749 12.4713L2.35396 12.1746C2.2418 11.94 2.14227 11.6997 2.05597 11.4546H1.6283C1.19653 11.4541 0.782572 11.2824 0.477429 10.9771C0.172134 10.672 0.000467533 10.258 0 9.82625V8.18182C0.000456585 7.74792 0.173041 7.33212 0.479844 7.0253C0.786647 6.71849 1.20245 6.54589 1.63636 6.54546H2.05597C2.14227 6.30028 2.2418 6.05997 2.35396 5.82546L2.05171 5.5229H2.05186C1.74642 5.21761 1.5749 4.80349 1.5749 4.37157C1.5749 3.9398 1.74642 3.52568 2.05186 3.22038L3.21462 2.05747H3.21447C3.52615 1.75948 3.94074 1.59329 4.37188 1.59329C4.80302 1.59329 5.21745 1.75948 5.52914 2.05747L5.82546 2.35349C6.05999 2.24117 6.30032 2.14149 6.54546 2.05504V1.6283C6.54592 1.19653 6.71759 0.782572 7.02289 0.477429C7.32803 0.172134 7.74199 0.000467533 8.17376 0H9.81819C10.2521 0.000456584 10.6679 0.173042 10.9747 0.479844C11.2815 0.786647 11.4541 1.20245 11.4546 1.63636V2.05551C11.6997 2.14195 11.94 2.24164 12.1746 2.35396L12.4718 2.05703H12.4716C12.7835 1.76026 13.1976 1.59468 13.6281 1.59468C14.0586 1.59468 14.4727 1.76026 14.7845 2.05703L15.9409 3.21476C16.2477 3.52158 16.42 3.93784 16.42 4.37171C16.42 4.80558 16.2477 5.22184 15.9409 5.52865L15.6444 5.82543H15.6443C15.7564 6.05995 15.856 6.30029 15.9424 6.54543H16.3636C16.7976 6.54589 17.2133 6.71847 17.5202 7.02527C17.827 7.33208 17.9996 7.74788 18 8.18179V9.81816C17.9996 10.2521 17.827 10.6679 17.5202 10.9747C17.2134 11.2815 16.7976 11.4541 16.3636 11.4545H15.944C15.8577 11.6997 15.7582 11.94 15.646 12.1745L15.9425 12.4713C16.2495 12.7781 16.4219 13.1944 16.4219 13.6284C16.4219 14.0623 16.2495 14.4785 15.9425 14.7855L14.7861 15.9419C14.4743 16.2394 14.0599 16.4053 13.6289 16.4053C13.1977 16.4053 12.7833 16.2394 12.4715 15.9419L12.1745 15.646C11.94 15.7583 11.6997 15.858 11.4545 15.9445V16.3636C11.4541 16.7975 11.2815 17.2133 10.9747 17.5201C10.6679 17.8269 10.2521 17.9995 9.81818 18L9.8182 18ZM5.67547 13.8218C5.82188 13.8215 5.9657 13.8609 6.09173 13.9357C6.55241 14.2082 7.04916 14.4143 7.56754 14.5476C7.74332 14.5927 7.89916 14.6951 8.01041 14.8385C8.12166 14.982 8.18208 15.1584 8.18192 15.3399V16.3635H9.81829V15.3391C9.81814 15.1576 9.87856 14.9812 9.98981 14.8378C10.1011 14.6943 10.2569 14.592 10.4327 14.547C10.9511 14.4137 11.4478 14.2076 11.9085 13.935C12.0648 13.8428 12.2473 13.8051 12.4273 13.8277C12.6072 13.8506 12.7746 13.9323 12.9032 14.0604L13.6288 14.7852L14.7852 13.6288L14.062 12.9035C13.9337 12.775 13.8517 12.6078 13.8289 12.4279C13.806 12.2479 13.8435 12.0655 13.9355 11.9092C14.2083 11.4479 14.4145 10.9506 14.5484 10.4319C14.5936 10.2563 14.696 10.1006 14.8392 9.98952C14.9826 9.87842 15.1588 9.81815 15.3402 9.81815H16.3637V8.18179H15.3393C15.1581 8.18179 14.9818 8.12167 14.8385 8.01057C14.6951 7.89947 14.5929 7.74393 14.5477 7.56829C14.4137 7.04948 14.2074 6.55195 13.9348 6.09065C13.8427 5.93435 13.8051 5.75203 13.828 5.572C13.8508 5.39211 13.9328 5.22485 14.0611 5.09641L14.7857 4.37165L13.6294 3.21529L12.9037 3.94031C12.7753 4.06846 12.6078 4.15034 12.4278 4.17317C12.2478 4.19585 12.0651 4.1581 11.909 4.06572C11.4483 3.79345 10.9514 3.58783 10.4332 3.45481C10.2573 3.40977 10.1014 3.30749 9.99032 3.16398C9.87906 3.02046 9.81865 2.84407 9.8188 2.66266V1.63627H8.1739L8.18197 2.66173C8.18212 2.8433 8.1217 3.01968 8.01045 3.16304C7.8992 3.30656 7.74335 3.40883 7.56758 3.45388C7.0492 3.58735 6.55245 3.79326 6.09178 4.06599C5.93563 4.15837 5.753 4.19612 5.57297 4.17344C5.39293 4.15076 5.22552 4.06873 5.09706 3.94043L4.37141 3.21568L3.20897 4.37843L3.93918 5.09843V5.09828C4.06748 5.22658 4.1495 5.39384 4.17234 5.57388C4.19516 5.75377 4.15757 5.93625 4.0655 6.09253C3.79292 6.55383 3.58655 7.05132 3.45264 7.57017C3.40744 7.74579 3.30516 7.90133 3.1618 8.01245C3.01844 8.1234 2.8422 8.18367 2.66096 8.18367H1.63656V9.82809L2.66201 9.82003C2.84342 9.82003 3.01966 9.8803 3.16286 9.99139C3.30622 10.1025 3.40864 10.258 3.45369 10.4338C3.58777 10.9524 3.79399 11.4498 4.06655 11.9111C4.15863 12.0674 4.19622 12.2497 4.17339 12.4298C4.15056 12.6097 4.06853 12.7769 3.94023 12.9052L3.21563 13.63L4.37897 14.7929L5.09897 14.0622V14.0624C5.25192 13.9092 5.45906 13.8227 5.67548 13.8217L5.67547 13.8218Z" fill="black"/>
</svg>
