<svg width="19" height="20" viewBox="0 0 19 20" fill="none" xmlns="http://www.w3.org/2000/svg">
<path d="M13.5951 5.88239H17.5167C17.8042 5.88239 18.0395 5.64713 18.0395 5.35955V2.74516C18.0395 1.22881 16.8107 0 15.2943 0H15.1112H15.0328H2.74516C1.22881 0 0 1.22877 0 2.74516V17.5165C0 17.5688 1.75309e-07 17.5949 0.0260783 17.6472C1.75309e-07 17.778 3.00529e-07 17.9348 0.104496 18.0656L1.15016 19.6343C1.25466 19.7912 1.41167 19.8696 1.59458 19.8696C1.77768 19.8696 1.93451 19.7912 2.03901 19.6343L2.64027 18.7192L3.24153 19.6343C3.34603 19.7912 3.50305 19.8696 3.68596 19.8696C3.86905 19.8696 4.02589 19.7912 4.13038 19.6343L4.73165 18.7192L5.33291 19.6343C5.43741 19.7912 5.59442 19.8696 5.77733 19.8696C5.96043 19.8696 6.11726 19.7912 6.22176 19.6343L6.82302 18.7192L7.42428 19.6343C7.52878 19.7912 7.6858 19.8696 7.86871 19.8696C8.0518 19.8696 8.20864 19.7912 8.31313 19.6343L8.9144 18.7192L9.51566 19.6343C9.62016 19.7912 9.77717 19.8696 9.96008 19.8696C10.1432 19.8696 10.3 19.7912 10.4045 19.6343L11.0058 18.7192L11.607 19.6343C11.7115 19.7912 11.8685 19.8696 12.0515 19.8696C12.2346 19.8696 12.3914 19.7912 12.4959 19.6343L13.5415 18.0656C13.62 17.9348 13.646 17.778 13.62 17.6472C13.62 17.5949 13.646 17.5688 13.646 17.5165L13.6471 5.88243L13.5951 5.88239ZM13.5951 2.74516C13.5951 1.80398 14.3531 1.0459 15.2943 1.0459C16.2355 1.0459 16.9936 1.80398 16.9936 2.74516V4.83672H13.5948L13.5951 2.74516ZM12.5494 17.5949L12.0266 18.4053L11.4253 17.4902C11.3208 17.3334 11.1638 17.2549 10.9809 17.2549C10.7978 17.2549 10.641 17.3334 10.5365 17.4902L9.93519 18.4053L9.33393 17.4902C9.22943 17.3334 9.07241 17.2549 8.8895 17.2549C8.70641 17.2549 8.54958 17.3334 8.44508 17.4902L7.84382 18.4053L7.24255 17.4902C7.13806 17.3334 6.98104 17.2549 6.79813 17.2549C6.61503 17.2549 6.4582 17.3334 6.3537 17.4902L5.75244 18.4053L5.15118 17.4902C5.04668 17.3334 4.88966 17.2549 4.70675 17.2549C4.52366 17.2549 4.36683 17.3334 4.26233 17.4902L3.66107 18.4053L3.0598 17.4902C2.95531 17.3334 2.79829 17.2549 2.61538 17.2549C2.43228 17.2549 2.27545 17.3334 2.17096 17.4902L1.56969 18.4053L1.04686 17.621V17.5425L1.04595 2.74508C1.04595 1.8039 1.80403 1.04582 2.74521 1.04582H13.1505C12.7845 1.51632 12.5492 2.09148 12.5492 2.74508L12.5494 17.5164V17.5948L12.5494 17.5949Z" fill="black"/>
<path d="M9.67342 3.1377H3.92176C3.63417 3.1377 3.39893 3.37295 3.39893 3.66053C3.39893 3.94811 3.63418 4.18336 3.92176 4.18336H9.67342C9.96102 4.18336 10.1963 3.94811 10.1963 3.66053C10.1963 3.37312 9.961 3.1377 9.67342 3.1377Z" fill="black"/>
<path d="M9.67342 5.75195H3.92176C3.63417 5.75195 3.39893 5.98721 3.39893 6.27479C3.39893 6.56236 3.63418 6.79762 3.92176 6.79762H9.67342C9.96102 6.79762 10.1963 6.56236 10.1963 6.27479C10.1963 5.98738 9.961 5.75195 9.67342 5.75195Z" fill="black"/>
<path d="M9.67342 8.62695H3.92176C3.63417 8.62695 3.39893 8.86221 3.39893 9.14979C3.39893 9.43738 3.63418 9.67262 3.92176 9.67262H9.67342C9.96102 9.67262 10.1963 9.43736 10.1963 9.14979C10.1963 8.86219 9.961 8.62695 9.67342 8.62695Z" fill="black"/>
<path d="M9.67342 11.2422H3.92176C3.63417 11.2422 3.39893 11.4774 3.39893 11.765C3.39893 12.0526 3.63418 12.2879 3.92176 12.2879H9.67342C9.96102 12.2879 10.1963 12.0526 10.1963 11.765C10.1963 11.4774 9.961 11.2422 9.67342 11.2422Z" fill="black"/>
<path d="M9.67342 13.8564H3.92176C3.63417 13.8564 3.39893 14.0917 3.39893 14.3793C3.39893 14.6669 3.63418 14.9021 3.92176 14.9021H9.67342C9.96102 14.9021 10.1963 14.6669 10.1963 14.3793C10.1963 14.0917 9.961 13.8564 9.67342 13.8564Z" fill="black"/>
</svg>
