<svg width="18" height="17" viewBox="0 0 18 17" fill="none" xmlns="http://www.w3.org/2000/svg">
<path d="M16.0234 1.51628H14.2264V0.728981C14.2264 0.320752 13.897 0 13.4777 0C13.0584 0 12.7289 0.320752 12.7289 0.728981V1.51628H5.24131V0.728981C5.24131 0.320752 4.91186 0 4.49256 0C4.07325 0 3.7438 0.320752 3.7438 0.728981V1.51628H1.94677C0.86856 1.51628 0 2.39106 0 3.41163V15.1046C0 16.1544 0.86856 17 1.94677 17H16.0532C17.1314 17 18 16.1544 18 15.1046V3.41163C17.97 2.39106 17.1015 1.51628 16.0233 1.51628H16.0234ZM1.94677 2.97424H3.7438V3.44079C3.7438 3.84902 4.07325 4.16977 4.49256 4.16977C4.91186 4.16977 5.24131 3.84902 5.24131 3.44079V2.97424H12.7289V3.44079C12.7289 3.84902 13.0584 4.16977 13.4777 4.16977C13.897 4.16977 14.2264 3.84902 14.2264 3.44079V2.97424H16.0234C16.2631 2.97424 16.4727 3.17836 16.4727 3.41163V4.81127H1.49752V3.41163C1.49752 3.17836 1.70717 2.97424 1.94677 2.97424ZM16.0234 15.571H1.94677C1.70717 15.571 1.49752 15.3669 1.49752 15.1336V6.29856H16.4727V15.1336C16.4727 15.3669 16.2631 15.571 16.0234 15.571ZM13.0584 8.77676C13.0584 9.18499 12.7289 9.50574 12.3096 9.50574H5.66062C5.24131 9.50574 4.91186 9.18499 4.91186 8.77676C4.91186 8.36853 5.24131 8.04778 5.66062 8.04778H12.3394C12.7287 8.04778 13.0582 8.36853 13.0582 8.77676H13.0584ZM13.0584 13.2673C13.0584 13.6755 12.7289 13.9963 12.3096 13.9963H5.66062C5.24131 13.9963 4.91186 13.6755 4.91186 13.2673C4.91186 12.8591 5.24131 12.5383 5.66062 12.5383H12.3394C12.7287 12.5383 13.0582 12.8591 13.0582 13.2673H13.0584Z" fill="black"/>
</svg>
