<svg width="19" height="17" viewBox="0 0 19 17" fill="none" xmlns="http://www.w3.org/2000/svg">
<path d="M17.4677 1.65485H15.4758V1.20352C15.4758 0.77355 15.2421 0.37621 14.8629 0.161189C14.4837 -0.0537295 14.0163 -0.0537295 13.6371 0.161189C13.2579 0.376241 13.0242 0.773585 13.0242 1.20352V1.65485H5.97581V1.20352C5.97581 0.77355 5.74214 0.37621 5.3629 0.161189C4.98367 -0.0537295 4.51633 -0.0537295 4.1371 0.161189C3.75787 0.376241 3.52419 0.773585 3.52419 1.20352V1.65485H1.53226C1.12592 1.65485 0.736184 1.81335 0.448715 2.09542C0.161418 2.37763 0 2.76032 0 3.15928V15.4956C0 15.8945 0.161435 16.2772 0.448715 16.5594C0.736149 16.8415 1.12592 17 1.53226 17H17.4677C17.8741 17 18.2638 16.8415 18.5513 16.5594C18.8386 16.2772 19 15.8945 19 15.4956V3.15928C19 2.76032 18.8386 2.37766 18.5513 2.09542C18.2638 1.81334 17.8741 1.65485 17.4677 1.65485ZM13.6369 1.20352C13.6369 0.988472 13.7538 0.789815 13.9434 0.682356C14.133 0.574897 14.3667 0.574897 14.5563 0.682356C14.7459 0.789815 14.8627 0.988479 14.8627 1.20352V3.00884C14.8627 3.22389 14.7459 3.42254 14.5563 3.53C14.3667 3.63746 14.133 3.63746 13.9434 3.53C13.7538 3.42254 13.6369 3.22388 13.6369 3.00884V1.20352ZM4.13692 1.20352C4.13692 0.988472 4.25375 0.789815 4.44337 0.682356C4.63299 0.574897 4.86666 0.574897 5.05628 0.682356C5.24589 0.789815 5.36273 0.988479 5.36273 1.20352V3.00884C5.36273 3.22389 5.24589 3.42254 5.05628 3.53C4.86666 3.63746 4.63299 3.63746 4.44337 3.53C4.25376 3.42254 4.13692 3.22388 4.13692 3.00884V1.20352ZM1.53208 2.25662H3.52402V3.00884C3.52402 3.43881 3.75769 3.83615 4.13692 4.05117C4.51615 4.26609 4.9835 4.26609 5.36273 4.05117C5.74196 3.83612 5.97563 3.43877 5.97563 3.00884V2.25662H13.024V3.00884C13.024 3.43881 13.2577 3.83615 13.6369 4.05117C14.0162 4.26609 14.4835 4.26609 14.8627 4.05117C15.242 3.83612 15.4756 3.43877 15.4756 3.00884V2.25662H17.4676C17.7114 2.25662 17.9453 2.35172 18.1177 2.52097C18.29 2.69022 18.3869 2.91993 18.3869 3.15926V5.4159H0.612711V3.15926C0.612711 2.9199 0.70957 2.69019 0.88195 2.52097C1.05433 2.35175 1.28829 2.25662 1.53205 2.25662H1.53208ZM17.4676 16.3982H1.53208C1.28829 16.3982 1.05433 16.3031 0.881985 16.1339C0.709637 15.9646 0.612746 15.7349 0.612746 15.4956V6.01788H18.3869V15.4956C18.3869 15.735 18.2901 15.9647 18.1177 16.1339C17.9453 16.3031 17.7114 16.3982 17.4676 16.3982H17.4676Z" fill="black"/>
</svg>
