<svg width="232" height="93" viewBox="0 0 232 93" fill="none" xmlns="http://www.w3.org/2000/svg">
<path d="M23.3484 53.3992H19.5029C18.7924 53.3992 18.2189 53.9728 18.2189 54.6832V54.8103C18.2189 55.5208 18.7924 56.0943 19.5029 56.0943H23.3468C24.0572 56.0943 24.6406 55.5208 24.6308 54.8103L24.6324 54.6832C24.6324 53.9728 24.0588 53.3992 23.3484 53.3992H23.3484Z" fill="black"/>
<path d="M18.2384 33.3889C18.3166 33.3889 18.3948 33.3889 18.4714 33.3791L29.4506 32.3183C30.2882 32.2401 31.0279 31.7251 31.3979 30.9756L32.6819 28.3864L48.5087 27.1105C49.6966 27.0127 50.64 26.079 50.7378 24.8814L51.9061 10.5438C51.9648 9.86265 51.7302 9.1913 51.2739 8.69431C50.816 8.19896 50.1626 7.91705 49.4815 7.91705H30.4819C29.7616 7.91705 29.0708 8.23806 28.6129 8.79372C25.4794 12.5594 15.2985 25.3101 15.8133 31.1697C15.8719 31.8117 16.1832 32.4064 16.6801 32.8236C17.1185 33.1935 17.6725 33.389 18.2379 33.389L18.2384 33.3889ZM31.6308 12.7828H46.8436L46.0565 22.4293L30.9205 23.6449C30.0634 23.7133 29.3139 24.2201 28.9358 24.9892L27.642 27.6077L21.3231 28.2106C22.9493 24.4433 27.3 18.1078 31.6312 12.783L31.6308 12.7828Z" fill="black"/>
<path d="M45.432 44.3681C44.205 44.3681 43.2126 44.8553 43.2126 45.4484C43.2126 46.0415 44.205 46.5287 45.432 46.5287C46.659 46.5287 47.6513 46.0415 47.6513 45.4484C47.6513 44.8537 46.659 44.3681 45.432 44.3681Z" fill="black"/>
<path d="M46.1536 55.1887C37.3644 55.1887 30.2208 62.3323 30.2208 71.1215C30.2208 79.9107 37.3644 87.0543 46.1536 87.0543C54.9332 87.0543 62.0864 79.9107 62.0864 71.1215C62.088 62.3323 54.9428 55.1887 46.1536 55.1887ZM46.1536 82.1891C40.0512 82.1891 35.0864 77.226 35.0864 71.1219C35.0864 65.0195 40.0495 60.0547 46.1536 60.0547C52.256 60.0547 57.2208 65.0179 57.2208 71.1219C57.2208 77.226 52.2576 82.1891 46.1536 82.1891Z" fill="black"/>
<path d="M177.408 60.962C168.628 60.962 161.475 68.1056 161.475 76.8948C161.475 85.684 168.618 92.8276 177.408 92.8276C186.197 92.8276 193.35 85.684 193.35 76.8948C193.35 68.1073 186.197 60.962 177.408 60.962ZM177.408 87.9624C171.305 87.9624 166.34 82.9993 166.34 76.8952C166.34 70.7928 171.304 65.828 177.408 65.828C183.51 65.828 188.485 70.7912 188.485 76.8952C188.483 82.9993 183.51 87.9624 177.408 87.9624Z" fill="black"/>
<path d="M177.408 71.7869C174.585 71.7869 172.298 74.0746 172.298 76.8969C172.298 79.7191 174.585 82.0069 177.408 82.0069C180.23 82.0069 182.518 79.7191 182.518 76.8969C182.518 74.073 180.23 71.7869 177.408 71.7869Z" fill="black"/>
<path d="M46.1536 66.0136C43.3314 66.0136 41.0436 68.3014 41.0436 71.1236C41.0436 73.9458 43.3314 76.2336 46.1536 76.2336C48.9758 76.2336 51.2636 73.9458 51.2636 71.1236C51.2636 68.3014 48.9774 66.0136 46.1536 66.0136Z" fill="black"/>
<path d="M230.122 52.5149L212.806 46.2757C212.533 46.1779 211.988 46.129 211.958 46.129L72.3071 47.3756V3.24601C72.3071 1.90331 71.217 0.813232 69.8744 0.813232H26.2996C25.5892 0.813232 24.9178 1.12446 24.4599 1.65077C23.4383 2.82887 1.38192 28.7684 5.92795 52.5464C5.93772 52.6148 5.86929 52.6735 5.87906 52.7403C5.89862 52.8283 5.97683 52.8772 6.00616 52.9635C6.13326 53.5762 6.20006 54.2003 6.35649 54.813H2.70487C2.01399 54.813 1.36217 55.1046 0.89455 55.6212C0.426933 56.1377 0.213438 56.8188 0.281849 57.4999C0.448056 59.0284 1.43062 66.806 5.11987 69.4323C5.52887 69.7142 6.02587 69.8804 6.53099 69.8804L15.9134 69.8706L26.5422 68.8098C27.7887 68.6827 28.7322 67.6415 28.7322 66.3868C28.7322 54.298 38.4941 53.3741 39.5649 53.3056L54.1357 52.7989L68.3169 64.4789C68.7455 64.8292 69.2995 65.0329 69.8649 65.0329H69.904L158.555 63.5631C157.835 64.6533 157.007 65.6749 156.512 66.9019C155.995 68.1387 156.6 69.5596 157.845 70.0745C158.136 70.2016 158.448 70.2586 158.769 70.2586C159.732 70.2586 160.628 69.685 161.017 68.7497C163.587 62.5105 170.167 58.3262 177.408 58.3262C184.649 58.3262 191.239 62.5222 193.799 68.7497C194.306 69.9865 195.697 70.5894 196.971 70.0826C198.218 69.5661 198.801 68.155 198.304 66.9101C197.788 65.6537 196.952 64.6027 196.212 63.4833H229.305C230.648 63.4833 231.738 62.3932 231.738 61.0505V54.8209C231.731 53.7813 231.079 52.8656 230.125 52.5152L230.122 52.5149ZM67.4404 47.4537L57.5904 47.7942C57.8137 44.7374 57.9994 41.915 58.164 39.2574C58.164 39.2378 58.1836 39.2183 58.1836 39.1987C58.1836 39.189 58.1738 39.1792 58.1738 39.1694C59.391 19.2654 59.0977 10.0378 58.4068 5.66783H67.4488L67.4504 47.453L67.4404 47.4537ZM27.4468 5.68098H53.5037C53.9616 7.91011 54.7013 15.0926 53.4157 37.1198L16.7593 39.797C16.3796 38.9595 15.6789 38.2881 14.7061 38.2881H14.6866L10.9583 38.3174C13.9761 23.2206 24.6035 9.19421 27.4468 5.68103L27.4468 5.68098ZM10.2772 43.183L12.3401 43.1634L12.5243 49.1694L10.3636 49.5295C10.1208 47.4259 10.111 45.3043 10.2772 43.1827L10.2772 43.183ZM39.36 48.4398C34.2988 48.6826 24.9932 52.3326 23.9616 64.1786L15.6692 65.0161L7.50241 65.0145C6.73328 64.0026 6.02285 61.8908 5.55519 59.6813H9.71193C10.5201 59.6813 11.2697 59.2821 11.7259 58.6205C12.174 57.9687 12.2718 57.1214 11.9785 56.3719C11.7162 55.6908 11.5597 54.9999 11.356 54.309L15.4151 53.6279C16.6225 53.4242 17.478 52.3618 17.4486 51.1462L17.2547 44.635L53.1127 42.0165C52.9856 43.905 52.8504 45.8898 52.7037 47.9737L39.36 48.4398ZM226.862 58.601H191.726C187.755 55.448 182.79 53.4422 177.398 53.4422C172.016 53.4422 167.041 55.4562 163.07 58.611L70.7183 60.1378L61.4807 52.5362L69.8123 52.2445C69.8318 52.2445 69.8416 52.2641 69.871 52.2641H69.8905L211.561 50.998L226.861 56.5072L226.862 58.601Z" fill="black"/>
</svg>
