<svg width="292" height="130" viewBox="0 0 292 130" fill="none" xmlns="http://www.w3.org/2000/svg">
<circle cx="65" cy="65" r="60" stroke="#221FD1" stroke-width="10"/>
<mask id="path-2-inside-1_264_6" fill="white">
<path d="M65 130C73.5359 130 81.9883 128.319 89.8744 125.052C97.7606 121.786 104.926 116.998 110.962 110.962C116.998 104.926 121.786 97.7606 125.052 89.8744C128.319 81.9883 130 73.5359 130 65C130 56.4641 128.319 48.0117 125.052 40.1256C121.786 32.2394 116.998 25.0739 110.962 19.0381C104.926 13.0022 97.7606 8.21438 89.8744 4.94783C81.9883 1.68127 73.5359 -7.46234e-07 65 0V10.333C72.179 10.333 79.2876 11.747 85.9201 14.4943C92.5526 17.2416 98.5791 21.2683 103.655 26.3446C108.732 31.4209 112.758 37.4474 115.506 44.0799C118.253 50.7124 119.667 57.821 119.667 65C119.667 72.179 118.253 79.2876 115.506 85.9201C112.758 92.5526 108.732 98.5791 103.655 103.655C98.5791 108.732 92.5526 112.758 85.9201 115.506C79.2876 118.253 72.179 119.667 65 119.667V130Z"/>
</mask>
<path d="M65 130C73.5359 130 81.9883 128.319 89.8744 125.052C97.7606 121.786 104.926 116.998 110.962 110.962C116.998 104.926 121.786 97.7606 125.052 89.8744C128.319 81.9883 130 73.5359 130 65C130 56.4641 128.319 48.0117 125.052 40.1256C121.786 32.2394 116.998 25.0739 110.962 19.0381C104.926 13.0022 97.7606 8.21438 89.8744 4.94783C81.9883 1.68127 73.5359 -7.46234e-07 65 0V10.333C72.179 10.333 79.2876 11.747 85.9201 14.4943C92.5526 17.2416 98.5791 21.2683 103.655 26.3446C108.732 31.4209 112.758 37.4474 115.506 44.0799C118.253 50.7124 119.667 57.821 119.667 65C119.667 72.179 118.253 79.2876 115.506 85.9201C112.758 92.5526 108.732 98.5791 103.655 103.655C98.5791 108.732 92.5526 112.758 85.9201 115.506C79.2876 118.253 72.179 119.667 65 119.667V130Z" stroke="#63F509" stroke-width="20" mask="url(#path-2-inside-1_264_6)"/>
<circle cx="181" cy="20" r="5" fill="#F57B09"/>
<circle cx="181" cy="46" r="5" fill="#1FD130"/>
<path d="M202.828 15.1582C203.918 15.1582 204.764 15.4453 205.365 16.0195C205.967 16.5938 206.301 17.2461 206.367 17.9766H205.23C205.102 17.4219 204.844 16.9824 204.457 16.6582C204.074 16.334 203.535 16.1719 202.84 16.1719C201.992 16.1719 201.307 16.4707 200.783 17.0684C200.264 17.6621 200.004 18.5742 200.004 19.8047C200.004 20.8125 200.238 21.6309 200.707 22.2598C201.18 22.8848 201.883 23.1973 202.816 23.1973C203.676 23.1973 204.33 22.8672 204.779 22.207C205.018 21.8594 205.195 21.4023 205.312 20.8359H206.449C206.348 21.7422 206.012 22.502 205.441 23.1152C204.758 23.8535 203.836 24.2227 202.676 24.2227C201.676 24.2227 200.836 23.9199 200.156 23.3145C199.262 22.5137 198.814 21.2773 198.814 19.6055C198.814 18.3359 199.15 17.2949 199.822 16.4824C200.549 15.5996 201.551 15.1582 202.828 15.1582ZM211.588 15.1582C213.107 15.1582 214.232 15.6465 214.963 16.623C215.533 17.3848 215.818 18.3594 215.818 19.5469C215.818 20.832 215.492 21.9004 214.84 22.752C214.074 23.752 212.982 24.252 211.564 24.252C210.24 24.252 209.199 23.8145 208.441 22.9395C207.766 22.0957 207.428 21.0293 207.428 19.7402C207.428 18.5762 207.717 17.5801 208.295 16.752C209.037 15.6895 210.135 15.1582 211.588 15.1582ZM211.705 23.209C212.732 23.209 213.475 22.8418 213.932 22.1074C214.393 21.3691 214.623 20.5215 214.623 19.5645C214.623 18.5527 214.357 17.7383 213.826 17.1211C213.299 16.5039 212.576 16.1953 211.658 16.1953C210.768 16.1953 210.041 16.502 209.479 17.1152C208.916 17.7246 208.635 18.625 208.635 19.8164C208.635 20.7695 208.875 21.5742 209.355 22.2305C209.84 22.8828 210.623 23.209 211.705 23.209ZM216.674 24C216.713 23.2773 216.861 22.6484 217.119 22.1133C217.381 21.5781 217.889 21.0918 218.643 20.6543L219.768 20.0039C220.271 19.7109 220.625 19.4609 220.828 19.2539C221.148 18.9297 221.309 18.5586 221.309 18.1406C221.309 17.6523 221.162 17.2656 220.869 16.9805C220.576 16.6914 220.186 16.5469 219.697 16.5469C218.975 16.5469 218.475 16.8203 218.197 17.3672C218.049 17.6602 217.967 18.0664 217.951 18.5859H216.879C216.891 17.8555 217.025 17.2598 217.283 16.7988C217.74 15.9863 218.547 15.5801 219.703 15.5801C220.664 15.5801 221.365 15.8398 221.807 16.3594C222.252 16.8789 222.475 17.457 222.475 18.0938C222.475 18.7656 222.238 19.3398 221.766 19.8164C221.492 20.0938 221.002 20.4297 220.295 20.8242L219.492 21.2695C219.109 21.4805 218.809 21.6816 218.59 21.873C218.199 22.2129 217.953 22.5898 217.852 23.0039H222.434V24H216.674ZM226.365 17.584C226.811 17.584 227.242 17.6895 227.66 17.9004C228.078 18.1074 228.396 18.377 228.615 18.709C228.826 19.0254 228.967 19.3945 229.037 19.8164C229.1 20.1055 229.131 20.5664 229.131 21.1992H224.531C224.551 21.8359 224.701 22.3477 224.982 22.7344C225.264 23.1172 225.699 23.3086 226.289 23.3086C226.84 23.3086 227.279 23.127 227.607 22.7637C227.795 22.5527 227.928 22.3086 228.006 22.0312H229.043C229.016 22.2617 228.924 22.5195 228.768 22.8047C228.615 23.0859 228.443 23.3164 228.252 23.4961C227.932 23.8086 227.535 24.0195 227.062 24.1289C226.809 24.1914 226.521 24.2227 226.201 24.2227C225.42 24.2227 224.758 23.9395 224.215 23.373C223.672 22.8027 223.4 22.0059 223.4 20.9824C223.4 19.9746 223.674 19.1562 224.221 18.5273C224.768 17.8984 225.482 17.584 226.365 17.584ZM228.047 20.3613C228.004 19.9043 227.904 19.5391 227.748 19.2656C227.459 18.7578 226.977 18.5039 226.301 18.5039C225.816 18.5039 225.41 18.6797 225.082 19.0312C224.754 19.3789 224.58 19.8223 224.561 20.3613H228.047ZM234.674 21.2227C234.701 21.7109 234.816 22.1074 235.02 22.4121C235.406 22.9824 236.088 23.2676 237.064 23.2676C237.502 23.2676 237.9 23.2051 238.26 23.0801C238.955 22.8379 239.303 22.4043 239.303 21.7793C239.303 21.3105 239.156 20.9766 238.863 20.7773C238.566 20.582 238.102 20.4121 237.469 20.2676L236.303 20.0039C235.541 19.832 235.002 19.6426 234.686 19.4355C234.139 19.0762 233.865 18.5391 233.865 17.8242C233.865 17.0508 234.133 16.416 234.668 15.9199C235.203 15.4238 235.961 15.1758 236.941 15.1758C237.844 15.1758 238.609 15.3945 239.238 15.832C239.871 16.2656 240.188 16.9609 240.188 17.918H239.092C239.033 17.457 238.908 17.1035 238.717 16.8574C238.361 16.4082 237.758 16.1836 236.906 16.1836C236.219 16.1836 235.725 16.3281 235.424 16.6172C235.123 16.9062 234.973 17.2422 234.973 17.625C234.973 18.0469 235.148 18.3555 235.5 18.5508C235.73 18.6758 236.252 18.832 237.064 19.0195L238.271 19.2949C238.854 19.4277 239.303 19.6094 239.619 19.8398C240.166 20.2422 240.439 20.8262 240.439 21.5918C240.439 22.5449 240.092 23.2266 239.396 23.6367C238.705 24.0469 237.9 24.252 236.982 24.252C235.912 24.252 235.074 23.9785 234.469 23.4316C233.863 22.8887 233.566 22.1523 233.578 21.2227H234.674ZM242.584 22.3301C242.584 22.6348 242.695 22.875 242.918 23.0508C243.141 23.2266 243.404 23.3145 243.709 23.3145C244.08 23.3145 244.439 23.2285 244.787 23.0566C245.373 22.7715 245.666 22.3047 245.666 21.6562V20.8066C245.537 20.8887 245.371 20.957 245.168 21.0117C244.965 21.0664 244.766 21.1055 244.57 21.1289L243.932 21.2109C243.549 21.2617 243.262 21.3418 243.07 21.4512C242.746 21.6348 242.584 21.9277 242.584 22.3301ZM245.139 20.1973C245.381 20.166 245.543 20.0645 245.625 19.8926C245.672 19.7988 245.695 19.6641 245.695 19.4883C245.695 19.1289 245.566 18.8691 245.309 18.709C245.055 18.5449 244.689 18.4629 244.213 18.4629C243.662 18.4629 243.271 18.6113 243.041 18.9082C242.912 19.0723 242.828 19.3164 242.789 19.6406H241.805C241.824 18.8672 242.074 18.3301 242.555 18.0293C243.039 17.7246 243.6 17.5723 244.236 17.5723C244.975 17.5723 245.574 17.7129 246.035 17.9941C246.492 18.2754 246.721 18.7129 246.721 19.3066V22.9219C246.721 23.0312 246.742 23.1191 246.785 23.1855C246.832 23.252 246.928 23.2852 247.072 23.2852C247.119 23.2852 247.172 23.2832 247.23 23.2793C247.289 23.2715 247.352 23.2617 247.418 23.25V24.0293C247.254 24.0762 247.129 24.1055 247.043 24.1172C246.957 24.1289 246.84 24.1348 246.691 24.1348C246.328 24.1348 246.064 24.0059 245.9 23.748C245.814 23.6113 245.754 23.418 245.719 23.168C245.504 23.4492 245.195 23.6934 244.793 23.9004C244.391 24.1074 243.947 24.2109 243.463 24.2109C242.881 24.2109 242.404 24.0352 242.033 23.6836C241.666 23.3281 241.482 22.8848 241.482 22.3535C241.482 21.7715 241.664 21.3203 242.027 21C242.391 20.6797 242.867 20.4824 243.457 20.4082L245.139 20.1973ZM248.971 17.7246L250.646 22.834L252.398 17.7246H253.553L251.186 24H250.061L247.746 17.7246H248.971ZM254.455 17.7539H255.527V24H254.455V17.7539ZM254.455 15.3926H255.527V16.5879H254.455V15.3926ZM257.127 17.7246H258.129V18.6152C258.426 18.248 258.74 17.9844 259.072 17.8242C259.404 17.6641 259.773 17.584 260.18 17.584C261.07 17.584 261.672 17.8945 261.984 18.5156C262.156 18.8555 262.242 19.3418 262.242 19.9746V24H261.17V20.0449C261.17 19.6621 261.113 19.3535 261 19.1191C260.812 18.7285 260.473 18.5332 259.98 18.5332C259.73 18.5332 259.525 18.5586 259.365 18.6094C259.076 18.6953 258.822 18.8672 258.604 19.125C258.428 19.332 258.312 19.5469 258.258 19.7695C258.207 19.9883 258.182 20.3027 258.182 20.7129V24H257.127V17.7246ZM266.021 17.6133C266.514 17.6133 266.943 17.7344 267.311 17.9766C267.51 18.1133 267.713 18.3125 267.92 18.5742V17.7832H268.893V23.4902C268.893 24.2871 268.775 24.916 268.541 25.377C268.104 26.2285 267.277 26.6543 266.062 26.6543C265.387 26.6543 264.818 26.502 264.357 26.1973C263.896 25.8965 263.639 25.4238 263.584 24.7793H264.656C264.707 25.0605 264.809 25.2773 264.961 25.4297C265.199 25.6641 265.574 25.7812 266.086 25.7812C266.895 25.7812 267.424 25.4961 267.674 24.9258C267.822 24.5898 267.891 23.9902 267.879 23.127C267.668 23.4473 267.414 23.6855 267.117 23.8418C266.82 23.998 266.428 24.0762 265.939 24.0762C265.26 24.0762 264.664 23.8359 264.152 23.3555C263.645 22.8711 263.391 22.0723 263.391 20.959C263.391 19.9082 263.646 19.0879 264.158 18.498C264.674 17.9082 265.295 17.6133 266.021 17.6133ZM267.92 20.8359C267.92 20.0586 267.76 19.4824 267.439 19.1074C267.119 18.7324 266.711 18.5449 266.215 18.5449C265.473 18.5449 264.965 18.8926 264.691 19.5879C264.547 19.959 264.475 20.4453 264.475 21.0469C264.475 21.7539 264.617 22.293 264.902 22.6641C265.191 23.0312 265.578 23.2148 266.062 23.2148C266.82 23.2148 267.354 22.873 267.662 22.1895C267.834 21.8027 267.92 21.3516 267.92 20.8359ZM271.113 22.0312C271.145 22.3828 271.232 22.6523 271.377 22.8398C271.643 23.1797 272.104 23.3496 272.76 23.3496C273.15 23.3496 273.494 23.2656 273.791 23.0977C274.088 22.9258 274.236 22.6621 274.236 22.3066C274.236 22.0371 274.117 21.832 273.879 21.6914C273.727 21.6055 273.426 21.5059 272.977 21.3926L272.139 21.1816C271.604 21.0488 271.209 20.9004 270.955 20.7363C270.502 20.4512 270.275 20.0566 270.275 19.5527C270.275 18.959 270.488 18.4785 270.914 18.1113C271.344 17.7441 271.92 17.5605 272.643 17.5605C273.588 17.5605 274.27 17.8379 274.688 18.3926C274.949 18.7441 275.076 19.123 275.068 19.5293H274.072C274.053 19.291 273.969 19.0742 273.82 18.8789C273.578 18.6016 273.158 18.4629 272.561 18.4629C272.162 18.4629 271.859 18.5391 271.652 18.6914C271.449 18.8438 271.348 19.0449 271.348 19.2949C271.348 19.5684 271.482 19.7871 271.752 19.9512C271.908 20.0488 272.139 20.1348 272.443 20.209L273.141 20.3789C273.898 20.5625 274.406 20.7402 274.664 20.9121C275.074 21.1816 275.279 21.6055 275.279 22.1836C275.279 22.7422 275.066 23.2246 274.641 23.6309C274.219 24.0371 273.574 24.2402 272.707 24.2402C271.773 24.2402 271.111 24.0293 270.721 23.6074C270.334 23.1816 270.127 22.6562 270.1 22.0312H271.113Z" fill="black"/>
<path d="M28.4141 61.1172V59.5C29.9375 59.3516 31 59.1055 31.6016 58.7617C32.2031 58.4102 32.6523 57.5859 32.9492 56.2891H34.6133V73H32.3633V61.1172H28.4141ZM40.2266 73C40.3047 71.5547 40.6016 70.2969 41.1172 69.2266C41.6406 68.1562 42.6562 67.1836 44.1641 66.3086L46.4141 65.0078C47.4219 64.4219 48.1289 63.9219 48.5352 63.5078C49.1758 62.8594 49.4961 62.1172 49.4961 61.2812C49.4961 60.3047 49.2031 59.5312 48.6172 58.9609C48.0312 58.3828 47.25 58.0938 46.2734 58.0938C44.8281 58.0938 43.8281 58.6406 43.2734 59.7344C42.9766 60.3203 42.8125 61.1328 42.7812 62.1719H40.6367C40.6602 60.7109 40.9297 59.5195 41.4453 58.5977C42.3594 56.9727 43.9727 56.1602 46.2852 56.1602C48.207 56.1602 49.6094 56.6797 50.4922 57.7188C51.3828 58.7578 51.8281 59.9141 51.8281 61.1875C51.8281 62.5312 51.3555 63.6797 50.4102 64.6328C49.8633 65.1875 48.8828 65.8594 47.4688 66.6484L45.8633 67.5391C45.0977 67.9609 44.4961 68.3633 44.0586 68.7461C43.2773 69.4258 42.7852 70.1797 42.582 71.0078H51.7461V73H40.2266ZM59.8555 56.1484C61.7305 56.1484 63.0352 56.6367 63.7695 57.6133C64.5117 58.582 64.8828 59.582 64.8828 60.6133H62.7969C62.6719 59.9492 62.4727 59.4297 62.1992 59.0547C61.6914 58.3516 60.9219 58 59.8906 58C58.7109 58 57.7734 58.5469 57.0781 59.6406C56.3828 60.7266 55.9961 62.2852 55.918 64.3164C56.4023 63.6055 57.0117 63.0742 57.7461 62.7227C58.418 62.4102 59.168 62.2539 59.9961 62.2539C61.4023 62.2539 62.6289 62.7031 63.6758 63.6016C64.7227 64.5 65.2461 65.8398 65.2461 67.6211C65.2461 69.1445 64.75 70.4961 63.7578 71.6758C62.7656 72.8477 61.3516 73.4336 59.5156 73.4336C57.9453 73.4336 56.5898 72.8398 55.4492 71.6523C54.3086 70.457 53.7383 68.4492 53.7383 65.6289C53.7383 63.543 53.9922 61.7734 54.5 60.3203C55.4766 57.5391 57.2617 56.1484 59.8555 56.1484ZM59.7031 71.5586C60.8125 71.5586 61.6406 71.1875 62.1875 70.4453C62.7422 69.6953 63.0195 68.8125 63.0195 67.7969C63.0195 66.9375 62.7734 66.1211 62.2812 65.3477C61.7891 64.5664 60.8945 64.1758 59.5977 64.1758C58.6914 64.1758 57.8945 64.4766 57.207 65.0781C56.5273 65.6797 56.1875 66.5859 56.1875 67.7969C56.1875 68.8594 56.4961 69.7539 57.1133 70.4805C57.7383 71.1992 58.6016 71.5586 59.7031 71.5586ZM68.0234 55.7852H70.2969V64.1758L78.6875 55.7852H81.9102L74.75 62.7227L82.1094 73H79.0742L73.0508 64.3633L70.2969 67V73H68.0234V55.7852ZM91.4727 55.3398C93.0898 55.3398 94.4883 55.6523 95.668 56.2773C97.3789 57.1758 98.4258 58.75 98.8086 61H96.5C96.2188 59.7422 95.6367 58.8281 94.7539 58.2578C93.8711 57.6797 92.7578 57.3906 91.4141 57.3906C89.8203 57.3906 88.4766 57.9883 87.3828 59.1836C86.2969 60.3789 85.7539 62.1602 85.7539 64.5273C85.7539 66.5742 86.2031 68.2422 87.1016 69.5312C88 70.8125 89.4648 71.4531 91.4961 71.4531C93.0508 71.4531 94.3359 71.0039 95.3516 70.1055C96.375 69.1992 96.8984 67.7383 96.9219 65.7227H91.5312V63.7891H99.0898V73H97.5898L97.0273 70.7852C96.2383 71.6523 95.5391 72.2539 94.9297 72.5898C93.9062 73.168 92.6055 73.457 91.0273 73.457C88.9883 73.457 87.2344 72.7969 85.7656 71.4766C84.1641 69.8203 83.3633 67.5469 83.3633 64.6562C83.3633 61.7734 84.1445 59.4805 85.707 57.7773C87.1914 56.1523 89.1133 55.3398 91.4727 55.3398Z" fill="black"/>
<path d="M202.578 41.1582C203.668 41.1582 204.514 41.4453 205.115 42.0195C205.717 42.5938 206.051 43.2461 206.117 43.9766H204.98C204.852 43.4219 204.594 42.9824 204.207 42.6582C203.824 42.334 203.285 42.1719 202.59 42.1719C201.742 42.1719 201.057 42.4707 200.533 43.0684C200.014 43.6621 199.754 44.5742 199.754 45.8047C199.754 46.8125 199.988 47.6309 200.457 48.2598C200.93 48.8848 201.633 49.1973 202.566 49.1973C203.426 49.1973 204.08 48.8672 204.529 48.207C204.768 47.8594 204.945 47.4023 205.062 46.8359H206.199C206.098 47.7422 205.762 48.502 205.191 49.1152C204.508 49.8535 203.586 50.2227 202.426 50.2227C201.426 50.2227 200.586 49.9199 199.906 49.3145C199.012 48.5137 198.564 47.2773 198.564 45.6055C198.564 44.3359 198.9 43.2949 199.572 42.4824C200.299 41.5996 201.301 41.1582 202.578 41.1582ZM208.291 48.3301C208.291 48.6348 208.402 48.875 208.625 49.0508C208.848 49.2266 209.111 49.3145 209.416 49.3145C209.787 49.3145 210.146 49.2285 210.494 49.0566C211.08 48.7715 211.373 48.3047 211.373 47.6562V46.8066C211.244 46.8887 211.078 46.957 210.875 47.0117C210.672 47.0664 210.473 47.1055 210.277 47.1289L209.639 47.2109C209.256 47.2617 208.969 47.3418 208.777 47.4512C208.453 47.6348 208.291 47.9277 208.291 48.3301ZM210.846 46.1973C211.088 46.166 211.25 46.0645 211.332 45.8926C211.379 45.7988 211.402 45.6641 211.402 45.4883C211.402 45.1289 211.273 44.8691 211.016 44.709C210.762 44.5449 210.396 44.4629 209.92 44.4629C209.369 44.4629 208.979 44.6113 208.748 44.9082C208.619 45.0723 208.535 45.3164 208.496 45.6406H207.512C207.531 44.8672 207.781 44.3301 208.262 44.0293C208.746 43.7246 209.307 43.5723 209.943 43.5723C210.682 43.5723 211.281 43.7129 211.742 43.9941C212.199 44.2754 212.428 44.7129 212.428 45.3066V48.9219C212.428 49.0312 212.449 49.1191 212.492 49.1855C212.539 49.252 212.635 49.2852 212.779 49.2852C212.826 49.2852 212.879 49.2832 212.938 49.2793C212.996 49.2715 213.059 49.2617 213.125 49.25V50.0293C212.961 50.0762 212.836 50.1055 212.75 50.1172C212.664 50.1289 212.547 50.1348 212.398 50.1348C212.035 50.1348 211.771 50.0059 211.607 49.748C211.521 49.6113 211.461 49.418 211.426 49.168C211.211 49.4492 210.902 49.6934 210.5 49.9004C210.098 50.1074 209.654 50.2109 209.17 50.2109C208.588 50.2109 208.111 50.0352 207.74 49.6836C207.373 49.3281 207.189 48.8848 207.189 48.3535C207.189 47.7715 207.371 47.3203 207.734 47C208.098 46.6797 208.574 46.4824 209.164 46.4082L210.846 46.1973ZM214.191 43.7246H215.193V44.8086C215.275 44.5977 215.477 44.3418 215.797 44.041C216.117 43.7363 216.486 43.584 216.904 43.584C216.924 43.584 216.957 43.5859 217.004 43.5898C217.051 43.5938 217.131 43.6016 217.244 43.6133V44.7266C217.182 44.7148 217.123 44.707 217.068 44.7031C217.018 44.6992 216.961 44.6973 216.898 44.6973C216.367 44.6973 215.959 44.8691 215.674 45.2129C215.389 45.5527 215.246 45.9453 215.246 46.3906V50H214.191V43.7246ZM218.076 41.3633H219.102V44.4863C219.332 44.1855 219.607 43.957 219.928 43.8008C220.248 43.6406 220.596 43.5605 220.971 43.5605C221.752 43.5605 222.385 43.8301 222.869 44.3691C223.357 44.9043 223.602 45.6953 223.602 46.7422C223.602 47.7344 223.361 48.5586 222.881 49.2148C222.4 49.8711 221.734 50.1992 220.883 50.1992C220.406 50.1992 220.004 50.084 219.676 49.8535C219.48 49.7168 219.271 49.498 219.049 49.1973V50H218.076V41.3633ZM220.818 49.2676C221.389 49.2676 221.814 49.041 222.096 48.5879C222.381 48.1348 222.523 47.5371 222.523 46.7949C222.523 46.1348 222.381 45.5879 222.096 45.1543C221.814 44.7207 221.398 44.5039 220.848 44.5039C220.367 44.5039 219.945 44.6816 219.582 45.0371C219.223 45.3926 219.043 45.9785 219.043 46.7949C219.043 47.3848 219.117 47.8633 219.266 48.2305C219.543 48.9219 220.061 49.2676 220.818 49.2676ZM227.328 49.3203C228.027 49.3203 228.506 49.0566 228.764 48.5293C229.025 47.998 229.156 47.4082 229.156 46.7598C229.156 46.1738 229.062 45.6973 228.875 45.3301C228.578 44.752 228.066 44.4629 227.34 44.4629C226.695 44.4629 226.227 44.709 225.934 45.2012C225.641 45.6934 225.494 46.2871 225.494 46.9824C225.494 47.6504 225.641 48.207 225.934 48.6523C226.227 49.0977 226.691 49.3203 227.328 49.3203ZM227.369 43.543C228.178 43.543 228.861 43.8125 229.42 44.3516C229.979 44.8906 230.258 45.6836 230.258 46.7305C230.258 47.7422 230.012 48.5781 229.52 49.2383C229.027 49.8984 228.264 50.2285 227.229 50.2285C226.365 50.2285 225.68 49.9375 225.172 49.3555C224.664 48.7695 224.41 47.9844 224.41 47C224.41 45.9453 224.678 45.1055 225.213 44.4805C225.748 43.8555 226.467 43.543 227.369 43.543ZM231.518 43.7246H232.52V44.6152C232.816 44.248 233.131 43.9844 233.463 43.8242C233.795 43.6641 234.164 43.584 234.57 43.584C235.461 43.584 236.062 43.8945 236.375 44.5156C236.547 44.8555 236.633 45.3418 236.633 45.9746V50H235.561V46.0449C235.561 45.6621 235.504 45.3535 235.391 45.1191C235.203 44.7285 234.863 44.5332 234.371 44.5332C234.121 44.5332 233.916 44.5586 233.756 44.6094C233.467 44.6953 233.213 44.8672 232.994 45.125C232.818 45.332 232.703 45.5469 232.648 45.7695C232.598 45.9883 232.572 46.3027 232.572 46.7129V50H231.518V43.7246ZM245.393 41.1582C246.912 41.1582 248.037 41.6465 248.768 42.623C249.338 43.3848 249.623 44.3594 249.623 45.5469C249.623 46.832 249.297 47.9004 248.645 48.752C247.879 49.752 246.787 50.252 245.369 50.252C244.045 50.252 243.004 49.8145 242.246 48.9395C241.57 48.0957 241.232 47.0293 241.232 45.7402C241.232 44.5762 241.521 43.5801 242.1 42.752C242.842 41.6895 243.939 41.1582 245.393 41.1582ZM245.51 49.209C246.537 49.209 247.279 48.8418 247.736 48.1074C248.197 47.3691 248.428 46.5215 248.428 45.5645C248.428 44.5527 248.162 43.7383 247.631 43.1211C247.104 42.5039 246.381 42.1953 245.463 42.1953C244.572 42.1953 243.846 42.502 243.283 43.1152C242.721 43.7246 242.439 44.625 242.439 45.8164C242.439 46.7695 242.68 47.5742 243.16 48.2305C243.645 48.8828 244.428 49.209 245.51 49.209ZM251.141 42.7695C251.156 42.332 251.232 42.0117 251.369 41.8086C251.615 41.4492 252.09 41.2695 252.793 41.2695C252.859 41.2695 252.928 41.2715 252.998 41.2754C253.068 41.2793 253.148 41.2852 253.238 41.293V42.2539C253.129 42.2461 253.049 42.2422 252.998 42.2422C252.951 42.2383 252.906 42.2363 252.863 42.2363C252.543 42.2363 252.352 42.3203 252.289 42.4883C252.227 42.6523 252.195 43.0742 252.195 43.7539H253.238V44.5859H252.184V50H251.141V44.5859H250.268V43.7539H251.141V42.7695ZM254.27 42.7695C254.285 42.332 254.361 42.0117 254.498 41.8086C254.744 41.4492 255.219 41.2695 255.922 41.2695C255.988 41.2695 256.057 41.2715 256.127 41.2754C256.197 41.2793 256.277 41.2852 256.367 41.293V42.2539C256.258 42.2461 256.178 42.2422 256.127 42.2422C256.08 42.2383 256.035 42.2363 255.992 42.2363C255.672 42.2363 255.48 42.3203 255.418 42.4883C255.355 42.6523 255.324 43.0742 255.324 43.7539H256.367V44.5859H255.312V50H254.27V44.5859H253.396V43.7539H254.27V42.7695ZM257.973 48.0312C258.004 48.3828 258.092 48.6523 258.236 48.8398C258.502 49.1797 258.963 49.3496 259.619 49.3496C260.01 49.3496 260.354 49.2656 260.65 49.0977C260.947 48.9258 261.096 48.6621 261.096 48.3066C261.096 48.0371 260.977 47.832 260.738 47.6914C260.586 47.6055 260.285 47.5059 259.836 47.3926L258.998 47.1816C258.463 47.0488 258.068 46.9004 257.814 46.7363C257.361 46.4512 257.135 46.0566 257.135 45.5527C257.135 44.959 257.348 44.4785 257.773 44.1113C258.203 43.7441 258.779 43.5605 259.502 43.5605C260.447 43.5605 261.129 43.8379 261.547 44.3926C261.809 44.7441 261.936 45.123 261.928 45.5293H260.932C260.912 45.291 260.828 45.0742 260.68 44.8789C260.438 44.6016 260.018 44.4629 259.42 44.4629C259.021 44.4629 258.719 44.5391 258.512 44.6914C258.309 44.8438 258.207 45.0449 258.207 45.2949C258.207 45.5684 258.342 45.7871 258.611 45.9512C258.768 46.0488 258.998 46.1348 259.303 46.209L260 46.3789C260.758 46.5625 261.266 46.7402 261.523 46.9121C261.934 47.1816 262.139 47.6055 262.139 48.1836C262.139 48.7422 261.926 49.2246 261.5 49.6309C261.078 50.0371 260.434 50.2402 259.566 50.2402C258.633 50.2402 257.971 50.0293 257.58 49.6074C257.193 49.1816 256.986 48.6562 256.959 48.0312H257.973ZM265.959 43.584C266.404 43.584 266.836 43.6895 267.254 43.9004C267.672 44.1074 267.99 44.377 268.209 44.709C268.42 45.0254 268.561 45.3945 268.631 45.8164C268.693 46.1055 268.725 46.5664 268.725 47.1992H264.125C264.145 47.8359 264.295 48.3477 264.576 48.7344C264.857 49.1172 265.293 49.3086 265.883 49.3086C266.434 49.3086 266.873 49.127 267.201 48.7637C267.389 48.5527 267.521 48.3086 267.6 48.0312H268.637C268.609 48.2617 268.518 48.5195 268.361 48.8047C268.209 49.0859 268.037 49.3164 267.846 49.4961C267.525 49.8086 267.129 50.0195 266.656 50.1289C266.402 50.1914 266.115 50.2227 265.795 50.2227C265.014 50.2227 264.352 49.9395 263.809 49.373C263.266 48.8027 262.994 48.0059 262.994 46.9824C262.994 45.9746 263.268 45.1562 263.814 44.5273C264.361 43.8984 265.076 43.584 265.959 43.584ZM267.641 46.3613C267.598 45.9043 267.498 45.5391 267.342 45.2656C267.053 44.7578 266.57 44.5039 265.895 44.5039C265.41 44.5039 265.004 44.6797 264.676 45.0312C264.348 45.3789 264.174 45.8223 264.154 46.3613H267.641ZM270.236 41.9727H271.303V43.7246H272.305V44.5859H271.303V48.6816C271.303 48.9004 271.377 49.0469 271.525 49.1211C271.607 49.1641 271.744 49.1855 271.936 49.1855C271.986 49.1855 272.041 49.1855 272.1 49.1855C272.158 49.1816 272.227 49.1758 272.305 49.168V50C272.184 50.0352 272.057 50.0605 271.924 50.0762C271.795 50.0918 271.654 50.0996 271.502 50.0996C271.01 50.0996 270.676 49.9746 270.5 49.7246C270.324 49.4707 270.236 49.1426 270.236 48.7402V44.5859H269.387V43.7246H270.236V41.9727ZM273.576 41.9727H274.643V43.7246H275.645V44.5859H274.643V48.6816C274.643 48.9004 274.717 49.0469 274.865 49.1211C274.947 49.1641 275.084 49.1855 275.275 49.1855C275.326 49.1855 275.381 49.1855 275.439 49.1855C275.498 49.1816 275.566 49.1758 275.645 49.168V50C275.523 50.0352 275.396 50.0605 275.264 50.0762C275.135 50.0918 274.994 50.0996 274.842 50.0996C274.35 50.0996 274.016 49.9746 273.84 49.7246C273.664 49.4707 273.576 49.1426 273.576 48.7402V44.5859H272.727V43.7246H273.576V41.9727ZM276.705 43.7539H277.777V50H276.705V43.7539ZM276.705 41.3926H277.777V42.5879H276.705V41.3926ZM279.377 43.7246H280.379V44.6152C280.676 44.248 280.99 43.9844 281.322 43.8242C281.654 43.6641 282.023 43.584 282.43 43.584C283.32 43.584 283.922 43.8945 284.234 44.5156C284.406 44.8555 284.492 45.3418 284.492 45.9746V50H283.42V46.0449C283.42 45.6621 283.363 45.3535 283.25 45.1191C283.062 44.7285 282.723 44.5332 282.23 44.5332C281.98 44.5332 281.775 44.5586 281.615 44.6094C281.326 44.6953 281.072 44.8672 280.854 45.125C280.678 45.332 280.562 45.5469 280.508 45.7695C280.457 45.9883 280.432 46.3027 280.432 46.7129V50H279.377V43.7246ZM288.271 43.6133C288.764 43.6133 289.193 43.7344 289.561 43.9766C289.76 44.1133 289.963 44.3125 290.17 44.5742V43.7832H291.143V49.4902C291.143 50.2871 291.025 50.916 290.791 51.377C290.354 52.2285 289.527 52.6543 288.312 52.6543C287.637 52.6543 287.068 52.502 286.607 52.1973C286.146 51.8965 285.889 51.4238 285.834 50.7793H286.906C286.957 51.0605 287.059 51.2773 287.211 51.4297C287.449 51.6641 287.824 51.7812 288.336 51.7812C289.145 51.7812 289.674 51.4961 289.924 50.9258C290.072 50.5898 290.141 49.9902 290.129 49.127C289.918 49.4473 289.664 49.6855 289.367 49.8418C289.07 49.998 288.678 50.0762 288.189 50.0762C287.51 50.0762 286.914 49.8359 286.402 49.3555C285.895 48.8711 285.641 48.0723 285.641 46.959C285.641 45.9082 285.896 45.0879 286.408 44.498C286.924 43.9082 287.545 43.6133 288.271 43.6133ZM290.17 46.8359C290.17 46.0586 290.01 45.4824 289.689 45.1074C289.369 44.7324 288.961 44.5449 288.465 44.5449C287.723 44.5449 287.215 44.8926 286.941 45.5879C286.797 45.959 286.725 46.4453 286.725 47.0469C286.725 47.7539 286.867 48.293 287.152 48.6641C287.441 49.0312 287.828 49.2148 288.312 49.2148C289.07 49.2148 289.604 48.873 289.912 48.1895C290.084 47.8027 290.17 47.3516 290.17 46.8359Z" fill="black"/>
</svg>
