<svg width="130" height="130" viewBox="0 0 130 130" fill="none" xmlns="http://www.w3.org/2000/svg">
<circle cx="65" cy="65" r="60" stroke="#221FD1" stroke-width="10"/>
<path d="M47.4023 89V80.4102H50.6426C51.2129 80.4102 51.6484 80.4375 51.9492 80.4922C52.3711 80.5625 52.7246 80.6973 53.0098 80.8965C53.2949 81.0918 53.5234 81.3672 53.6953 81.7227C53.8711 82.0781 53.959 82.4688 53.959 82.8945C53.959 83.625 53.7266 84.2441 53.2617 84.752C52.7969 85.2559 51.957 85.5078 50.7422 85.5078H48.5391V89H47.4023ZM48.5391 84.4941H50.7598C51.4941 84.4941 52.0156 84.3574 52.3242 84.084C52.6328 83.8105 52.7871 83.4258 52.7871 82.9297C52.7871 82.5703 52.6953 82.2637 52.5117 82.0098C52.332 81.752 52.0938 81.582 51.7969 81.5C51.6055 81.4492 51.252 81.4238 50.7363 81.4238H48.5391V84.4941ZM59.332 88.2324C58.9414 88.5645 58.5645 88.7988 58.2012 88.9355C57.8418 89.0723 57.4551 89.1406 57.041 89.1406C56.3574 89.1406 55.832 88.9746 55.4648 88.6426C55.0977 88.3066 54.9141 87.8789 54.9141 87.3594C54.9141 87.0547 54.9824 86.7773 55.1191 86.5273C55.2598 86.2734 55.4414 86.0703 55.6641 85.918C55.8906 85.7656 56.1445 85.6504 56.4258 85.5723C56.6328 85.5176 56.9453 85.4648 57.3633 85.4141C58.2148 85.3125 58.8418 85.1914 59.2441 85.0508C59.248 84.9062 59.25 84.8145 59.25 84.7754C59.25 84.3457 59.1504 84.043 58.9512 83.8672C58.6816 83.6289 58.2812 83.5098 57.75 83.5098C57.2539 83.5098 56.8867 83.5977 56.6484 83.7734C56.4141 83.9453 56.2402 84.252 56.127 84.6934L55.0957 84.5527C55.1895 84.1113 55.3438 83.7559 55.5586 83.4863C55.7734 83.2129 56.084 83.0039 56.4902 82.8594C56.8965 82.7109 57.3672 82.6367 57.9023 82.6367C58.4336 82.6367 58.8652 82.6992 59.1973 82.8242C59.5293 82.9492 59.7734 83.1074 59.9297 83.2988C60.0859 83.4863 60.1953 83.7246 60.2578 84.0137C60.293 84.1934 60.3105 84.5176 60.3105 84.9863V86.3926C60.3105 87.373 60.332 87.9941 60.375 88.2559C60.4219 88.5137 60.5117 88.7617 60.6445 89H59.543C59.4336 88.7812 59.3633 88.5254 59.332 88.2324ZM59.2441 85.877C58.8613 86.0332 58.2871 86.166 57.5215 86.2754C57.0879 86.3379 56.7812 86.4082 56.6016 86.4863C56.4219 86.5645 56.2832 86.6797 56.1855 86.832C56.0879 86.9805 56.0391 87.1465 56.0391 87.3301C56.0391 87.6113 56.1445 87.8457 56.3555 88.0332C56.5703 88.2207 56.8828 88.3145 57.293 88.3145C57.6992 88.3145 58.0605 88.2266 58.377 88.0508C58.6934 87.8711 58.9258 87.627 59.0742 87.3184C59.1875 87.0801 59.2441 86.7285 59.2441 86.2637V85.877ZM61.9277 89V80.4102H62.9824V89H61.9277ZM64.5996 89V80.4102H65.6543V89H64.5996ZM71.5547 86.9961L72.6445 87.1309C72.4727 87.7676 72.1543 88.2617 71.6895 88.6133C71.2246 88.9648 70.6309 89.1406 69.9082 89.1406C68.998 89.1406 68.2754 88.8613 67.7402 88.3027C67.209 87.7402 66.9434 86.9531 66.9434 85.9414C66.9434 84.8945 67.2129 84.082 67.752 83.5039C68.291 82.9258 68.9902 82.6367 69.8496 82.6367C70.6816 82.6367 71.3613 82.9199 71.8887 83.4863C72.416 84.0527 72.6797 84.8496 72.6797 85.877C72.6797 85.9395 72.6777 86.0332 72.6738 86.1582H68.0332C68.0723 86.8418 68.2656 87.3652 68.6133 87.7285C68.9609 88.0918 69.3945 88.2734 69.9141 88.2734C70.3008 88.2734 70.6309 88.1719 70.9043 87.9688C71.1777 87.7656 71.3945 87.4414 71.5547 86.9961ZM68.0918 85.291H71.5664C71.5195 84.7676 71.3867 84.375 71.168 84.1133C70.832 83.707 70.3965 83.5039 69.8613 83.5039C69.377 83.5039 68.9688 83.666 68.6367 83.9902C68.3086 84.3145 68.127 84.748 68.0918 85.291ZM76.2773 88.0566L76.4297 88.9883C76.1328 89.0508 75.8672 89.082 75.6328 89.082C75.25 89.082 74.9531 89.0215 74.7422 88.9004C74.5312 88.7793 74.3828 88.6211 74.2969 88.4258C74.2109 88.2266 74.168 87.8105 74.168 87.1777V83.5977H73.3945V82.7773H74.168V81.2363L75.2168 80.6035V82.7773H76.2773V83.5977H75.2168V87.2363C75.2168 87.5371 75.2344 87.7305 75.2695 87.8164C75.3086 87.9023 75.3691 87.9707 75.4512 88.0215C75.5371 88.0723 75.6582 88.0977 75.8145 88.0977C75.9316 88.0977 76.0859 88.084 76.2773 88.0566ZM76.8926 87.1426L77.9355 86.9785C77.9941 87.3965 78.1562 87.7168 78.4219 87.9395C78.6914 88.1621 79.0664 88.2734 79.5469 88.2734C80.0312 88.2734 80.3906 88.1758 80.625 87.9805C80.8594 87.7812 80.9766 87.5488 80.9766 87.2832C80.9766 87.0449 80.873 86.8574 80.666 86.7207C80.5215 86.627 80.1621 86.5078 79.5879 86.3633C78.8145 86.168 78.2773 86 77.9766 85.8594C77.6797 85.7148 77.4531 85.5176 77.2969 85.2676C77.1445 85.0137 77.0684 84.7344 77.0684 84.4297C77.0684 84.1523 77.1309 83.8965 77.2559 83.6621C77.3848 83.4238 77.5586 83.2266 77.7773 83.0703C77.9414 82.9492 78.1641 82.8477 78.4453 82.7656C78.7305 82.6797 79.0352 82.6367 79.3594 82.6367C79.8477 82.6367 80.2754 82.707 80.6426 82.8477C81.0137 82.9883 81.2871 83.1797 81.4629 83.4219C81.6387 83.6602 81.7598 83.9805 81.8262 84.3828L80.7949 84.5234C80.748 84.2031 80.6113 83.9531 80.3848 83.7734C80.1621 83.5938 79.8457 83.5039 79.4355 83.5039C78.9512 83.5039 78.6055 83.584 78.3984 83.7441C78.1914 83.9043 78.0879 84.0918 78.0879 84.3066C78.0879 84.4434 78.1309 84.5664 78.2168 84.6758C78.3027 84.7891 78.4375 84.8828 78.6211 84.957C78.7266 84.9961 79.0371 85.0859 79.5527 85.2266C80.2988 85.4258 80.8184 85.5898 81.1113 85.7188C81.4082 85.8438 81.6406 86.0273 81.8086 86.2695C81.9766 86.5117 82.0605 86.8125 82.0605 87.1719C82.0605 87.5234 81.957 87.8555 81.75 88.168C81.5469 88.4766 81.252 88.7168 80.8652 88.8887C80.4785 89.0566 80.041 89.1406 79.5527 89.1406C78.7441 89.1406 78.127 88.9727 77.7012 88.6367C77.2793 88.3008 77.0098 87.8027 76.8926 87.1426Z" fill="black"/>
<path d="M56.543 57.9727V60H45.1875C45.1719 59.4922 45.2539 59.0039 45.4336 58.5352C45.7227 57.7617 46.1836 57 46.8164 56.25C47.457 55.5 48.3789 54.6328 49.582 53.6484C51.4492 52.1172 52.7109 50.9062 53.3672 50.0156C54.0234 49.1172 54.3516 48.2695 54.3516 47.4727C54.3516 46.6367 54.0508 45.9336 53.4492 45.3633C52.8555 44.7852 52.0781 44.4961 51.1172 44.4961C50.1016 44.4961 49.2891 44.8008 48.6797 45.4102C48.0703 46.0195 47.7617 46.8633 47.7539 47.9414L45.5859 47.7188C45.7344 46.1016 46.293 44.8711 47.2617 44.0273C48.2305 43.1758 49.5312 42.75 51.1641 42.75C52.8125 42.75 54.1172 43.207 55.0781 44.1211C56.0391 45.0352 56.5195 46.168 56.5195 47.5195C56.5195 48.207 56.3789 48.8828 56.0977 49.5469C55.8164 50.2109 55.3477 50.9102 54.6914 51.6445C54.043 52.3789 52.9609 53.3867 51.4453 54.668C50.1797 55.7305 49.3672 56.4531 49.0078 56.8359C48.6484 57.2109 48.3516 57.5898 48.1172 57.9727H56.543ZM58.8164 51.5273C58.8164 49.4961 59.0234 47.8633 59.4375 46.6289C59.8594 45.3867 60.4805 44.4297 61.3008 43.7578C62.1289 43.0859 63.168 42.75 64.418 42.75C65.3398 42.75 66.1484 42.9375 66.8438 43.3125C67.5391 43.6797 68.1133 44.2148 68.5664 44.918C69.0195 45.6133 69.375 46.4648 69.6328 47.4727C69.8906 48.4727 70.0195 49.8242 70.0195 51.5273C70.0195 53.543 69.8125 55.1719 69.3984 56.4141C68.9844 57.6484 68.3633 58.6055 67.5352 59.2852C66.7148 59.957 65.6758 60.293 64.418 60.293C62.7617 60.293 61.4609 59.6992 60.5156 58.5117C59.3828 57.082 58.8164 54.7539 58.8164 51.5273ZM60.9844 51.5273C60.9844 54.3477 61.3125 56.2266 61.9688 57.1641C62.6328 58.0938 63.4492 58.5586 64.418 58.5586C65.3867 58.5586 66.1992 58.0898 66.8555 57.1523C67.5195 56.2148 67.8516 54.3398 67.8516 51.5273C67.8516 48.6992 67.5195 46.8203 66.8555 45.8906C66.1992 44.9609 65.3789 44.4961 64.3945 44.4961C63.4258 44.4961 62.6523 44.9062 62.0742 45.7266C61.3477 46.7734 60.9844 48.707 60.9844 51.5273ZM72.1758 51.5273C72.1758 49.4961 72.3828 47.8633 72.7969 46.6289C73.2188 45.3867 73.8398 44.4297 74.6602 43.7578C75.4883 43.0859 76.5273 42.75 77.7773 42.75C78.6992 42.75 79.5078 42.9375 80.2031 43.3125C80.8984 43.6797 81.4727 44.2148 81.9258 44.918C82.3789 45.6133 82.7344 46.4648 82.9922 47.4727C83.25 48.4727 83.3789 49.8242 83.3789 51.5273C83.3789 53.543 83.1719 55.1719 82.7578 56.4141C82.3438 57.6484 81.7227 58.6055 80.8945 59.2852C80.0742 59.957 79.0352 60.293 77.7773 60.293C76.1211 60.293 74.8203 59.6992 73.875 58.5117C72.7422 57.082 72.1758 54.7539 72.1758 51.5273ZM74.3438 51.5273C74.3438 54.3477 74.6719 56.2266 75.3281 57.1641C75.9922 58.0938 76.8086 58.5586 77.7773 58.5586C78.7461 58.5586 79.5586 58.0898 80.2148 57.1523C80.8789 56.2148 81.2109 54.3398 81.2109 51.5273C81.2109 48.6992 80.8789 46.8203 80.2148 45.8906C79.5586 44.9609 78.7383 44.4961 77.7539 44.4961C76.7852 44.4961 76.0117 44.9062 75.4336 45.7266C74.707 46.7734 74.3438 48.707 74.3438 51.5273Z" fill="black"/>
</svg>
