<?xml version="1.0" standalone="no"?>
<!DOCTYPE svg PUBLIC "-//W3C//DTD SVG 20010904//EN"
 "http://www.w3.org/TR/2001/REC-SVG-20010904/DTD/svg10.dtd">
<svg version="1.0" xmlns="http://www.w3.org/2000/svg"
 width="864.000000pt" height="864.000000pt" viewBox="0 0 864.000000 864.000000"
 preserveAspectRatio="xMidYMid meet">
<metadata>
Created by potrace 1.14, written by Peter Selinger 2001-2017
</metadata>
<g transform="translate(0.000000,864.000000) scale(0.100000,-0.100000)"
fill="#000000" stroke="none">
<path d="M5674 8485 c-28 -12 -93 -60 -145 -105 -118 -104 -243 -217 -281
-252 -16 -16 -31 -28 -34 -28 -3 0 -17 -13 -32 -28 -15 -16 -85 -80 -157 -143
-71 -63 -137 -121 -145 -129 -9 -8 -33 -29 -52 -47 -93 -82 -244 -218 -254
-227 -6 -6 -42 -38 -79 -71 -38 -33 -73 -64 -79 -70 -14 -13 -188 -169 -240
-215 -21 -19 -51 -46 -65 -59 -14 -12 -57 -51 -96 -85 -38 -33 -81 -72 -96
-86 -15 -14 -55 -50 -90 -80 -34 -30 -74 -66 -89 -80 -15 -14 -40 -36 -56 -50
-134 -118 -242 -216 -260 -234 -11 -11 -43 -39 -69 -61 -27 -22 -58 -49 -69
-61 -12 -11 -84 -76 -161 -145 -77 -68 -142 -126 -145 -129 -3 -3 -45 -41 -95
-85 -49 -44 -92 -83 -95 -86 -3 -3 -27 -25 -55 -49 -27 -23 -88 -77 -135 -120
-47 -42 -134 -121 -195 -175 -60 -54 -131 -116 -156 -139 -138 -124 -204 -183
-221 -197 -44 -39 -163 -146 -182 -164 -12 -11 -82 -74 -156 -140 -304 -270
-315 -281 -344 -365 -22 -65 -15 -174 15 -235 49 -102 147 -170 254 -179 31
-3 60 -8 65 -11 5 -3 11 -1 14 4 4 6 18 6 36 1 17 -5 30 -5 30 0 0 5 13 5 30
0 17 -5 30 -5 30 0 0 5 7 7 15 4 21 -9 225 -10 225 -3 0 4 16 3 35 -1 19 -4
37 -4 40 1 3 4 16 5 28 0 12 -5 31 -5 42 -1 11 4 24 5 29 2 13 -7 146 -8 146
-1 0 4 16 3 35 -1 19 -4 37 -4 40 1 3 4 16 4 29 -1 13 -5 26 -6 29 -4 9 9 71
10 94 2 12 -4 25 -3 28 2 3 6 15 6 29 0 13 -5 27 -6 30 -3 8 8 76 9 76 1 0 -4
14 -3 30 2 17 5 30 5 30 0 0 -5 13 -5 30 0 17 5 30 5 30 0 0 -5 13 -5 30 0 17
5 30 5 30 0 0 -5 13 -5 30 0 17 5 30 5 30 0 0 -5 13 -5 30 0 17 5 30 6 30 2 0
-8 68 -7 76 1 3 3 16 2 28 -3 13 -4 29 -4 36 0 8 5 21 5 30 0 9 -5 22 -5 30 0
8 5 21 5 30 0 9 -5 22 -5 30 0 8 5 21 5 30 0 9 -5 22 -5 30 0 8 5 21 5 30 0 9
-5 22 -5 30 0 8 5 21 5 30 0 9 -5 22 -5 30 0 8 5 21 5 30 0 9 -5 22 -5 30 0 8
5 21 5 30 0 9 -5 22 -5 30 0 8 5 21 5 30 0 9 -5 22 -5 30 0 8 5 21 5 30 0 9
-5 22 -5 30 0 8 5 18 6 23 3 13 -8 207 -9 207 -2 0 4 16 3 35 -1 19 -4 37 -4
40 1 3 4 16 5 28 0 12 -5 31 -5 42 -1 11 4 24 5 29 2 13 -7 146 -8 146 -1 0 4
16 3 35 -1 19 -4 37 -4 40 1 3 4 16 4 29 -1 13 -5 26 -6 29 -4 8 8 95 9 103 2
3 -4 17 -3 30 2 14 6 26 6 29 0 3 -5 15 -6 28 -1 12 5 34 5 49 0 16 -4 28 -4
28 1 0 5 13 5 30 0 17 -5 30 -5 30 0 0 5 13 5 30 0 17 -5 30 -5 30 0 0 5 13 5
30 0 17 -5 30 -5 30 0 0 5 13 5 30 0 17 -5 30 -5 30 0 0 5 13 5 30 0 17 -5 30
-5 30 0 0 5 13 5 30 0 17 -5 30 -5 30 0 0 5 13 5 30 0 17 -5 30 -5 30 0 0 5
13 5 30 0 17 -5 30 -5 30 0 0 5 13 5 30 0 17 -5 30 -5 30 0 0 5 13 5 30 0 17
-5 30 -5 30 0 0 5 13 5 30 0 17 -5 30 -5 30 0 0 5 13 5 30 0 17 -5 30 -5 30 0
0 5 13 5 30 0 17 -5 30 -5 30 0 0 5 13 5 30 0 17 -5 30 -5 30 0 0 5 13 5 30 0
17 -5 30 -5 30 0 0 5 13 5 30 0 17 -5 30 -5 30 0 0 5 7 7 15 4 21 -9 225 -10
225 -3 0 4 16 3 35 -1 19 -4 37 -4 40 1 3 4 16 5 28 0 12 -5 31 -5 42 -1 11 4
34 4 52 -1 18 -4 35 -3 38 1 3 5 18 5 34 0 15 -4 34 -4 41 0 7 4 25 4 40 0 15
-4 33 -4 41 0 7 5 17 6 23 3 12 -8 75 -10 71 -3 -2 3 12 4 30 2 l35 -4 -33
-28 c-38 -33 -156 -131 -217 -180 -24 -19 -54 -44 -67 -55 -12 -11 -39 -33
-60 -50 -20 -16 -58 -48 -84 -70 -25 -22 -55 -47 -65 -55 -10 -8 -122 -101
-249 -205 -126 -104 -286 -236 -355 -293 -69 -56 -136 -113 -150 -126 -14 -12
-61 -52 -105 -87 -44 -35 -82 -66 -85 -69 -3 -3 -30 -25 -60 -49 -30 -24 -62
-51 -70 -60 -9 -9 -45 -38 -80 -66 -36 -27 -69 -54 -75 -60 -5 -6 -48 -43 -95
-81 -47 -38 -94 -77 -105 -86 -21 -18 -129 -107 -209 -173 -27 -22 -57 -47
-66 -55 -20 -16 -27 -22 -110 -90 -30 -25 -62 -53 -71 -62 -9 -10 -21 -18 -27
-18 -6 0 -15 -6 -19 -13 -4 -7 -71 -64 -148 -127 -143 -118 -163 -134 -203
-168 -13 -11 -42 -35 -64 -54 -45 -36 -227 -187 -268 -221 -14 -12 -62 -52
-107 -89 -45 -37 -92 -76 -105 -87 -146 -124 -292 -240 -297 -236 -3 4 -1 9 5
13 5 4 24 36 42 72 17 36 50 99 73 140 22 41 61 113 86 160 25 47 58 108 73
135 100 185 121 225 121 232 0 4 6 15 13 23 7 8 39 65 71 125 32 61 86 162
120 225 34 63 84 156 110 205 27 50 74 139 107 198 32 59 58 112 58 117 0 6 5
10 10 10 6 0 10 9 10 19 0 11 3 21 8 23 4 1 20 28 35 58 16 30 32 62 37 70 31
50 190 354 190 363 0 6 -3 7 -7 4 -3 -4 -20 2 -37 12 -17 11 -57 33 -88 50
-32 17 -82 44 -110 60 -112 60 -179 93 -182 90 -2 -2 -25 -44 -51 -94 -26 -49
-52 -96 -57 -103 -6 -6 -7 -12 -3 -12 5 0 1 -8 -7 -17 -8 -10 -24 -36 -35 -58
-11 -22 -35 -67 -53 -100 -18 -33 -55 -103 -83 -155 -27 -52 -57 -108 -67
-125 -10 -16 -39 -70 -65 -120 -26 -49 -62 -117 -80 -150 -18 -33 -52 -96 -75
-140 -24 -44 -57 -107 -75 -140 -38 -70 -87 -162 -140 -260 -21 -38 -52 -97
-69 -130 -17 -33 -33 -62 -36 -65 -3 -3 -25 -43 -49 -90 -25 -47 -59 -112 -77
-145 -18 -33 -41 -76 -51 -95 -9 -19 -30 -56 -45 -83 -15 -26 -25 -47 -21 -47
3 0 0 -8 -8 -17 -8 -10 -21 -31 -29 -48 -8 -16 -17 -32 -20 -35 -3 -3 -18 -30
-33 -60 -16 -30 -39 -73 -51 -95 -12 -22 -50 -93 -85 -159 -35 -65 -85 -160
-113 -210 -92 -170 -117 -229 -122 -286 -10 -136 66 -265 191 -320 90 -40 222
-30 298 23 26 18 130 102 145 117 3 3 52 43 110 90 58 46 107 87 110 90 5 5
151 126 194 160 10 8 26 22 35 31 9 8 36 31 61 50 24 18 52 41 60 49 16 14 50
43 150 124 25 20 54 45 65 54 11 10 45 38 75 62 30 25 57 47 60 50 3 3 43 37
90 75 47 38 87 72 90 75 3 3 54 46 115 95 60 50 117 97 127 105 9 8 23 20 30
25 7 6 29 24 49 40 20 17 55 46 79 64 23 19 48 40 54 46 6 6 33 28 61 50 27
22 56 47 65 55 9 8 33 29 54 45 43 34 61 49 130 108 27 23 58 48 70 56 12 8
23 18 26 21 3 3 32 28 65 56 33 27 69 57 80 66 75 62 245 203 385 318 90 74
174 144 186 155 12 12 37 32 54 45 18 14 41 32 50 40 30 26 101 85 205 170
108 88 181 149 199 165 6 6 63 53 126 105 63 51 124 102 135 111 11 10 49 42
85 71 36 29 67 55 70 58 3 3 28 23 55 45 28 21 52 42 55 45 3 3 34 29 70 58
36 29 74 61 85 70 11 10 61 51 110 92 50 40 97 79 105 87 32 27 70 59 106 88
41 33 154 127 224 186 25 20 64 53 87 72 46 38 93 90 93 103 0 4 6 15 13 23
28 33 42 155 25 221 -33 126 -154 228 -280 235 -33 2 -62 5 -65 8 -3 3 -15 2
-27 -2 -11 -5 -29 -5 -39 -2 -10 4 -43 4 -73 1 -30 -3 -60 -3 -66 1 -7 4 -19
4 -28 -1 -9 -5 -22 -5 -30 0 -8 5 -21 5 -30 0 -9 -5 -22 -5 -30 0 -8 5 -21 5
-31 0 -9 -5 -19 -7 -22 -4 -7 7 -136 8 -143 1 -3 -3 -16 -2 -29 3 -13 5 -25 6
-28 3 -3 -3 -27 -5 -54 -4 -26 1 -56 1 -65 1 -10 0 -25 0 -33 0 -8 0 -22 0
-30 0 -8 0 -22 0 -30 0 -8 0 -22 0 -30 0 -8 0 -21 0 -27 0 -7 -1 -43 0 -81 1
-37 1 -70 -1 -73 -4 -3 -3 -16 -2 -28 2 -11 5 -29 5 -40 2 -19 -7 -96 -4 -104
3 -2 3 -15 1 -28 -4 -13 -5 -26 -6 -29 0 -3 5 -18 5 -35 0 -17 -5 -30 -5 -30
0 0 5 -13 5 -29 0 -16 -4 -32 -6 -35 -3 -7 7 -115 7 -122 0 -4 -3 -16 -2 -29
3 -13 5 -25 6 -28 3 -3 -3 -27 -5 -54 -4 -26 1 -56 1 -65 1 -10 0 -25 0 -33 0
-8 0 -22 0 -30 0 -8 0 -22 0 -30 0 -8 0 -22 0 -30 0 -8 0 -21 0 -27 0 -7 -1
-43 0 -81 1 -37 1 -70 -1 -73 -4 -3 -3 -16 -2 -28 2 -11 5 -29 5 -40 2 -19 -7
-96 -4 -104 3 -2 3 -15 1 -28 -4 -13 -5 -26 -6 -29 0 -3 5 -18 5 -35 0 -17 -5
-30 -5 -30 0 0 5 -13 5 -29 0 -16 -4 -32 -6 -35 -3 -7 7 -115 7 -122 0 -4 -3
-16 -2 -29 3 -13 5 -25 6 -28 3 -3 -3 -27 -5 -54 -4 -26 1 -56 1 -65 1 -10 0
-25 0 -33 0 -8 0 -22 0 -30 0 -8 0 -22 0 -30 0 -8 0 -22 0 -30 0 -8 0 -21 0
-27 0 -7 -1 -43 0 -81 1 -37 1 -70 -1 -73 -4 -3 -3 -16 -2 -29 3 -13 5 -25 6
-28 3 -3 -3 -27 -5 -54 -4 -26 1 -56 1 -65 1 -10 0 -25 0 -33 0 -8 0 -22 0
-30 0 -8 0 -22 0 -30 0 -8 0 -22 0 -30 0 -8 0 -23 0 -32 0 -10 0 -43 -1 -73
-1 -30 0 -61 0 -67 0 -7 1 -20 1 -28 1 -8 0 -22 0 -30 0 -8 0 -22 0 -30 0 -8
0 -22 0 -30 0 -8 0 -22 0 -30 0 -8 0 -23 0 -32 0 -10 0 -43 -1 -73 -1 -30 0
-61 0 -67 0 -7 1 -20 1 -28 1 -8 0 -22 0 -30 0 -8 0 -22 0 -30 0 -8 0 -22 0
-30 0 -8 0 -22 0 -30 0 -8 0 -23 0 -32 0 -10 0 -43 -1 -73 -1 -30 0 -61 0 -67
0 -7 1 -20 1 -28 1 -8 0 -22 0 -30 0 -8 0 -22 0 -30 0 -8 0 -22 0 -30 0 -8 0
-22 0 -30 0 -8 0 -21 0 -27 -1 -7 0 -43 1 -81 2 -37 1 -70 0 -73 -4 -3 -3 -18
-1 -34 3 -16 4 -31 6 -34 3 -7 -8 -91 -7 -103 0 -5 3 -15 2 -23 -3 -8 -5 -21
-5 -30 0 -9 5 -22 5 -29 0 -8 -4 -27 -4 -42 0 -18 5 -29 5 -29 -1 0 -6 -5 -7
-11 -3 -6 3 -29 6 -51 6 -36 -1 -38 1 -26 16 7 9 16 19 19 22 14 11 133 116
148 130 9 9 54 49 100 90 47 41 92 82 101 90 24 22 169 153 213 191 22 19 49
43 61 54 42 38 189 170 235 211 25 22 73 65 106 95 33 30 94 83 134 119 41 36
81 72 90 80 25 25 203 184 234 211 16 13 41 35 56 49 26 24 72 65 296 265 128
114 148 133 194 175 19 17 61 54 94 83 33 29 65 57 71 62 34 32 256 232 310
278 24 22 167 150 207 187 15 14 51 45 79 70 29 25 60 52 69 61 9 9 61 56 116
105 55 49 105 93 111 99 6 5 39 35 73 65 35 30 86 76 114 102 29 26 54 45 56
42 2 -2 -4 -23 -14 -46 -9 -24 -21 -52 -26 -63 -4 -11 -19 -45 -32 -75 -13
-30 -28 -66 -32 -80 -4 -14 -15 -43 -25 -65 -10 -22 -55 -132 -100 -245 -45
-113 -88 -218 -95 -235 -7 -16 -36 -88 -65 -160 -28 -71 -56 -139 -61 -150 -4
-11 -17 -42 -28 -70 -11 -27 -27 -68 -37 -90 -10 -22 -18 -44 -20 -50 -1 -5
-24 -64 -51 -130 -55 -133 -65 -158 -68 -165 -4 -11 -26 -66 -34 -85 -5 -11
-28 -67 -51 -125 -23 -58 -51 -124 -61 -147 -11 -24 -19 -47 -19 -53 0 -6 -4
-18 -10 -28 -5 -9 -30 -69 -56 -132 -25 -63 -52 -130 -61 -149 -8 -18 -11 -37
-6 -41 7 -7 147 -65 376 -156 l58 -23 25 55 c13 30 24 57 24 60 0 3 6 20 14
37 8 18 38 91 66 162 29 72 58 144 65 160 7 17 50 122 95 235 45 113 90 223
100 245 10 22 21 51 25 65 4 14 18 48 31 75 12 28 26 63 29 78 4 15 10 27 14
27 4 0 8 6 8 14 0 8 8 31 18 52 11 22 20 44 21 50 1 6 9 27 17 45 8 19 31 75
51 124 20 50 41 98 46 107 6 10 10 23 10 29 0 6 6 25 14 42 8 18 40 95 72 172
31 77 97 239 146 360 49 121 91 225 92 230 2 6 8 21 13 35 6 14 27 66 47 115
20 50 41 98 46 107 6 10 10 22 10 28 0 5 11 33 24 62 12 29 47 112 75 185 46
114 53 142 53 200 0 75 -1 82 -24 134 -29 66 -81 120 -151 156 -73 37 -189 41
-263 8z"/>
</g>
</svg>
