<?xml version="1.0" standalone="no"?>
<!DOCTYPE svg PUBLIC "-//W3C//DTD SVG 20010904//EN"
 "http://www.w3.org/TR/2001/REC-SVG-20010904/DTD/svg10.dtd">
<svg version="1.0" xmlns="http://www.w3.org/2000/svg"
 width="700.000000pt" height="700.000000pt" viewBox="0 0 700.000000 700.000000"
 preserveAspectRatio="xMidYMid meet">
<metadata>
Created by potrace 1.14, written by Peter Selinger 2001-2017
</metadata>
<g transform="translate(0.000000,700.000000) scale(0.100000,-0.100000)"
fill="#000000" stroke="none">
<path d="M0 3500 l0 -3500 3500 0 3500 0 0 3500 0 3500 -3500 0 -3500 0 0
-3500z m2714 1728 c8 -29 175 -615 372 -1303 196 -687 359 -1253 363 -1257 3
-4 168 554 366 1240 197 686 367 1275 377 1310 l19 62 374 0 c206 0 375 -3
375 -7 0 -5 -265 -784 -589 -1733 l-588 -1725 -344 -3 -344 -2 -529 1567
c-291 863 -555 1643 -587 1736 l-58 167 389 0 389 0 15 -52z"/>
</g>
</svg>
